<?xml version="1.0" encoding="UTF-8"?>
<svg xmlns="http://www.w3.org/2000/svg" xmlns:xlink="http://www.w3.org/1999/xlink" width="1280" height="720" viewBox="0 0 1280 720">
<defs>
<g>
<g id="glyph-0-0">
<path d="M 0.152344 -5.144531 L 4.546875 -5.144531 L 4.585938 -3.824219 L 4.402344 -3.824219 C 4.308594 -4.238281 4.195312 -4.507812 4.054688 -4.636719 C 3.914062 -4.761719 3.617188 -4.824219 3.167969 -4.824219 L 2.734375 -4.824219 L 2.734375 -0.84375 C 2.734375 -0.542969 2.78125 -0.355469 2.875 -0.28125 C 2.96875 -0.210938 3.171875 -0.164062 3.488281 -0.140625 L 3.488281 0 L 1.222656 0 L 1.222656 -0.140625 C 1.550781 -0.164062 1.757812 -0.21875 1.839844 -0.304688 C 1.917969 -0.386719 1.960938 -0.597656 1.960938 -0.933594 L 1.960938 -4.824219 L 1.527344 -4.824219 C 1.097656 -4.824219 0.804688 -4.761719 0.648438 -4.636719 C 0.492188 -4.511719 0.375 -4.242188 0.296875 -3.824219 L 0.105469 -3.824219 Z "/>
</g>
<g id="glyph-0-1">
<path d="M 0.0664062 -0.105469 C 0.273438 -0.132812 0.410156 -0.183594 0.476562 -0.261719 C 0.542969 -0.335938 0.574219 -0.511719 0.574219 -0.789062 L 0.574219 -4.433594 C 0.574219 -4.578125 0.554688 -4.683594 0.519531 -4.75 C 0.480469 -4.816406 0.390625 -4.847656 0.25 -4.847656 C 0.222656 -4.847656 0.195312 -4.847656 0.167969 -4.84375 C 0.140625 -4.839844 0.113281 -4.835938 0.078125 -4.832031 L 0.078125 -4.96875 C 0.191406 -5 0.328125 -5.039062 0.492188 -5.085938 C 0.65625 -5.132812 0.769531 -5.167969 0.832031 -5.1875 L 1.195312 -5.300781 L 1.203125 -5.273438 L 1.203125 -2.941406 C 1.363281 -3.125 1.503906 -3.257812 1.628906 -3.34375 C 1.851562 -3.496094 2.09375 -3.574219 2.351562 -3.574219 C 2.761719 -3.574219 3.039062 -3.402344 3.191406 -3.058594 C 3.269531 -2.875 3.3125 -2.636719 3.3125 -2.339844 L 3.3125 -0.789062 C 3.3125 -0.519531 3.34375 -0.347656 3.40625 -0.265625 C 3.46875 -0.183594 3.59375 -0.132812 3.785156 -0.105469 L 3.785156 0 L 2.140625 0 L 2.140625 -0.105469 C 2.363281 -0.136719 2.503906 -0.1875 2.566406 -0.261719 C 2.628906 -0.335938 2.660156 -0.511719 2.660156 -0.789062 L 2.660156 -2.328125 C 2.660156 -2.574219 2.621094 -2.773438 2.539062 -2.925781 C 2.457031 -3.078125 2.300781 -3.152344 2.074219 -3.152344 C 1.875 -3.152344 1.683594 -3.082031 1.5 -2.9375 C 1.316406 -2.796875 1.222656 -2.707031 1.222656 -2.660156 L 1.222656 -0.789062 C 1.222656 -0.507812 1.253906 -0.328125 1.320312 -0.257812 C 1.386719 -0.1875 1.527344 -0.136719 1.742188 -0.105469 L 1.742188 0 L 0.0664062 0 Z "/>
</g>
<g id="glyph-0-2">
<path d="M 1.78125 -3.5625 C 2.136719 -3.5625 2.449219 -3.4375 2.71875 -3.191406 C 2.988281 -2.945312 3.121094 -2.59375 3.121094 -2.140625 L 0.710938 -2.140625 C 0.734375 -1.554688 0.867188 -1.125 1.109375 -0.859375 C 1.347656 -0.589844 1.632812 -0.457031 1.964844 -0.457031 C 2.230469 -0.457031 2.453125 -0.523438 2.636719 -0.664062 C 2.816406 -0.804688 2.984375 -1 3.140625 -1.257812 L 3.273438 -1.210938 C 3.167969 -0.890625 2.976562 -0.59375 2.691406 -0.320312 C 2.40625 -0.046875 2.058594 0.0898438 1.644531 0.0898438 C 1.167969 0.0898438 0.800781 -0.0898438 0.542969 -0.449219 C 0.28125 -0.808594 0.152344 -1.222656 0.152344 -1.691406 C 0.152344 -2.199219 0.300781 -2.636719 0.605469 -3.007812 C 0.90625 -3.378906 1.296875 -3.5625 1.78125 -3.5625 Z M 1.5625 -3.285156 C 1.273438 -3.285156 1.050781 -3.15625 0.898438 -2.902344 C 0.820312 -2.765625 0.761719 -2.59375 0.726562 -2.386719 L 2.328125 -2.386719 C 2.300781 -2.636719 2.25 -2.828125 2.183594 -2.949219 C 2.058594 -3.171875 1.851562 -3.285156 1.5625 -3.285156 Z "/>
</g>
</g>
</defs>
<g fill="rgb(96.862745%, 85.098039%, 43.529412%)" fill-opacity="1">
<use xlink:href="#glyph-0-0" x="30" y="25.833008"/>
<use xlink:href="#glyph-0-1" x="35" y="25.833008"/>
<use xlink:href="#glyph-0-2" x="39" y="25.833008"/>
</g>
</svg>
