<?xml version="1.0" encoding="UTF-8"?>
<svg xmlns="http://www.w3.org/2000/svg" xmlns:xlink="http://www.w3.org/1999/xlink" width="1280" height="720" viewBox="0 0 1280 720">
<defs>
<g>
<g id="glyph-0-0">
<path d="M 0.144531 -0.0625 C 0.28125 -0.0859375 0.367188 -0.113281 0.402344 -0.152344 C 0.433594 -0.191406 0.453125 -0.296875 0.453125 -0.464844 L 0.453125 -1.851562 L 0.144531 -1.851562 L 0.144531 -1.984375 L 0.457031 -1.984375 C 0.464844 -2.15625 0.476562 -2.285156 0.492188 -2.371094 C 0.519531 -2.503906 0.570312 -2.625 0.648438 -2.730469 C 0.699219 -2.800781 0.757812 -2.859375 0.832031 -2.90625 C 0.945312 -2.980469 1.074219 -3.019531 1.21875 -3.019531 C 1.3125 -3.019531 1.40625 -3 1.503906 -2.960938 C 1.601562 -2.925781 1.664062 -2.90625 1.6875 -2.90625 C 1.695312 -2.90625 1.703125 -2.90625 1.710938 -2.90625 C 1.71875 -2.910156 1.730469 -2.910156 1.738281 -2.914062 L 1.953125 -2.996094 C 1.964844 -3 1.972656 -3.003906 1.980469 -3.007812 C 1.988281 -3.011719 1.996094 -3.011719 2.003906 -3.015625 C 2.019531 -3.007812 2.027344 -2.996094 2.027344 -2.992188 C 2.03125 -2.984375 2.03125 -2.96875 2.03125 -2.953125 L 2.023438 -2.757812 L 2.023438 -0.359375 C 2.023438 -0.246094 2.042969 -0.171875 2.078125 -0.132812 C 2.113281 -0.0976562 2.191406 -0.0742188 2.3125 -0.0625 L 2.3125 0 L 1.355469 0 L 1.355469 -0.0625 C 1.464844 -0.078125 1.539062 -0.0976562 1.574219 -0.125 C 1.628906 -0.167969 1.65625 -0.253906 1.65625 -0.375 L 1.65625 -1.851562 L 0.816406 -1.851562 L 0.816406 -0.347656 C 0.816406 -0.253906 0.835938 -0.1875 0.882812 -0.140625 C 0.925781 -0.0976562 1.007812 -0.0703125 1.136719 -0.0625 L 1.136719 0 L 0.144531 0 Z M 1.65625 -2.605469 C 1.644531 -2.597656 1.636719 -2.589844 1.625 -2.585938 C 1.613281 -2.582031 1.597656 -2.582031 1.574219 -2.582031 C 1.488281 -2.582031 1.414062 -2.632812 1.347656 -2.738281 C 1.28125 -2.84375 1.207031 -2.894531 1.128906 -2.894531 C 0.988281 -2.894531 0.902344 -2.8125 0.863281 -2.644531 C 0.835938 -2.539062 0.824219 -2.316406 0.824219 -1.984375 L 1.65625 -1.984375 Z "/>
</g>
<g id="glyph-0-1">
<path d="M 1.019531 -2.035156 C 1.222656 -2.035156 1.402344 -1.964844 1.554688 -1.824219 C 1.707031 -1.683594 1.785156 -1.484375 1.785156 -1.222656 L 0.40625 -1.222656 C 0.421875 -0.886719 0.496094 -0.644531 0.632812 -0.492188 C 0.769531 -0.335938 0.933594 -0.261719 1.121094 -0.261719 C 1.273438 -0.261719 1.402344 -0.300781 1.507812 -0.378906 C 1.609375 -0.460938 1.707031 -0.570312 1.792969 -0.71875 L 1.871094 -0.691406 C 1.8125 -0.507812 1.699219 -0.339844 1.539062 -0.183594 C 1.375 -0.0273438 1.175781 0.0507812 0.941406 0.0507812 C 0.667969 0.0507812 0.457031 -0.0507812 0.308594 -0.257812 C 0.160156 -0.460938 0.0859375 -0.699219 0.0859375 -0.964844 C 0.0859375 -1.257812 0.171875 -1.507812 0.34375 -1.71875 C 0.515625 -1.929688 0.742188 -2.035156 1.019531 -2.035156 Z M 0.890625 -1.878906 C 0.726562 -1.878906 0.601562 -1.804688 0.515625 -1.65625 C 0.46875 -1.578125 0.433594 -1.480469 0.414062 -1.363281 L 1.332031 -1.363281 C 1.316406 -1.507812 1.285156 -1.617188 1.246094 -1.6875 C 1.175781 -1.8125 1.058594 -1.878906 0.890625 -1.878906 Z "/>
</g>
<g id="glyph-0-2">
<path d="M 2.066406 -1.949219 C 1.980469 -1.9375 1.914062 -1.925781 1.871094 -1.90625 C 1.832031 -1.886719 1.808594 -1.847656 1.808594 -1.792969 C 1.808594 -1.761719 1.816406 -1.730469 1.824219 -1.699219 C 1.832031 -1.664062 1.847656 -1.628906 1.863281 -1.585938 L 2.257812 -0.554688 L 2.644531 -1.496094 C 2.660156 -1.535156 2.679688 -1.589844 2.699219 -1.65625 C 2.71875 -1.722656 2.730469 -1.769531 2.730469 -1.804688 C 2.730469 -1.855469 2.714844 -1.894531 2.679688 -1.910156 C 2.648438 -1.929688 2.597656 -1.945312 2.535156 -1.953125 L 2.535156 -2.015625 L 3.085938 -2.015625 L 3.085938 -1.953125 C 3.050781 -1.945312 3.019531 -1.929688 2.996094 -1.902344 C 2.972656 -1.875 2.941406 -1.808594 2.898438 -1.707031 L 2.203125 0.0078125 C 2.199219 0.0195312 2.195312 0.0273438 2.191406 0.0351562 C 2.1875 0.0390625 2.179688 0.0429688 2.171875 0.0429688 C 2.152344 0.0351562 2.144531 0.0273438 2.140625 0.0234375 L 1.648438 -1.191406 L 1.078125 0.015625 C 1.074219 0.0234375 1.070312 0.03125 1.066406 0.0351562 C 1.0625 0.0390625 1.054688 0.0429688 1.046875 0.0429688 C 1.03125 0.0351562 1.019531 0.0273438 1.019531 0.0234375 L 0.367188 -1.578125 C 0.296875 -1.753906 0.25 -1.855469 0.226562 -1.886719 C 0.203125 -1.917969 0.160156 -1.9375 0.0898438 -1.949219 L 0.0898438 -2.015625 L 0.894531 -2.015625 L 0.894531 -1.949219 C 0.828125 -1.941406 0.777344 -1.929688 0.742188 -1.914062 C 0.707031 -1.894531 0.6875 -1.855469 0.6875 -1.796875 C 0.6875 -1.753906 0.71875 -1.652344 0.777344 -1.488281 C 0.8125 -1.394531 0.855469 -1.28125 0.910156 -1.144531 L 1.15625 -0.53125 L 1.546875 -1.367188 L 1.550781 -1.394531 C 1.550781 -1.421875 1.535156 -1.476562 1.503906 -1.554688 C 1.472656 -1.632812 1.445312 -1.703125 1.414062 -1.765625 C 1.386719 -1.832031 1.351562 -1.875 1.316406 -1.902344 C 1.28125 -1.925781 1.226562 -1.941406 1.160156 -1.949219 L 1.160156 -2.015625 L 2.066406 -2.015625 Z "/>
</g>
</g>
</defs>
<g fill="rgb(96.862745%, 85.098039%, 43.529412%)" fill-opacity="1">
<use xlink:href="#glyph-0-0" x="30" y="23.333008"/>
<use xlink:href="#glyph-0-1" x="32" y="23.333008"/>
<use xlink:href="#glyph-0-2" x="34" y="23.333008"/>
</g>
</svg>
