<?xml version="1.0" encoding="UTF-8"?>
<svg xmlns="http://www.w3.org/2000/svg" xmlns:xlink="http://www.w3.org/1999/xlink" width="1280" height="720" viewBox="0 0 1280 720">
<defs>
<g>
<g id="glyph-0-0">
<path d="M 0.984375 -2.234375 C 0.988281 -2.230469 0.992188 -2.226562 0.992188 -2.222656 C 0.992188 -2.222656 0.996094 -2.214844 0.996094 -2.207031 L 0.996094 -0.246094 C 0.996094 -0.164062 1.015625 -0.109375 1.0625 -0.0859375 C 1.105469 -0.0625 1.1875 -0.0507812 1.308594 -0.046875 L 1.308594 0 L 0.390625 0 L 0.390625 -0.046875 C 0.523438 -0.0546875 0.609375 -0.0742188 0.648438 -0.101562 C 0.6875 -0.132812 0.710938 -0.195312 0.710938 -0.292969 L 0.710938 -1.800781 C 0.710938 -1.851562 0.703125 -1.890625 0.691406 -1.917969 C 0.675781 -1.945312 0.648438 -1.960938 0.605469 -1.960938 C 0.578125 -1.960938 0.539062 -1.953125 0.496094 -1.9375 C 0.449219 -1.921875 0.410156 -1.902344 0.371094 -1.886719 L 0.371094 -1.933594 L 0.964844 -2.234375 Z "/>
</g>
<g id="glyph-0-1">
<path d="M 0.796875 -0.0585938 C 0.957031 -0.0585938 1.066406 -0.148438 1.125 -0.320312 C 1.183594 -0.496094 1.214844 -0.75 1.214844 -1.082031 C 1.214844 -1.34375 1.199219 -1.554688 1.160156 -1.710938 C 1.09375 -2.003906 0.96875 -2.152344 0.785156 -2.152344 C 0.601562 -2.152344 0.472656 -2 0.40625 -1.699219 C 0.371094 -1.539062 0.351562 -1.328125 0.351562 -1.0625 C 0.351562 -0.816406 0.371094 -0.621094 0.40625 -0.472656 C 0.476562 -0.199219 0.605469 -0.0585938 0.796875 -0.0585938 Z M 0.792969 -2.238281 C 1.042969 -2.238281 1.234375 -2.109375 1.375 -1.847656 C 1.484375 -1.636719 1.539062 -1.390625 1.539062 -1.117188 C 1.539062 -0.902344 1.503906 -0.699219 1.4375 -0.507812 C 1.308594 -0.148438 1.089844 0.03125 0.777344 0.03125 C 0.5625 0.03125 0.386719 -0.0664062 0.25 -0.261719 C 0.101562 -0.46875 0.0273438 -0.75 0.0273438 -1.105469 C 0.0273438 -1.386719 0.078125 -1.625 0.175781 -1.828125 C 0.308594 -2.101562 0.515625 -2.238281 0.792969 -2.238281 Z "/>
</g>
<g id="glyph-0-2">
<path d="M 0.824219 -2.253906 L 1.453125 -0.84375 L 1.230469 -0.84375 L 0.78125 -1.898438 L 0.332031 -0.84375 L 0.105469 -0.84375 L 0.734375 -2.253906 Z "/>
</g>
<g id="glyph-0-3">
<path d="M 0.832031 -0.933594 C 0.90625 -0.933594 0.980469 -0.953125 1.058594 -0.996094 C 1.136719 -1.035156 1.183594 -1.070312 1.195312 -1.097656 C 1.199219 -1.109375 1.203125 -1.148438 1.207031 -1.21875 C 1.210938 -1.289062 1.210938 -1.347656 1.210938 -1.390625 C 1.210938 -1.617188 1.171875 -1.800781 1.097656 -1.941406 C 1.019531 -2.082031 0.910156 -2.152344 0.761719 -2.152344 C 0.65625 -2.152344 0.570312 -2.101562 0.503906 -2.007812 C 0.4375 -1.910156 0.40625 -1.765625 0.40625 -1.574219 C 0.40625 -1.414062 0.4375 -1.269531 0.5 -1.132812 C 0.558594 -1 0.671875 -0.933594 0.832031 -0.933594 Z M 0.785156 -2.246094 C 1.023438 -2.246094 1.210938 -2.148438 1.339844 -1.957031 C 1.46875 -1.769531 1.535156 -1.554688 1.535156 -1.320312 C 1.535156 -1.15625 1.503906 -0.988281 1.441406 -0.820312 C 1.378906 -0.648438 1.289062 -0.496094 1.171875 -0.363281 C 1.035156 -0.207031 0.859375 -0.09375 0.648438 -0.0195312 C 0.53125 0.0234375 0.378906 0.0546875 0.199219 0.078125 L 0.183594 0.0117188 C 0.296875 -0.0117188 0.390625 -0.0390625 0.464844 -0.0703125 C 0.601562 -0.125 0.707031 -0.1875 0.789062 -0.265625 C 0.902344 -0.375 0.996094 -0.496094 1.066406 -0.632812 C 1.132812 -0.765625 1.175781 -0.878906 1.195312 -0.972656 L 1.136719 -0.929688 C 1.058594 -0.867188 0.964844 -0.828125 0.855469 -0.804688 C 0.796875 -0.792969 0.746094 -0.785156 0.699219 -0.785156 C 0.515625 -0.785156 0.371094 -0.851562 0.261719 -0.980469 C 0.152344 -1.109375 0.0976562 -1.265625 0.0976562 -1.449219 C 0.0976562 -1.679688 0.164062 -1.871094 0.292969 -2.019531 C 0.421875 -2.167969 0.585938 -2.246094 0.785156 -2.246094 Z "/>
</g>
</g>
</defs>
<g fill="rgb(40%, 40%, 40%)" fill-opacity="1">
<use xlink:href="#glyph-0-0" x="30" y="22.5"/>
<use xlink:href="#glyph-0-1" x="32" y="22.5"/>
<use xlink:href="#glyph-0-2" x="34" y="22.5"/>
<use xlink:href="#glyph-0-0" x="36" y="22.5"/>
<use xlink:href="#glyph-0-3" x="38" y="22.5"/>
</g>
</svg>
