<?xml version="1.0" encoding="UTF-8"?>
<svg xmlns="http://www.w3.org/2000/svg" xmlns:xlink="http://www.w3.org/1999/xlink" width="1280" height="720" viewBox="0 0 1280 720">
<defs>
<g>
<g id="glyph-0-0">
<path d="M 0.0273438 -0.046875 C 0.117188 -0.0585938 0.175781 -0.078125 0.203125 -0.113281 C 0.230469 -0.144531 0.246094 -0.21875 0.246094 -0.339844 L 0.246094 -1.902344 C 0.246094 -1.960938 0.238281 -2.007812 0.222656 -2.035156 C 0.207031 -2.0625 0.167969 -2.078125 0.105469 -2.078125 C 0.09375 -2.078125 0.0820312 -2.078125 0.0742188 -2.074219 C 0.0625 -2.074219 0.046875 -2.074219 0.0351562 -2.070312 L 0.0351562 -2.128906 C 0.0820312 -2.144531 0.140625 -2.160156 0.210938 -2.179688 C 0.28125 -2.199219 0.328125 -2.214844 0.355469 -2.222656 L 0.511719 -2.273438 L 0.515625 -2.261719 L 0.515625 -1.261719 C 0.585938 -1.339844 0.644531 -1.398438 0.699219 -1.433594 C 0.792969 -1.5 0.898438 -1.53125 1.007812 -1.53125 C 1.183594 -1.53125 1.304688 -1.457031 1.367188 -1.308594 C 1.402344 -1.230469 1.417969 -1.128906 1.417969 -1.003906 L 1.417969 -0.339844 C 1.417969 -0.222656 1.433594 -0.148438 1.460938 -0.113281 C 1.484375 -0.078125 1.539062 -0.0546875 1.621094 -0.046875 L 1.621094 0 L 0.917969 0 L 0.917969 -0.046875 C 1.011719 -0.0585938 1.074219 -0.0820312 1.101562 -0.113281 C 1.128906 -0.144531 1.140625 -0.21875 1.140625 -0.339844 L 1.140625 -0.996094 C 1.140625 -1.101562 1.125 -1.1875 1.089844 -1.253906 C 1.054688 -1.320312 0.984375 -1.351562 0.886719 -1.351562 C 0.804688 -1.351562 0.722656 -1.320312 0.644531 -1.257812 C 0.5625 -1.199219 0.523438 -1.160156 0.523438 -1.140625 L 0.523438 -0.339844 C 0.523438 -0.21875 0.539062 -0.140625 0.566406 -0.109375 C 0.59375 -0.078125 0.65625 -0.0585938 0.746094 -0.046875 L 0.746094 0 L 0.0273438 0 Z "/>
</g>
<g id="glyph-0-1">
<path d="M 0 0.417969 L 0 0.253906 L 1.664062 0.253906 L 1.664062 0.417969 Z "/>
</g>
<g id="glyph-0-2">
<path d="M 0.0976562 -0.0390625 C 0.496094 -0.449219 0.765625 -0.753906 0.90625 -0.945312 C 1.050781 -1.136719 1.121094 -1.328125 1.121094 -1.511719 C 1.121094 -1.671875 1.078125 -1.792969 0.992188 -1.878906 C 0.90625 -1.960938 0.800781 -2.003906 0.679688 -2.003906 C 0.53125 -2.003906 0.410156 -1.949219 0.320312 -1.839844 C 0.269531 -1.78125 0.21875 -1.6875 0.171875 -1.566406 L 0.101562 -1.582031 C 0.15625 -1.832031 0.25 -2.003906 0.378906 -2.101562 C 0.507812 -2.199219 0.648438 -2.246094 0.796875 -2.246094 C 0.980469 -2.246094 1.128906 -2.1875 1.242188 -2.074219 C 1.355469 -1.957031 1.410156 -1.816406 1.410156 -1.648438 C 1.410156 -1.46875 1.351562 -1.300781 1.226562 -1.132812 C 1.105469 -0.96875 0.839844 -0.675781 0.429688 -0.253906 L 1.175781 -0.253906 C 1.28125 -0.253906 1.351562 -0.265625 1.394531 -0.292969 C 1.4375 -0.316406 1.484375 -0.378906 1.539062 -0.472656 L 1.582031 -0.453125 L 1.398438 0 L 0.0976562 0 Z "/>
</g>
<g id="glyph-0-3">
<path d="M 0.972656 -1.902344 L 0.171875 -0.769531 L 0.972656 -0.769531 Z M 1.078125 -2.234375 L 1.234375 -2.234375 L 1.234375 -0.769531 L 1.574219 -0.769531 L 1.574219 -0.554688 L 1.234375 -0.554688 L 1.234375 0 L 0.976562 0 L 0.976562 -0.554688 L 0.0390625 -0.554688 L 0.0390625 -0.769531 Z "/>
</g>
<g id="glyph-0-4">
<path d="M 0.289062 -2.253906 C 0.339844 -2.253906 0.371094 -2.238281 0.386719 -2.210938 C 0.402344 -2.183594 0.410156 -2.144531 0.410156 -2.097656 C 0.410156 -2.089844 0.410156 -2.082031 0.410156 -2.074219 C 0.410156 -2.066406 0.40625 -2.046875 0.402344 -2.007812 L 0.324219 -1.292969 L 0.265625 -1.292969 L 0.179688 -1.953125 C 0.175781 -1.980469 0.175781 -2.007812 0.171875 -2.035156 C 0.167969 -2.0625 0.167969 -2.085938 0.167969 -2.113281 C 0.167969 -2.148438 0.175781 -2.179688 0.191406 -2.207031 C 0.203125 -2.238281 0.238281 -2.253906 0.289062 -2.253906 Z "/>
</g>
</g>
</defs>
<g fill="rgb(73.333333%, 73.333333%, 73.333333%)" fill-opacity="1">
<use xlink:href="#glyph-0-0" x="30" y="22.5"/>
<use xlink:href="#glyph-0-1" x="32" y="22.5"/>
<use xlink:href="#glyph-0-2" x="34" y="22.5"/>
<use xlink:href="#glyph-0-3" x="36" y="22.5"/>
<use xlink:href="#glyph-0-4" x="38" y="22.5"/>
</g>
</svg>
