<?xml version="1.0" encoding="UTF-8"?>
<svg xmlns="http://www.w3.org/2000/svg" xmlns:xlink="http://www.w3.org/1999/xlink" width="1280" height="720" viewBox="0 0 1280 720">
<defs>
<g>
<g id="glyph-0-0">
<path d="M 1.128906 -2 L 1.128906 -1.84375 L 0.6875 -1.84375 L 0.683594 -0.59375 C 0.683594 -0.484375 0.691406 -0.402344 0.710938 -0.34375 C 0.746094 -0.246094 0.816406 -0.195312 0.914062 -0.195312 C 0.96875 -0.195312 1.011719 -0.207031 1.050781 -0.230469 C 1.089844 -0.257812 1.132812 -0.296875 1.183594 -0.347656 L 1.238281 -0.300781 L 1.191406 -0.238281 C 1.117188 -0.136719 1.035156 -0.0625 0.953125 -0.0234375 C 0.867188 0.0195312 0.789062 0.0429688 0.710938 0.0429688 C 0.539062 0.0429688 0.421875 -0.0351562 0.363281 -0.1875 C 0.328125 -0.269531 0.3125 -0.382812 0.3125 -0.53125 L 0.3125 -1.84375 L 0.0742188 -1.84375 C 0.0664062 -1.847656 0.0625 -1.851562 0.0585938 -1.859375 C 0.0546875 -1.863281 0.0546875 -1.867188 0.0546875 -1.875 C 0.0546875 -1.890625 0.0585938 -1.902344 0.0625 -1.910156 C 0.0703125 -1.917969 0.0898438 -1.933594 0.125 -1.964844 C 0.226562 -2.046875 0.296875 -2.113281 0.339844 -2.164062 C 0.386719 -2.214844 0.488281 -2.351562 0.652344 -2.570312 C 0.671875 -2.570312 0.683594 -2.570312 0.6875 -2.566406 C 0.691406 -2.5625 0.691406 -2.554688 0.691406 -2.535156 L 0.691406 -2 Z "/>
</g>
<g id="glyph-0-1">
<rect x="0" y="0" width="0" height="0" mask="url(#mask-0)"/>
</g>
<g id="glyph-0-2">
<path d="M 2.375 -0.828125 L 2.375 -0.523438 L 0.132812 -0.523438 L 0.132812 -0.828125 Z M 2.375 -1.722656 L 2.375 -1.417969 L 0.132812 -1.417969 L 0.132812 -1.722656 Z "/>
</g>
<g id="glyph-0-3">
<path d="M 1.0625 -0.0820312 C 1.277344 -0.0820312 1.421875 -0.195312 1.5 -0.429688 C 1.582031 -0.664062 1.621094 -1 1.621094 -1.441406 C 1.621094 -1.792969 1.597656 -2.074219 1.550781 -2.28125 C 1.460938 -2.671875 1.292969 -2.867188 1.046875 -2.867188 C 0.800781 -2.867188 0.632812 -2.667969 0.539062 -2.265625 C 0.492188 -2.050781 0.46875 -1.769531 0.46875 -1.417969 C 0.46875 -1.089844 0.492188 -0.828125 0.542969 -0.632812 C 0.636719 -0.265625 0.808594 -0.0820312 1.0625 -0.0820312 Z M 1.058594 -2.984375 C 1.390625 -2.984375 1.648438 -2.8125 1.832031 -2.464844 C 1.976562 -2.179688 2.050781 -1.855469 2.050781 -1.492188 C 2.050781 -1.203125 2.007812 -0.933594 1.917969 -0.675781 C 1.746094 -0.199219 1.453125 0.0429688 1.039062 0.0429688 C 0.753906 0.0429688 0.519531 -0.0898438 0.335938 -0.347656 C 0.136719 -0.625 0.0390625 -1 0.0390625 -1.472656 C 0.0390625 -1.847656 0.105469 -2.167969 0.238281 -2.4375 C 0.414062 -2.804688 0.6875 -2.984375 1.058594 -2.984375 Z "/>
</g>
</g>
<image id="source-89" x="0" y="0" width="0" height="0"/>
<mask id="mask-0">
<use xlink:href="#source-89"/>
</mask>
</defs>
<g fill="rgb(100%, 85.098039%, 23.921569%)" fill-opacity="1">
<use xlink:href="#glyph-0-0" x="30" y="23.333008"/>
<use xlink:href="#glyph-0-1" x="31" y="23.333008"/>
<use xlink:href="#glyph-0-2" x="32" y="23.333008"/>
<use xlink:href="#glyph-0-1" x="35" y="23.333008"/>
<use xlink:href="#glyph-0-3" x="36" y="23.333008"/>
</g>
</svg>
