<?xml version="1.0" encoding="UTF-8"?>
<svg xmlns="http://www.w3.org/2000/svg" xmlns:xlink="http://www.w3.org/1999/xlink" width="1280" height="720" viewBox="0 0 1280 720">
<defs>
<g>
<g id="glyph-0-0">
<path d="M 0.0585938 -2.023438 L 1.785156 -2.023438 L 1.800781 -1.503906 L 1.730469 -1.503906 C 1.695312 -1.667969 1.648438 -1.773438 1.59375 -1.820312 C 1.539062 -1.871094 1.421875 -1.894531 1.246094 -1.894531 L 1.074219 -1.894531 L 1.074219 -0.332031 C 1.074219 -0.214844 1.09375 -0.140625 1.128906 -0.109375 C 1.167969 -0.0820312 1.246094 -0.0625 1.371094 -0.0546875 L 1.371094 0 L 0.480469 0 L 0.480469 -0.0546875 C 0.609375 -0.0664062 0.691406 -0.0859375 0.722656 -0.121094 C 0.753906 -0.152344 0.769531 -0.234375 0.769531 -0.367188 L 0.769531 -1.894531 L 0.601562 -1.894531 C 0.429688 -1.894531 0.316406 -1.871094 0.253906 -1.820312 C 0.191406 -1.773438 0.148438 -1.667969 0.117188 -1.503906 L 0.0429688 -1.503906 Z "/>
</g>
<g id="glyph-0-1">
<path d="M 0.0351562 -0.0546875 C 0.148438 -0.0664062 0.21875 -0.0859375 0.253906 -0.117188 C 0.285156 -0.144531 0.304688 -0.214844 0.304688 -0.332031 L 0.304688 -1.691406 C 0.304688 -1.800781 0.285156 -1.871094 0.253906 -1.902344 C 0.222656 -1.9375 0.148438 -1.957031 0.0351562 -1.964844 L 0.0351562 -2.023438 L 0.898438 -2.023438 L 0.898438 -1.964844 C 0.785156 -1.957031 0.710938 -1.941406 0.671875 -1.910156 C 0.632812 -1.878906 0.613281 -1.8125 0.613281 -1.710938 L 0.613281 -0.242188 C 0.613281 -0.210938 0.621094 -0.183594 0.632812 -0.164062 C 0.644531 -0.144531 0.667969 -0.132812 0.707031 -0.125 C 0.730469 -0.125 0.753906 -0.121094 0.78125 -0.121094 C 0.804688 -0.121094 0.851562 -0.121094 0.921875 -0.121094 C 1.195312 -0.121094 1.378906 -0.140625 1.472656 -0.1875 C 1.566406 -0.230469 1.660156 -0.34375 1.75 -0.53125 L 1.828125 -0.53125 L 1.679688 0 L 0.0351562 0 Z "/>
</g>
<g id="glyph-0-2">
<path d="M 0.195312 -0.613281 C 0.25 -0.476562 0.308594 -0.367188 0.378906 -0.285156 C 0.5 -0.144531 0.652344 -0.0742188 0.832031 -0.0742188 C 0.929688 -0.0742188 1.011719 -0.105469 1.082031 -0.164062 C 1.15625 -0.226562 1.191406 -0.3125 1.191406 -0.421875 C 1.191406 -0.523438 1.15625 -0.609375 1.082031 -0.683594 C 1.035156 -0.730469 0.9375 -0.800781 0.789062 -0.894531 L 0.527344 -1.054688 C 0.449219 -1.105469 0.386719 -1.15625 0.339844 -1.207031 C 0.253906 -1.304688 0.207031 -1.410156 0.207031 -1.527344 C 0.207031 -1.679688 0.261719 -1.808594 0.363281 -1.910156 C 0.464844 -2.011719 0.601562 -2.066406 0.769531 -2.066406 C 0.839844 -2.066406 0.921875 -2.046875 1.019531 -2.011719 C 1.117188 -1.980469 1.175781 -1.960938 1.1875 -1.960938 C 1.226562 -1.960938 1.253906 -1.972656 1.265625 -1.988281 C 1.28125 -2.007812 1.292969 -2.03125 1.300781 -2.066406 L 1.363281 -2.066406 L 1.429688 -1.414062 L 1.359375 -1.414062 C 1.308594 -1.609375 1.226562 -1.746094 1.117188 -1.824219 C 1.007812 -1.902344 0.898438 -1.941406 0.792969 -1.941406 C 0.707031 -1.941406 0.636719 -1.917969 0.574219 -1.867188 C 0.511719 -1.816406 0.480469 -1.75 0.480469 -1.664062 C 0.480469 -1.585938 0.503906 -1.515625 0.550781 -1.460938 C 0.597656 -1.402344 0.675781 -1.34375 0.773438 -1.28125 L 1.042969 -1.117188 C 1.210938 -1.015625 1.328125 -0.917969 1.398438 -0.832031 C 1.464844 -0.746094 1.5 -0.640625 1.5 -0.523438 C 1.5 -0.363281 1.4375 -0.226562 1.316406 -0.121094 C 1.195312 -0.0117188 1.042969 0.0390625 0.855469 0.0390625 C 0.761719 0.0390625 0.660156 0.0234375 0.558594 -0.0117188 C 0.457031 -0.046875 0.398438 -0.0664062 0.382812 -0.0664062 C 0.347656 -0.0664062 0.320312 -0.0546875 0.308594 -0.0351562 C 0.296875 -0.0117188 0.289062 0.0117188 0.285156 0.0351562 L 0.21875 0.0351562 L 0.125 -0.613281 Z "/>
</g>
<g id="glyph-0-3">
<rect x="0" y="0" width="0" height="0" mask="url(#mask-0)"/>
</g>
<g id="glyph-0-4">
<path d="M 0.0507812 -0.0546875 C 0.167969 -0.0664062 0.242188 -0.0898438 0.273438 -0.121094 C 0.304688 -0.152344 0.316406 -0.234375 0.316406 -0.367188 L 0.316406 -1.691406 C 0.316406 -1.800781 0.300781 -1.871094 0.269531 -1.902344 C 0.234375 -1.9375 0.160156 -1.957031 0.0507812 -1.964844 L 0.0507812 -2.023438 L 0.898438 -2.023438 L 0.898438 -1.964844 C 0.785156 -1.957031 0.710938 -1.9375 0.679688 -1.902344 C 0.644531 -1.871094 0.628906 -1.800781 0.628906 -1.691406 L 0.628906 -1.09375 L 1.554688 -1.09375 L 1.554688 -1.691406 C 1.554688 -1.800781 1.539062 -1.871094 1.503906 -1.902344 C 1.472656 -1.9375 1.398438 -1.957031 1.285156 -1.964844 L 1.285156 -2.023438 L 2.136719 -2.023438 L 2.136719 -1.964844 C 2.023438 -1.957031 1.949219 -1.9375 1.917969 -1.902344 C 1.882812 -1.871094 1.867188 -1.800781 1.867188 -1.691406 L 1.867188 -0.332031 C 1.867188 -0.21875 1.882812 -0.148438 1.917969 -0.117188 C 1.949219 -0.0859375 2.023438 -0.0664062 2.136719 -0.0546875 L 2.136719 0 L 1.285156 0 L 1.285156 -0.0546875 C 1.40625 -0.0664062 1.480469 -0.0898438 1.511719 -0.121094 C 1.539062 -0.152344 1.554688 -0.234375 1.554688 -0.367188 L 1.554688 -0.960938 L 0.628906 -0.960938 L 0.628906 -0.332031 C 0.628906 -0.21875 0.644531 -0.148438 0.679688 -0.117188 C 0.714844 -0.0859375 0.785156 -0.0625 0.898438 -0.0546875 L 0.898438 0 L 0.0507812 0 Z "/>
</g>
<g id="glyph-0-5">
<path d="M 0.875 -0.828125 C 0.761719 -0.789062 0.667969 -0.746094 0.59375 -0.703125 C 0.449219 -0.613281 0.378906 -0.511719 0.378906 -0.398438 C 0.378906 -0.308594 0.40625 -0.242188 0.46875 -0.199219 C 0.507812 -0.171875 0.550781 -0.15625 0.597656 -0.15625 C 0.664062 -0.15625 0.726562 -0.175781 0.785156 -0.214844 C 0.84375 -0.25 0.875 -0.296875 0.875 -0.355469 Z M 0.113281 -0.296875 C 0.113281 -0.441406 0.183594 -0.5625 0.328125 -0.65625 C 0.417969 -0.71875 0.601562 -0.796875 0.875 -0.902344 L 0.875 -1.027344 C 0.875 -1.128906 0.867188 -1.199219 0.847656 -1.238281 C 0.8125 -1.304688 0.742188 -1.339844 0.636719 -1.339844 C 0.585938 -1.339844 0.535156 -1.328125 0.492188 -1.300781 C 0.445312 -1.273438 0.421875 -1.238281 0.421875 -1.191406 C 0.421875 -1.179688 0.425781 -1.160156 0.429688 -1.128906 C 0.433594 -1.101562 0.4375 -1.082031 0.4375 -1.074219 C 0.4375 -1.019531 0.417969 -0.980469 0.382812 -0.960938 C 0.363281 -0.945312 0.335938 -0.941406 0.308594 -0.941406 C 0.261719 -0.941406 0.226562 -0.953125 0.203125 -0.984375 C 0.179688 -1.011719 0.167969 -1.046875 0.167969 -1.082031 C 0.167969 -1.152344 0.210938 -1.222656 0.296875 -1.300781 C 0.382812 -1.375 0.511719 -1.414062 0.675781 -1.414062 C 0.867188 -1.414062 1 -1.351562 1.066406 -1.226562 C 1.105469 -1.15625 1.125 -1.058594 1.125 -0.925781 L 1.125 -0.328125 C 1.125 -0.269531 1.128906 -0.230469 1.136719 -0.207031 C 1.148438 -0.167969 1.175781 -0.152344 1.214844 -0.152344 C 1.238281 -0.152344 1.257812 -0.152344 1.273438 -0.160156 C 1.289062 -0.167969 1.3125 -0.183594 1.351562 -0.210938 L 1.351562 -0.132812 C 1.320312 -0.09375 1.285156 -0.0625 1.246094 -0.0390625 C 1.191406 0 1.136719 0.0195312 1.078125 0.0195312 C 1.011719 0.0195312 0.960938 -0.00390625 0.929688 -0.046875 C 0.898438 -0.0898438 0.882812 -0.144531 0.878906 -0.203125 C 0.804688 -0.136719 0.738281 -0.0898438 0.6875 -0.0585938 C 0.597656 -0.00390625 0.511719 0.0234375 0.429688 0.0234375 C 0.34375 0.0234375 0.269531 -0.0078125 0.207031 -0.0664062 C 0.144531 -0.128906 0.113281 -0.203125 0.113281 -0.296875 Z "/>
</g>
<g id="glyph-0-6">
<path d="M 0.0546875 -0.0429688 C 0.125 -0.0507812 0.175781 -0.0703125 0.203125 -0.09375 C 0.230469 -0.121094 0.246094 -0.179688 0.246094 -0.273438 L 0.246094 -1.027344 C 0.246094 -1.089844 0.238281 -1.136719 0.226562 -1.164062 C 0.207031 -1.199219 0.171875 -1.21875 0.113281 -1.21875 C 0.101562 -1.21875 0.09375 -1.21875 0.0859375 -1.21875 C 0.0742188 -1.21875 0.0625 -1.214844 0.0507812 -1.214844 L 0.0507812 -1.265625 C 0.0898438 -1.277344 0.1875 -1.308594 0.339844 -1.359375 L 0.480469 -1.402344 C 0.488281 -1.402344 0.488281 -1.402344 0.492188 -1.398438 C 0.492188 -1.390625 0.492188 -1.382812 0.492188 -1.375 L 0.492188 -1.15625 C 0.585938 -1.242188 0.65625 -1.300781 0.707031 -1.332031 C 0.785156 -1.382812 0.867188 -1.40625 0.949219 -1.40625 C 1.019531 -1.40625 1.078125 -1.386719 1.136719 -1.347656 C 1.242188 -1.273438 1.296875 -1.136719 1.296875 -0.941406 L 1.296875 -0.246094 C 1.296875 -0.175781 1.3125 -0.121094 1.339844 -0.0898438 C 1.367188 -0.0585938 1.417969 -0.0429688 1.484375 -0.0429688 L 1.484375 0 L 0.847656 0 L 0.847656 -0.0429688 C 0.921875 -0.0507812 0.972656 -0.0703125 1 -0.101562 C 1.027344 -0.132812 1.042969 -0.199219 1.042969 -0.300781 L 1.042969 -0.9375 C 1.042969 -1.023438 1.027344 -1.09375 0.996094 -1.148438 C 0.964844 -1.207031 0.90625 -1.234375 0.820312 -1.234375 C 0.761719 -1.234375 0.699219 -1.214844 0.640625 -1.175781 C 0.605469 -1.152344 0.5625 -1.113281 0.507812 -1.0625 L 0.507812 -0.226562 C 0.507812 -0.152344 0.523438 -0.105469 0.554688 -0.0820312 C 0.585938 -0.0585938 0.636719 -0.0429688 0.707031 -0.0429688 L 0.707031 0 L 0.0546875 0 Z "/>
</g>
<g id="glyph-0-7">
<path d="M 0.722656 -1.410156 C 0.796875 -1.410156 0.863281 -1.394531 0.921875 -1.363281 C 0.960938 -1.339844 1 -1.3125 1.039062 -1.277344 L 1.039062 -1.75 C 1.039062 -1.8125 1.03125 -1.851562 1.019531 -1.875 C 1.003906 -1.898438 0.972656 -1.910156 0.921875 -1.910156 C 0.910156 -1.910156 0.898438 -1.910156 0.890625 -1.910156 C 0.882812 -1.90625 0.863281 -1.90625 0.832031 -1.902344 L 0.832031 -1.953125 L 0.953125 -1.984375 C 1 -1.996094 1.042969 -2.007812 1.085938 -2.019531 C 1.132812 -2.03125 1.171875 -2.046875 1.207031 -2.058594 C 1.222656 -2.0625 1.246094 -2.070312 1.285156 -2.085938 L 1.292969 -2.082031 L 1.289062 -1.925781 C 1.289062 -1.871094 1.289062 -1.8125 1.289062 -1.75 C 1.285156 -1.691406 1.285156 -1.632812 1.285156 -1.574219 L 1.28125 -0.355469 C 1.28125 -0.289062 1.292969 -0.242188 1.308594 -0.21875 C 1.324219 -0.191406 1.363281 -0.179688 1.433594 -0.179688 C 1.445312 -0.179688 1.457031 -0.179688 1.464844 -0.179688 C 1.476562 -0.179688 1.488281 -0.179688 1.5 -0.183594 L 1.5 -0.132812 C 1.492188 -0.132812 1.421875 -0.109375 1.28125 -0.0585938 L 1.050781 0.0273438 L 1.039062 0.015625 L 1.039062 -0.167969 C 0.984375 -0.109375 0.933594 -0.0664062 0.894531 -0.0390625 C 0.820312 0.0078125 0.738281 0.0273438 0.640625 0.0273438 C 0.472656 0.0273438 0.335938 -0.0351562 0.230469 -0.167969 C 0.125 -0.296875 0.0742188 -0.449219 0.0742188 -0.621094 C 0.0742188 -0.835938 0.136719 -1.023438 0.261719 -1.179688 C 0.386719 -1.332031 0.542969 -1.410156 0.722656 -1.410156 Z M 0.777344 -0.132812 C 0.855469 -0.132812 0.917969 -0.15625 0.96875 -0.203125 C 1.015625 -0.246094 1.039062 -0.289062 1.039062 -0.332031 L 1.039062 -0.972656 C 1.039062 -1.101562 1.003906 -1.191406 0.933594 -1.246094 C 0.867188 -1.296875 0.796875 -1.324219 0.734375 -1.324219 C 0.609375 -1.324219 0.511719 -1.269531 0.441406 -1.160156 C 0.371094 -1.046875 0.335938 -0.910156 0.335938 -0.75 C 0.335938 -0.589844 0.371094 -0.445312 0.445312 -0.320312 C 0.519531 -0.195312 0.632812 -0.132812 0.777344 -0.132812 Z "/>
</g>
<g id="glyph-0-8">
<path d="M 0.15625 -0.46875 L 0.207031 -0.46875 C 0.230469 -0.355469 0.261719 -0.269531 0.300781 -0.207031 C 0.371094 -0.0976562 0.472656 -0.0429688 0.605469 -0.0429688 C 0.679688 -0.0429688 0.738281 -0.0625 0.78125 -0.105469 C 0.824219 -0.144531 0.847656 -0.199219 0.847656 -0.265625 C 0.847656 -0.304688 0.835938 -0.347656 0.808594 -0.386719 C 0.785156 -0.425781 0.742188 -0.460938 0.679688 -0.5 L 0.511719 -0.59375 C 0.390625 -0.660156 0.300781 -0.726562 0.242188 -0.792969 C 0.183594 -0.859375 0.15625 -0.9375 0.15625 -1.027344 C 0.15625 -1.140625 0.195312 -1.230469 0.273438 -1.300781 C 0.355469 -1.375 0.453125 -1.410156 0.574219 -1.410156 C 0.628906 -1.410156 0.683594 -1.398438 0.75 -1.378906 C 0.8125 -1.359375 0.847656 -1.351562 0.855469 -1.351562 C 0.871094 -1.351562 0.886719 -1.351562 0.894531 -1.359375 C 0.902344 -1.363281 0.910156 -1.371094 0.914062 -1.382812 L 0.949219 -1.382812 L 0.960938 -0.964844 L 0.914062 -0.964844 C 0.894531 -1.0625 0.867188 -1.136719 0.835938 -1.191406 C 0.773438 -1.289062 0.683594 -1.339844 0.566406 -1.339844 C 0.496094 -1.339844 0.441406 -1.320312 0.402344 -1.277344 C 0.363281 -1.234375 0.34375 -1.183594 0.34375 -1.125 C 0.34375 -1.035156 0.410156 -0.953125 0.550781 -0.878906 L 0.746094 -0.773438 C 0.957031 -0.660156 1.0625 -0.523438 1.0625 -0.371094 C 1.0625 -0.253906 1.019531 -0.15625 0.933594 -0.0820312 C 0.84375 -0.0078125 0.730469 0.0273438 0.585938 0.0273438 C 0.527344 0.0273438 0.460938 0.0195312 0.382812 0 C 0.308594 -0.0195312 0.261719 -0.03125 0.25 -0.03125 C 0.238281 -0.03125 0.226562 -0.0273438 0.21875 -0.0195312 C 0.210938 -0.0117188 0.203125 0 0.195312 0.0117188 L 0.15625 0.0117188 Z "/>
</g>
<g id="glyph-0-9">
<path d="M 0.0273438 -0.0429688 C 0.109375 -0.0546875 0.160156 -0.0742188 0.1875 -0.101562 C 0.210938 -0.132812 0.226562 -0.199219 0.226562 -0.308594 L 0.226562 -1.742188 C 0.226562 -1.796875 0.21875 -1.839844 0.203125 -1.867188 C 0.1875 -1.894531 0.152344 -1.90625 0.0976562 -1.90625 C 0.0859375 -1.90625 0.078125 -1.90625 0.0664062 -1.902344 C 0.0546875 -1.902344 0.0429688 -1.898438 0.03125 -1.898438 L 0.03125 -1.953125 C 0.0742188 -1.964844 0.128906 -1.980469 0.191406 -2 C 0.257812 -2.015625 0.300781 -2.03125 0.328125 -2.039062 L 0.46875 -2.082031 L 0.472656 -2.074219 L 0.472656 -1.15625 C 0.535156 -1.226562 0.589844 -1.28125 0.640625 -1.316406 C 0.726562 -1.375 0.820312 -1.402344 0.921875 -1.402344 C 1.085938 -1.402344 1.195312 -1.335938 1.253906 -1.199219 C 1.285156 -1.128906 1.300781 -1.035156 1.300781 -0.917969 L 1.300781 -0.308594 C 1.300781 -0.203125 1.3125 -0.136719 1.335938 -0.105469 C 1.363281 -0.0742188 1.410156 -0.0507812 1.488281 -0.0429688 L 1.488281 0 L 0.839844 0 L 0.839844 -0.0429688 C 0.925781 -0.0546875 0.984375 -0.0742188 1.007812 -0.101562 C 1.035156 -0.132812 1.046875 -0.199219 1.046875 -0.308594 L 1.046875 -0.914062 C 1.046875 -1.011719 1.03125 -1.089844 0.996094 -1.148438 C 0.964844 -1.207031 0.902344 -1.238281 0.816406 -1.238281 C 0.738281 -1.238281 0.660156 -1.210938 0.589844 -1.15625 C 0.515625 -1.097656 0.480469 -1.0625 0.480469 -1.046875 L 0.480469 -0.308594 C 0.480469 -0.199219 0.492188 -0.128906 0.519531 -0.101562 C 0.546875 -0.0742188 0.601562 -0.0546875 0.683594 -0.0429688 L 0.683594 0 L 0.0273438 0 Z "/>
</g>
<g id="glyph-0-10">
<path d="M 0.0078125 -0.0429688 C 0.101562 -0.0507812 0.164062 -0.0664062 0.195312 -0.0898438 C 0.226562 -0.113281 0.238281 -0.167969 0.238281 -0.25 L 0.238281 -1.746094 C 0.238281 -1.816406 0.226562 -1.859375 0.203125 -1.878906 C 0.179688 -1.898438 0.144531 -1.910156 0.101562 -1.910156 C 0.0820312 -1.910156 0.0664062 -1.90625 0.0507812 -1.90625 C 0.0390625 -1.90625 0.0234375 -1.90625 0.0078125 -1.902344 L 0.0078125 -1.945312 L 0.140625 -1.980469 C 0.242188 -2.007812 0.328125 -2.03125 0.402344 -2.054688 C 0.445312 -2.070312 0.46875 -2.078125 0.476562 -2.078125 C 0.484375 -2.078125 0.488281 -2.078125 0.488281 -2.074219 C 0.488281 -2.070312 0.492188 -2.066406 0.492188 -2.058594 L 0.492188 -0.800781 L 0.902344 -1.167969 C 0.933594 -1.195312 0.953125 -1.214844 0.964844 -1.230469 C 0.976562 -1.246094 0.980469 -1.261719 0.980469 -1.273438 C 0.980469 -1.296875 0.96875 -1.308594 0.945312 -1.316406 C 0.925781 -1.320312 0.882812 -1.328125 0.828125 -1.328125 L 0.828125 -1.371094 L 1.449219 -1.371094 L 1.449219 -1.328125 C 1.335938 -1.320312 1.246094 -1.300781 1.179688 -1.261719 C 1.113281 -1.226562 0.984375 -1.117188 0.789062 -0.941406 L 0.703125 -0.863281 L 0.980469 -0.503906 C 1.121094 -0.320312 1.226562 -0.199219 1.296875 -0.140625 C 1.371094 -0.078125 1.445312 -0.046875 1.527344 -0.0390625 L 1.527344 0 L 0.863281 0 L 0.863281 -0.0429688 L 0.914062 -0.0429688 C 0.929688 -0.046875 0.945312 -0.0507812 0.960938 -0.0546875 C 0.976562 -0.0625 0.980469 -0.0703125 0.980469 -0.0859375 C 0.980469 -0.0976562 0.980469 -0.105469 0.972656 -0.117188 C 0.96875 -0.125 0.960938 -0.136719 0.953125 -0.148438 L 0.492188 -0.757812 L 0.492188 -0.203125 C 0.492188 -0.136719 0.515625 -0.0898438 0.566406 -0.0664062 C 0.597656 -0.0546875 0.648438 -0.046875 0.71875 -0.0429688 L 0.71875 0 L 0.0078125 0 Z "/>
</g>
<g id="glyph-0-11">
<path d="M 0.699219 -1.398438 C 0.839844 -1.398438 0.960938 -1.351562 1.066406 -1.253906 C 1.171875 -1.15625 1.226562 -1.019531 1.226562 -0.839844 L 0.277344 -0.839844 C 0.289062 -0.609375 0.339844 -0.441406 0.4375 -0.335938 C 0.53125 -0.230469 0.640625 -0.179688 0.769531 -0.179688 C 0.875 -0.179688 0.964844 -0.207031 1.035156 -0.261719 C 1.105469 -0.316406 1.171875 -0.394531 1.234375 -0.492188 L 1.285156 -0.476562 C 1.246094 -0.351562 1.167969 -0.234375 1.058594 -0.125 C 0.945312 -0.0195312 0.808594 0.0351562 0.644531 0.0351562 C 0.457031 0.0351562 0.316406 -0.0351562 0.210938 -0.175781 C 0.109375 -0.316406 0.0585938 -0.480469 0.0585938 -0.664062 C 0.0585938 -0.863281 0.117188 -1.035156 0.238281 -1.183594 C 0.355469 -1.328125 0.511719 -1.398438 0.699219 -1.398438 Z M 0.613281 -1.289062 C 0.5 -1.289062 0.414062 -1.242188 0.355469 -1.140625 C 0.324219 -1.085938 0.300781 -1.019531 0.285156 -0.9375 L 0.914062 -0.9375 C 0.902344 -1.035156 0.886719 -1.109375 0.859375 -1.160156 C 0.808594 -1.246094 0.726562 -1.289062 0.613281 -1.289062 Z "/>
</g>
</g>
<image id="source-55" x="0" y="0" width="0" height="0"/>
<mask id="mask-0">
<use xlink:href="#source-55"/>
</mask>
</defs>
<g fill="rgb(65.882353%, 90.196078%, 81.176471%)" fill-opacity="1">
<use xlink:href="#glyph-0-0" x="30" y="22.291992"/>
<use xlink:href="#glyph-0-1" x="32" y="22.291992"/>
<use xlink:href="#glyph-0-2" x="34" y="22.291992"/>
<use xlink:href="#glyph-0-3" x="36" y="22.291992"/>
<use xlink:href="#glyph-0-4" x="37" y="22.291992"/>
<use xlink:href="#glyph-0-5" x="39" y="22.291992"/>
<use xlink:href="#glyph-0-6" x="40" y="22.291992"/>
<use xlink:href="#glyph-0-7" x="42" y="22.291992"/>
<use xlink:href="#glyph-0-8" x="44" y="22.291992"/>
<use xlink:href="#glyph-0-9" x="45" y="22.291992"/>
<use xlink:href="#glyph-0-5" x="47" y="22.291992"/>
<use xlink:href="#glyph-0-10" x="48" y="22.291992"/>
<use xlink:href="#glyph-0-11" x="50" y="22.291992"/>
</g>
</svg>
