<?xml version="1.0" encoding="UTF-8"?>
<svg xmlns="http://www.w3.org/2000/svg" xmlns:xlink="http://www.w3.org/1999/xlink" width="1280" height="720" viewBox="0 0 1280 720">
<defs>
<g>
<g id="glyph-0-0">
<path d="M 0.101562 -0.140625 C 0.253906 -0.144531 0.359375 -0.167969 0.425781 -0.199219 C 0.535156 -0.257812 0.589844 -0.367188 0.589844 -0.53125 L 0.589844 -3.21875 C 0.589844 -3.382812 0.539062 -3.492188 0.433594 -3.546875 C 0.371094 -3.582031 0.261719 -3.605469 0.101562 -3.613281 L 0.101562 -3.753906 L 2.042969 -3.753906 L 2.042969 -3.613281 C 1.816406 -3.605469 1.667969 -3.574219 1.589844 -3.519531 C 1.515625 -3.460938 1.476562 -3.324219 1.476562 -3.101562 L 1.476562 -0.480469 C 1.476562 -0.355469 1.511719 -0.277344 1.574219 -0.234375 C 1.640625 -0.195312 1.765625 -0.175781 1.949219 -0.175781 C 2.285156 -0.175781 2.566406 -0.25 2.792969 -0.398438 C 3.019531 -0.546875 3.214844 -0.832031 3.378906 -1.257812 L 3.542969 -1.257812 L 3.316406 0 L 0.101562 0 Z "/>
</g>
<g id="glyph-0-1">
<path d="M 0.0742188 -0.140625 C 0.285156 -0.144531 0.425781 -0.179688 0.488281 -0.253906 C 0.550781 -0.328125 0.582031 -0.4375 0.582031 -0.582031 L 0.582031 -3.21875 C 0.582031 -3.371094 0.546875 -3.472656 0.476562 -3.519531 C 0.402344 -3.566406 0.273438 -3.597656 0.0898438 -3.613281 L 0.0898438 -3.753906 L 1.488281 -3.753906 L 2.582031 -1.183594 L 2.628906 -1.183594 L 3.714844 -3.753906 L 5.117188 -3.753906 L 5.117188 -3.613281 C 4.929688 -3.597656 4.800781 -3.5625 4.730469 -3.507812 C 4.660156 -3.453125 4.628906 -3.320312 4.628906 -3.101562 L 4.628906 -0.648438 C 4.628906 -0.445312 4.664062 -0.308594 4.730469 -0.246094 C 4.800781 -0.183594 4.929688 -0.148438 5.117188 -0.140625 L 5.117188 0 L 3.273438 0 L 3.273438 -0.140625 C 3.4375 -0.144531 3.558594 -0.175781 3.644531 -0.222656 C 3.726562 -0.273438 3.769531 -0.382812 3.769531 -0.550781 L 3.769531 -3.265625 L 3.726562 -3.265625 L 2.367188 0 L 2.214844 0 L 0.839844 -3.199219 L 0.816406 -3.199219 L 0.816406 -0.6875 C 0.816406 -0.503906 0.851562 -0.367188 0.917969 -0.28125 C 0.988281 -0.195312 1.140625 -0.148438 1.375 -0.140625 L 1.375 0 L 0.0742188 0 Z "/>
</g>
</g>
</defs>
<g fill="rgb(18.039216%, 80%, 44.313725%)" fill-opacity="1">
<use xlink:href="#glyph-0-0" x="30" y="24.166992"/>
<use xlink:href="#glyph-0-0" x="34" y="24.166992"/>
<use xlink:href="#glyph-0-1" x="38" y="24.166992"/>
</g>
</svg>
