<?xml version="1.0" encoding="UTF-8"?>
<svg xmlns="http://www.w3.org/2000/svg" xmlns:xlink="http://www.w3.org/1999/xlink" width="1280" height="720" viewBox="0 0 1280 720">
<defs>
<g>
<g id="glyph-0-0">
<path d="M 1.488281 -0.855469 L 1.101562 -1.773438 L 0.722656 -0.855469 Z M 0.046875 0 L 0.046875 -0.0585938 C 0.132812 -0.0703125 0.199219 -0.101562 0.242188 -0.15625 C 0.285156 -0.210938 0.359375 -0.363281 0.460938 -0.609375 L 1.15625 -2.246094 L 1.222656 -2.246094 L 2.050781 -0.355469 C 2.105469 -0.230469 2.152344 -0.152344 2.183594 -0.121094 C 2.21875 -0.0898438 2.273438 -0.0703125 2.351562 -0.0585938 L 2.351562 0 L 1.503906 0 L 1.503906 -0.0585938 C 1.601562 -0.0664062 1.664062 -0.078125 1.691406 -0.09375 C 1.71875 -0.105469 1.734375 -0.136719 1.734375 -0.183594 C 1.734375 -0.199219 1.730469 -0.230469 1.71875 -0.269531 C 1.707031 -0.3125 1.691406 -0.355469 1.671875 -0.398438 L 1.535156 -0.722656 L 0.664062 -0.722656 C 0.574219 -0.503906 0.523438 -0.371094 0.507812 -0.320312 C 0.492188 -0.273438 0.480469 -0.234375 0.480469 -0.207031 C 0.480469 -0.148438 0.503906 -0.109375 0.550781 -0.0898438 C 0.578125 -0.078125 0.632812 -0.0664062 0.710938 -0.0585938 L 0.710938 0 Z "/>
</g>
<g id="glyph-0-1">
<path d="M 0.015625 -0.0546875 C 0.113281 -0.0625 0.179688 -0.078125 0.214844 -0.105469 C 0.246094 -0.132812 0.261719 -0.191406 0.261719 -0.277344 L 0.261719 -1.011719 C 0.261719 -1.117188 0.253906 -1.195312 0.230469 -1.242188 C 0.210938 -1.289062 0.175781 -1.308594 0.121094 -1.308594 C 0.109375 -1.308594 0.0976562 -1.308594 0.078125 -1.304688 C 0.0625 -1.304688 0.0429688 -1.300781 0.0234375 -1.296875 L 0.0234375 -1.347656 C 0.0859375 -1.371094 0.148438 -1.394531 0.214844 -1.414062 C 0.277344 -1.4375 0.324219 -1.453125 0.347656 -1.464844 C 0.402344 -1.484375 0.457031 -1.507812 0.515625 -1.535156 C 0.523438 -1.535156 0.527344 -1.53125 0.53125 -1.527344 C 0.53125 -1.519531 0.53125 -1.507812 0.53125 -1.492188 L 0.53125 -1.226562 C 0.601562 -1.324219 0.667969 -1.398438 0.734375 -1.453125 C 0.796875 -1.507812 0.863281 -1.53125 0.933594 -1.53125 C 0.988281 -1.53125 1.035156 -1.515625 1.070312 -1.484375 C 1.105469 -1.449219 1.121094 -1.410156 1.121094 -1.359375 C 1.121094 -1.316406 1.109375 -1.277344 1.082031 -1.246094 C 1.054688 -1.214844 1.023438 -1.199219 0.980469 -1.199219 C 0.941406 -1.199219 0.898438 -1.21875 0.855469 -1.257812 C 0.816406 -1.296875 0.78125 -1.316406 0.757812 -1.316406 C 0.71875 -1.316406 0.671875 -1.285156 0.617188 -1.222656 C 0.5625 -1.160156 0.535156 -1.097656 0.535156 -1.035156 L 0.535156 -0.300781 C 0.535156 -0.207031 0.558594 -0.140625 0.601562 -0.105469 C 0.644531 -0.0703125 0.714844 -0.0507812 0.816406 -0.0546875 L 0.816406 0 L 0.015625 0 Z "/>
</g>
<g id="glyph-0-2">
<path d="M 0.761719 -1.527344 C 0.914062 -1.527344 1.050781 -1.472656 1.164062 -1.367188 C 1.28125 -1.261719 1.335938 -1.113281 1.335938 -0.917969 L 0.304688 -0.917969 C 0.316406 -0.667969 0.371094 -0.484375 0.476562 -0.367188 C 0.578125 -0.253906 0.699219 -0.195312 0.839844 -0.195312 C 0.953125 -0.195312 1.050781 -0.226562 1.128906 -0.285156 C 1.207031 -0.34375 1.28125 -0.429688 1.347656 -0.539062 L 1.402344 -0.519531 C 1.359375 -0.382812 1.273438 -0.253906 1.152344 -0.136719 C 1.03125 -0.0195312 0.882812 0.0390625 0.703125 0.0390625 C 0.5 0.0390625 0.34375 -0.0390625 0.230469 -0.191406 C 0.121094 -0.347656 0.0664062 -0.523438 0.0664062 -0.722656 C 0.0664062 -0.941406 0.128906 -1.128906 0.257812 -1.289062 C 0.386719 -1.449219 0.554688 -1.527344 0.761719 -1.527344 Z M 0.667969 -1.40625 C 0.542969 -1.40625 0.449219 -1.351562 0.386719 -1.242188 C 0.351562 -1.183594 0.324219 -1.109375 0.3125 -1.023438 L 0.996094 -1.023438 C 0.984375 -1.132812 0.964844 -1.210938 0.9375 -1.265625 C 0.882812 -1.359375 0.792969 -1.40625 0.667969 -1.40625 Z "/>
</g>
<g id="glyph-0-3">
<path d="M 0.957031 -0.902344 C 0.832031 -0.859375 0.726562 -0.816406 0.644531 -0.765625 C 0.488281 -0.667969 0.410156 -0.558594 0.410156 -0.4375 C 0.410156 -0.335938 0.445312 -0.265625 0.507812 -0.21875 C 0.550781 -0.1875 0.597656 -0.171875 0.652344 -0.171875 C 0.722656 -0.171875 0.792969 -0.191406 0.855469 -0.234375 C 0.921875 -0.273438 0.957031 -0.324219 0.957031 -0.386719 Z M 0.121094 -0.324219 C 0.121094 -0.480469 0.199219 -0.613281 0.359375 -0.71875 C 0.457031 -0.78125 0.65625 -0.871094 0.957031 -0.984375 L 0.957031 -1.121094 C 0.957031 -1.230469 0.945312 -1.308594 0.921875 -1.351562 C 0.886719 -1.425781 0.808594 -1.460938 0.691406 -1.460938 C 0.636719 -1.460938 0.585938 -1.449219 0.535156 -1.417969 C 0.484375 -1.390625 0.460938 -1.351562 0.460938 -1.296875 C 0.460938 -1.285156 0.464844 -1.265625 0.46875 -1.234375 C 0.472656 -1.203125 0.476562 -1.183594 0.476562 -1.171875 C 0.476562 -1.113281 0.457031 -1.070312 0.417969 -1.046875 C 0.394531 -1.03125 0.367188 -1.023438 0.335938 -1.023438 C 0.285156 -1.023438 0.25 -1.042969 0.222656 -1.074219 C 0.195312 -1.105469 0.183594 -1.140625 0.183594 -1.179688 C 0.183594 -1.253906 0.230469 -1.335938 0.324219 -1.417969 C 0.417969 -1.5 0.554688 -1.542969 0.738281 -1.542969 C 0.949219 -1.542969 1.089844 -1.472656 1.164062 -1.335938 C 1.203125 -1.261719 1.226562 -1.152344 1.226562 -1.011719 L 1.226562 -0.359375 C 1.226562 -0.296875 1.230469 -0.25 1.238281 -0.226562 C 1.253906 -0.183594 1.28125 -0.164062 1.328125 -0.164062 C 1.351562 -0.164062 1.371094 -0.167969 1.386719 -0.175781 C 1.402344 -0.183594 1.433594 -0.203125 1.472656 -0.230469 L 1.472656 -0.144531 C 1.4375 -0.101562 1.402344 -0.0703125 1.359375 -0.0429688 C 1.300781 0 1.238281 0.0195312 1.175781 0.0195312 C 1.101562 0.0195312 1.046875 -0.00390625 1.015625 -0.0507812 C 0.980469 -0.0976562 0.964844 -0.15625 0.960938 -0.222656 C 0.878906 -0.152344 0.808594 -0.0976562 0.75 -0.0625 C 0.648438 -0.00390625 0.554688 0.0234375 0.46875 0.0234375 C 0.375 0.0234375 0.292969 -0.0078125 0.222656 -0.0742188 C 0.15625 -0.140625 0.121094 -0.222656 0.121094 -0.324219 Z "/>
</g>
<g id="glyph-0-4">
<rect x="0" y="0" width="0" height="0" mask="url(#mask-0)"/>
</g>
<g id="glyph-0-5">
<path d="M 0.0859375 -0.753906 C 0.0859375 -0.96875 0.152344 -1.152344 0.289062 -1.304688 C 0.425781 -1.453125 0.605469 -1.527344 0.820312 -1.527344 C 1.035156 -1.527344 1.214844 -1.457031 1.355469 -1.316406 C 1.496094 -1.175781 1.566406 -0.984375 1.566406 -0.75 C 1.566406 -0.535156 1.496094 -0.347656 1.359375 -0.1875 C 1.222656 -0.0273438 1.046875 0.0507812 0.828125 0.0507812 C 0.621094 0.0507812 0.445312 -0.0273438 0.300781 -0.179688 C 0.15625 -0.332031 0.0859375 -0.523438 0.0859375 -0.753906 Z M 0.773438 -1.429688 C 0.6875 -1.429688 0.613281 -1.402344 0.550781 -1.34375 C 0.441406 -1.246094 0.390625 -1.074219 0.390625 -0.832031 C 0.390625 -0.640625 0.433594 -0.460938 0.519531 -0.292969 C 0.605469 -0.125 0.730469 -0.0429688 0.882812 -0.0429688 C 1.003906 -0.0429688 1.097656 -0.0976562 1.164062 -0.210938 C 1.230469 -0.320312 1.261719 -0.46875 1.261719 -0.648438 C 1.261719 -0.835938 1.222656 -1.015625 1.136719 -1.179688 C 1.054688 -1.347656 0.933594 -1.429688 0.773438 -1.429688 Z "/>
</g>
<g id="glyph-0-6">
<path d="M 0.0664062 -0.046875 C 0.179688 -0.0507812 0.253906 -0.0742188 0.292969 -0.109375 C 0.328125 -0.148438 0.347656 -0.226562 0.347656 -0.347656 L 0.347656 -1.390625 L 0.0664062 -1.390625 L 0.0664062 -1.5 L 0.347656 -1.5 C 0.347656 -1.671875 0.371094 -1.816406 0.417969 -1.933594 C 0.507812 -2.160156 0.667969 -2.273438 0.90625 -2.273438 C 1 -2.273438 1.085938 -2.257812 1.164062 -2.21875 C 1.238281 -2.179688 1.277344 -2.128906 1.277344 -2.066406 C 1.277344 -2.03125 1.261719 -1.996094 1.238281 -1.96875 C 1.210938 -1.941406 1.179688 -1.925781 1.140625 -1.925781 C 1.109375 -1.925781 1.082031 -1.9375 1.0625 -1.957031 C 1.039062 -1.976562 1.011719 -2.007812 0.980469 -2.054688 L 0.953125 -2.097656 C 0.9375 -2.121094 0.917969 -2.140625 0.898438 -2.15625 C 0.878906 -2.171875 0.847656 -2.179688 0.8125 -2.179688 C 0.730469 -2.179688 0.671875 -2.136719 0.644531 -2.058594 C 0.628906 -2.015625 0.621094 -1.957031 0.621094 -1.886719 L 0.621094 -1.5 L 1.027344 -1.5 L 1.027344 -1.390625 L 0.625 -1.390625 L 0.625 -0.347656 C 0.625 -0.222656 0.640625 -0.144531 0.671875 -0.113281 C 0.707031 -0.078125 0.792969 -0.0546875 0.933594 -0.046875 L 0.933594 0 L 0.0664062 0 Z "/>
</g>
<g id="glyph-0-7">
<path d="M 0.171875 -0.511719 L 0.226562 -0.511719 C 0.25 -0.386719 0.285156 -0.292969 0.328125 -0.226562 C 0.402344 -0.105469 0.515625 -0.046875 0.660156 -0.046875 C 0.742188 -0.046875 0.804688 -0.0664062 0.855469 -0.113281 C 0.902344 -0.15625 0.925781 -0.214844 0.925781 -0.289062 C 0.925781 -0.332031 0.910156 -0.378906 0.882812 -0.417969 C 0.855469 -0.460938 0.808594 -0.503906 0.742188 -0.542969 L 0.558594 -0.648438 C 0.425781 -0.71875 0.328125 -0.792969 0.261719 -0.863281 C 0.199219 -0.9375 0.167969 -1.023438 0.167969 -1.121094 C 0.167969 -1.242188 0.210938 -1.34375 0.300781 -1.421875 C 0.386719 -1.5 0.496094 -1.539062 0.625 -1.539062 C 0.683594 -1.539062 0.746094 -1.527344 0.816406 -1.503906 C 0.886719 -1.484375 0.925781 -1.472656 0.933594 -1.472656 C 0.953125 -1.472656 0.964844 -1.476562 0.976562 -1.480469 C 0.984375 -1.484375 0.992188 -1.496094 0.996094 -1.507812 L 1.035156 -1.507812 L 1.046875 -1.054688 L 0.996094 -1.054688 C 0.976562 -1.160156 0.945312 -1.238281 0.910156 -1.296875 C 0.84375 -1.40625 0.746094 -1.460938 0.617188 -1.460938 C 0.542969 -1.460938 0.484375 -1.4375 0.4375 -1.390625 C 0.394531 -1.34375 0.375 -1.289062 0.375 -1.226562 C 0.375 -1.128906 0.449219 -1.039062 0.597656 -0.960938 L 0.8125 -0.84375 C 1.042969 -0.71875 1.160156 -0.574219 1.160156 -0.40625 C 1.160156 -0.277344 1.113281 -0.171875 1.015625 -0.0898438 C 0.921875 -0.0078125 0.792969 0.03125 0.640625 0.03125 C 0.574219 0.03125 0.5 0.0195312 0.417969 0 C 0.335938 -0.0234375 0.285156 -0.0351562 0.273438 -0.0351562 C 0.257812 -0.0351562 0.246094 -0.03125 0.238281 -0.0195312 C 0.226562 -0.0117188 0.21875 0 0.214844 0.0117188 L 0.171875 0.0117188 Z "/>
</g>
<g id="glyph-0-8">
<path d="M 0.792969 -0.175781 C 0.820312 -0.175781 0.855469 -0.179688 0.898438 -0.1875 C 0.941406 -0.195312 0.984375 -0.210938 1.023438 -0.230469 C 1.074219 -0.257812 1.105469 -0.285156 1.117188 -0.304688 C 1.128906 -0.328125 1.132812 -0.367188 1.132812 -0.429688 L 1.132812 -1.113281 C 1.132812 -1.199219 1.121094 -1.265625 1.09375 -1.316406 C 1.042969 -1.402344 0.953125 -1.445312 0.816406 -1.445312 C 0.664062 -1.445312 0.550781 -1.382812 0.476562 -1.253906 C 0.402344 -1.125 0.367188 -0.980469 0.367188 -0.816406 C 0.367188 -0.625 0.402344 -0.46875 0.476562 -0.351562 C 0.550781 -0.234375 0.65625 -0.175781 0.792969 -0.175781 Z M 0.832031 -1.535156 C 0.90625 -1.535156 0.96875 -1.523438 1.027344 -1.503906 C 1.066406 -1.492188 1.121094 -1.460938 1.199219 -1.417969 L 1.378906 -1.527344 C 1.390625 -1.53125 1.398438 -1.535156 1.402344 -1.535156 C 1.40625 -1.53125 1.410156 -1.527344 1.414062 -1.523438 C 1.414062 -1.523438 1.414062 -1.515625 1.414062 -1.503906 L 1.414062 0.476562 C 1.414062 0.53125 1.425781 0.574219 1.445312 0.605469 C 1.476562 0.648438 1.539062 0.671875 1.628906 0.679688 L 1.628906 0.726562 L 0.839844 0.726562 L 0.839844 0.671875 C 0.9375 0.671875 1.007812 0.65625 1.054688 0.625 C 1.101562 0.59375 1.125 0.523438 1.125 0.414062 L 1.125 -0.207031 C 1.050781 -0.132812 0.984375 -0.078125 0.929688 -0.046875 C 0.839844 0.0078125 0.734375 0.0351562 0.621094 0.0351562 C 0.484375 0.0351562 0.363281 -0.0273438 0.25 -0.152344 C 0.136719 -0.277344 0.078125 -0.464844 0.078125 -0.707031 C 0.078125 -0.929688 0.148438 -1.125 0.289062 -1.289062 C 0.429688 -1.453125 0.609375 -1.535156 0.832031 -1.535156 Z "/>
</g>
<g id="glyph-0-9">
<path d="M 0.515625 -1.507812 L 0.515625 -0.464844 C 0.515625 -0.390625 0.527344 -0.332031 0.546875 -0.289062 C 0.585938 -0.207031 0.660156 -0.164062 0.769531 -0.164062 C 0.84375 -0.164062 0.914062 -0.1875 0.984375 -0.238281 C 1.023438 -0.265625 1.066406 -0.300781 1.105469 -0.351562 L 1.105469 -1.242188 C 1.105469 -1.324219 1.089844 -1.378906 1.058594 -1.40625 C 1.027344 -1.433594 0.960938 -1.449219 0.863281 -1.453125 L 0.863281 -1.507812 L 1.386719 -1.507812 L 1.386719 -0.359375 C 1.386719 -0.285156 1.402344 -0.238281 1.429688 -0.210938 C 1.457031 -0.183594 1.511719 -0.167969 1.597656 -0.171875 L 1.597656 -0.125 C 1.539062 -0.109375 1.492188 -0.0976562 1.464844 -0.0898438 C 1.4375 -0.0820312 1.390625 -0.0664062 1.324219 -0.046875 C 1.296875 -0.0351562 1.234375 -0.0117188 1.136719 0.0234375 C 1.132812 0.0234375 1.128906 0.0234375 1.128906 0.015625 C 1.128906 0.0117188 1.125 0.0078125 1.125 0 L 1.125 -0.261719 C 1.050781 -0.175781 0.984375 -0.109375 0.925781 -0.0664062 C 0.832031 0 0.734375 0.03125 0.632812 0.03125 C 0.539062 0.03125 0.449219 -0.00390625 0.363281 -0.0703125 C 0.28125 -0.136719 0.238281 -0.246094 0.238281 -0.402344 L 0.238281 -1.25 C 0.238281 -1.335938 0.21875 -1.394531 0.183594 -1.421875 C 0.160156 -1.441406 0.105469 -1.453125 0.0273438 -1.460938 L 0.0273438 -1.507812 Z "/>
</g>
<g id="glyph-0-10">
<path d="M 1.78125 -0.621094 L 1.78125 -0.390625 L 0.0976562 -0.390625 L 0.0976562 -0.621094 Z M 1.78125 -1.292969 L 1.78125 -1.0625 L 0.0976562 -1.0625 L 0.0976562 -1.292969 Z "/>
</g>
<g id="glyph-0-11">
<path d="M 0.984375 -2.234375 C 0.988281 -2.230469 0.992188 -2.226562 0.992188 -2.222656 C 0.992188 -2.222656 0.996094 -2.214844 0.996094 -2.207031 L 0.996094 -0.246094 C 0.996094 -0.164062 1.015625 -0.109375 1.0625 -0.0859375 C 1.105469 -0.0625 1.1875 -0.0507812 1.308594 -0.046875 L 1.308594 0 L 0.390625 0 L 0.390625 -0.046875 C 0.523438 -0.0546875 0.609375 -0.0742188 0.648438 -0.101562 C 0.6875 -0.132812 0.710938 -0.195312 0.710938 -0.292969 L 0.710938 -1.800781 C 0.710938 -1.851562 0.703125 -1.890625 0.691406 -1.917969 C 0.675781 -1.945312 0.648438 -1.960938 0.605469 -1.960938 C 0.578125 -1.960938 0.539062 -1.953125 0.496094 -1.9375 C 0.449219 -1.921875 0.410156 -1.902344 0.371094 -1.886719 L 0.371094 -1.933594 L 0.964844 -2.234375 Z "/>
</g>
</g>
<image id="source-48" x="0" y="0" width="0" height="0"/>
<mask id="mask-0">
<use xlink:href="#source-48"/>
</mask>
</defs>
<g fill="rgb(100%, 100%, 100%)" fill-opacity="1">
<use xlink:href="#glyph-0-0" x="30" y="22.5"/>
<use xlink:href="#glyph-0-1" x="32" y="22.5"/>
<use xlink:href="#glyph-0-2" x="33" y="22.5"/>
<use xlink:href="#glyph-0-3" x="34" y="22.5"/>
<use xlink:href="#glyph-0-4" x="35" y="22.5"/>
<use xlink:href="#glyph-0-5" x="36" y="22.5"/>
<use xlink:href="#glyph-0-6" x="38" y="22.5"/>
<use xlink:href="#glyph-0-4" x="39" y="22.5"/>
<use xlink:href="#glyph-0-7" x="40" y="22.5"/>
<use xlink:href="#glyph-0-8" x="41" y="22.5"/>
<use xlink:href="#glyph-0-9" x="43" y="22.5"/>
<use xlink:href="#glyph-0-3" x="45" y="22.5"/>
<use xlink:href="#glyph-0-1" x="46" y="22.5"/>
<use xlink:href="#glyph-0-2" x="47" y="22.5"/>
<use xlink:href="#glyph-0-4" x="48" y="22.5"/>
<use xlink:href="#glyph-0-10" x="49" y="22.5"/>
<use xlink:href="#glyph-0-4" x="51" y="22.5"/>
<use xlink:href="#glyph-0-11" x="52" y="22.5"/>
</g>
</svg>
