<?xml version="1.0" encoding="UTF-8"?>
<svg xmlns="http://www.w3.org/2000/svg" xmlns:xlink="http://www.w3.org/1999/xlink" width="1280" height="720" viewBox="0 0 1280 720">
<defs>
<g>
<g id="glyph-0-0">
<path d="M 0.0429688 -0.0703125 C 0.203125 -0.0859375 0.308594 -0.125 0.351562 -0.179688 C 0.398438 -0.234375 0.421875 -0.367188 0.421875 -0.570312 L 0.421875 -2.285156 L 0.367188 -2.347656 C 0.3125 -2.414062 0.261719 -2.457031 0.222656 -2.472656 C 0.183594 -2.488281 0.125 -2.5 0.0429688 -2.5 L 0.0429688 -2.574219 L 0.710938 -2.574219 L 2.207031 -0.699219 L 2.207031 -2 C 2.207031 -2.214844 2.175781 -2.355469 2.113281 -2.417969 C 2.070312 -2.460938 1.980469 -2.488281 1.835938 -2.5 L 1.835938 -2.574219 L 2.75 -2.574219 L 2.75 -2.5 C 2.601562 -2.484375 2.503906 -2.449219 2.453125 -2.394531 C 2.402344 -2.335938 2.378906 -2.207031 2.378906 -2 L 2.378906 0.046875 L 2.3125 0.046875 L 0.59375 -2.085938 L 0.59375 -0.570312 C 0.59375 -0.359375 0.625 -0.21875 0.6875 -0.15625 C 0.726562 -0.113281 0.816406 -0.0859375 0.957031 -0.0703125 L 0.957031 0 L 0.0429688 0 Z "/>
</g>
<g id="glyph-0-1">
<path d="M 0.890625 -1.78125 C 1.070312 -1.78125 1.226562 -1.71875 1.359375 -1.597656 C 1.492188 -1.472656 1.5625 -1.296875 1.5625 -1.070312 L 0.355469 -1.070312 C 0.367188 -0.777344 0.433594 -0.5625 0.554688 -0.429688 C 0.675781 -0.296875 0.816406 -0.226562 0.980469 -0.226562 C 1.113281 -0.226562 1.226562 -0.261719 1.316406 -0.332031 C 1.410156 -0.402344 1.492188 -0.5 1.570312 -0.628906 L 1.636719 -0.605469 C 1.585938 -0.445312 1.488281 -0.296875 1.34375 -0.160156 C 1.203125 -0.0234375 1.027344 0.046875 0.824219 0.046875 C 0.585938 0.046875 0.402344 -0.0429688 0.269531 -0.222656 C 0.140625 -0.402344 0.0742188 -0.609375 0.0742188 -0.84375 C 0.0742188 -1.097656 0.152344 -1.320312 0.300781 -1.503906 C 0.453125 -1.6875 0.648438 -1.78125 0.890625 -1.78125 Z M 0.78125 -1.644531 C 0.636719 -1.644531 0.527344 -1.578125 0.449219 -1.449219 C 0.410156 -1.382812 0.378906 -1.296875 0.363281 -1.191406 L 1.164062 -1.191406 C 1.148438 -1.320312 1.125 -1.414062 1.09375 -1.476562 C 1.03125 -1.585938 0.925781 -1.644531 0.78125 -1.644531 Z "/>
</g>
<g id="glyph-0-2">
<path d="M 0.898438 -1.746094 L 0.898438 -1.691406 C 0.851562 -1.691406 0.8125 -1.683594 0.777344 -1.671875 C 0.742188 -1.660156 0.726562 -1.636719 0.726562 -1.597656 C 0.726562 -1.574219 0.761719 -1.503906 0.828125 -1.394531 C 0.863281 -1.335938 0.910156 -1.265625 0.964844 -1.179688 C 1.039062 -1.28125 1.09375 -1.363281 1.128906 -1.421875 C 1.191406 -1.515625 1.222656 -1.574219 1.222656 -1.601562 C 1.222656 -1.636719 1.210938 -1.65625 1.183594 -1.667969 C 1.15625 -1.679688 1.121094 -1.6875 1.070312 -1.691406 L 1.070312 -1.746094 L 1.683594 -1.746094 L 1.683594 -1.691406 C 1.617188 -1.6875 1.558594 -1.667969 1.503906 -1.640625 C 1.445312 -1.609375 1.402344 -1.570312 1.367188 -1.519531 L 1.042969 -1.050781 L 1.542969 -0.292969 C 1.609375 -0.195312 1.664062 -0.128906 1.707031 -0.101562 C 1.753906 -0.0703125 1.804688 -0.0546875 1.863281 -0.0546875 L 1.863281 0 L 1.078125 0 L 1.078125 -0.0546875 L 1.132812 -0.0585938 C 1.164062 -0.0585938 1.1875 -0.0703125 1.207031 -0.0820312 C 1.226562 -0.0976562 1.238281 -0.117188 1.238281 -0.140625 C 1.238281 -0.164062 1.210938 -0.21875 1.164062 -0.300781 C 1.140625 -0.339844 1.105469 -0.394531 1.0625 -0.464844 C 1.039062 -0.5 1.007812 -0.546875 0.964844 -0.609375 C 0.921875 -0.667969 0.886719 -0.71875 0.859375 -0.761719 L 0.550781 -0.285156 C 0.515625 -0.230469 0.492188 -0.191406 0.484375 -0.171875 C 0.476562 -0.152344 0.472656 -0.136719 0.472656 -0.125 C 0.472656 -0.101562 0.480469 -0.0859375 0.5 -0.078125 C 0.519531 -0.0703125 0.5625 -0.0625 0.628906 -0.0546875 L 0.628906 0 L 0.0664062 0 L 0.0664062 -0.0546875 C 0.136719 -0.0664062 0.183594 -0.0859375 0.21875 -0.105469 C 0.25 -0.128906 0.296875 -0.179688 0.347656 -0.257812 L 0.792969 -0.898438 L 0.425781 -1.453125 C 0.351562 -1.5625 0.304688 -1.628906 0.273438 -1.648438 C 0.246094 -1.667969 0.1875 -1.683594 0.09375 -1.691406 L 0.09375 -1.746094 Z "/>
</g>
<g id="glyph-0-3">
<path d="M 0.988281 -1.75 L 0.988281 -1.613281 L 0.601562 -1.613281 L 0.597656 -0.519531 C 0.597656 -0.425781 0.605469 -0.351562 0.621094 -0.300781 C 0.652344 -0.214844 0.710938 -0.171875 0.800781 -0.171875 C 0.847656 -0.171875 0.886719 -0.183594 0.921875 -0.203125 C 0.953125 -0.226562 0.992188 -0.257812 1.035156 -0.304688 L 1.085938 -0.265625 L 1.042969 -0.207031 C 0.976562 -0.117188 0.90625 -0.0546875 0.832031 -0.0195312 C 0.757812 0.015625 0.6875 0.0351562 0.621094 0.0351562 C 0.472656 0.0351562 0.371094 -0.03125 0.316406 -0.164062 C 0.289062 -0.234375 0.273438 -0.335938 0.273438 -0.464844 L 0.273438 -1.613281 L 0.0664062 -1.613281 C 0.0585938 -1.617188 0.0546875 -1.621094 0.0507812 -1.625 C 0.046875 -1.628906 0.046875 -1.632812 0.046875 -1.640625 C 0.046875 -1.652344 0.0507812 -1.664062 0.0546875 -1.671875 C 0.0625 -1.679688 0.078125 -1.695312 0.109375 -1.71875 C 0.195312 -1.789062 0.261719 -1.847656 0.300781 -1.894531 C 0.339844 -1.941406 0.429688 -2.058594 0.570312 -2.25 C 0.585938 -2.25 0.597656 -2.25 0.601562 -2.246094 C 0.605469 -2.242188 0.605469 -2.234375 0.605469 -2.21875 L 0.605469 -1.75 Z "/>
</g>
<g id="glyph-0-4">
<rect x="0" y="0" width="0" height="0" mask="url(#mask-0)"/>
</g>
<g id="glyph-0-5">
<path d="M 0.964844 -1.789062 C 1.125 -1.789062 1.261719 -1.75 1.375 -1.667969 C 1.492188 -1.585938 1.546875 -1.496094 1.546875 -1.398438 C 1.546875 -1.359375 1.535156 -1.320312 1.503906 -1.28125 C 1.476562 -1.246094 1.429688 -1.230469 1.371094 -1.230469 C 1.324219 -1.230469 1.285156 -1.242188 1.253906 -1.273438 C 1.21875 -1.304688 1.195312 -1.347656 1.179688 -1.40625 L 1.15625 -1.5 C 1.140625 -1.566406 1.113281 -1.613281 1.070312 -1.640625 C 1.027344 -1.667969 0.972656 -1.679688 0.90625 -1.679688 C 0.761719 -1.679688 0.640625 -1.617188 0.539062 -1.492188 C 0.441406 -1.367188 0.390625 -1.199219 0.390625 -0.988281 C 0.390625 -0.796875 0.445312 -0.625 0.554688 -0.476562 C 0.664062 -0.324219 0.8125 -0.246094 1 -0.246094 C 1.132812 -0.246094 1.246094 -0.289062 1.351562 -0.375 C 1.410156 -0.425781 1.472656 -0.503906 1.546875 -0.613281 L 1.601562 -0.578125 C 1.527344 -0.425781 1.453125 -0.308594 1.375 -0.21875 C 1.21875 -0.0507812 1.042969 0.0351562 0.839844 0.0351562 C 0.644531 0.0351562 0.46875 -0.0429688 0.316406 -0.199219 C 0.164062 -0.355469 0.0898438 -0.566406 0.0898438 -0.832031 C 0.0898438 -1.09375 0.171875 -1.320312 0.339844 -1.507812 C 0.503906 -1.695312 0.714844 -1.789062 0.964844 -1.789062 Z "/>
</g>
<g id="glyph-0-6">
<path d="M 1.113281 -1.050781 C 0.96875 -1.003906 0.847656 -0.949219 0.753906 -0.894531 C 0.570312 -0.78125 0.480469 -0.652344 0.480469 -0.507812 C 0.480469 -0.394531 0.519531 -0.308594 0.59375 -0.253906 C 0.644531 -0.21875 0.699219 -0.203125 0.757812 -0.203125 C 0.84375 -0.203125 0.921875 -0.226562 1 -0.273438 C 1.078125 -0.320312 1.113281 -0.378906 1.113281 -0.449219 Z M 0.140625 -0.378906 C 0.140625 -0.5625 0.234375 -0.714844 0.417969 -0.835938 C 0.535156 -0.914062 0.765625 -1.015625 1.113281 -1.148438 L 1.113281 -1.308594 C 1.113281 -1.4375 1.101562 -1.527344 1.078125 -1.578125 C 1.035156 -1.664062 0.945312 -1.707031 0.808594 -1.707031 C 0.746094 -1.707031 0.683594 -1.6875 0.625 -1.65625 C 0.566406 -1.621094 0.539062 -1.574219 0.539062 -1.515625 C 0.539062 -1.5 0.539062 -1.476562 0.546875 -1.4375 C 0.554688 -1.402344 0.554688 -1.378906 0.554688 -1.371094 C 0.554688 -1.300781 0.53125 -1.25 0.484375 -1.222656 C 0.460938 -1.207031 0.429688 -1.195312 0.390625 -1.195312 C 0.335938 -1.195312 0.289062 -1.214844 0.261719 -1.253906 C 0.230469 -1.289062 0.214844 -1.332031 0.214844 -1.375 C 0.214844 -1.464844 0.269531 -1.558594 0.378906 -1.65625 C 0.488281 -1.753906 0.648438 -1.800781 0.859375 -1.800781 C 1.105469 -1.800781 1.273438 -1.722656 1.359375 -1.5625 C 1.40625 -1.472656 1.429688 -1.347656 1.429688 -1.179688 L 1.429688 -0.417969 C 1.429688 -0.34375 1.433594 -0.292969 1.445312 -0.265625 C 1.460938 -0.214844 1.496094 -0.191406 1.546875 -0.191406 C 1.578125 -0.191406 1.601562 -0.195312 1.621094 -0.207031 C 1.640625 -0.214844 1.671875 -0.234375 1.71875 -0.269531 L 1.71875 -0.171875 C 1.679688 -0.121094 1.632812 -0.0820312 1.585938 -0.0507812 C 1.515625 0 1.445312 0.0234375 1.371094 0.0234375 C 1.285156 0.0234375 1.222656 -0.00390625 1.183594 -0.0625 C 1.144531 -0.117188 1.125 -0.183594 1.121094 -0.261719 C 1.023438 -0.175781 0.941406 -0.113281 0.875 -0.0742188 C 0.757812 -0.00390625 0.648438 0.0273438 0.546875 0.0273438 C 0.4375 0.0273438 0.34375 -0.0117188 0.261719 -0.0859375 C 0.183594 -0.164062 0.140625 -0.261719 0.140625 -0.378906 Z "/>
</g>
<g id="glyph-0-7">
<path d="M 0.078125 -0.0546875 C 0.195312 -0.0664062 0.277344 -0.0898438 0.320312 -0.125 C 0.359375 -0.160156 0.382812 -0.230469 0.382812 -0.335938 L 0.382812 -2.191406 C 0.382812 -2.273438 0.375 -2.332031 0.359375 -2.363281 C 0.335938 -2.417969 0.285156 -2.445312 0.207031 -2.445312 C 0.1875 -2.445312 0.171875 -2.441406 0.148438 -2.4375 C 0.128906 -2.433594 0.101562 -2.429688 0.0703125 -2.421875 L 0.0703125 -2.484375 C 0.242188 -2.53125 0.445312 -2.589844 0.6875 -2.667969 C 0.695312 -2.667969 0.703125 -2.664062 0.703125 -2.65625 C 0.707031 -2.648438 0.707031 -2.632812 0.707031 -2.605469 L 0.707031 -0.328125 C 0.707031 -0.21875 0.726562 -0.148438 0.761719 -0.113281 C 0.800781 -0.0820312 0.878906 -0.0625 1 -0.0546875 L 1 0 L 0.078125 0 Z "/>
</g>
<g id="glyph-0-8">
<path d="M 0.0976562 -0.882812 C 0.0976562 -1.132812 0.179688 -1.347656 0.339844 -1.519531 C 0.5 -1.695312 0.707031 -1.78125 0.957031 -1.78125 C 1.207031 -1.78125 1.414062 -1.699219 1.582031 -1.535156 C 1.746094 -1.371094 1.828125 -1.152344 1.828125 -0.878906 C 1.828125 -0.625 1.746094 -0.40625 1.585938 -0.21875 C 1.425781 -0.0351562 1.222656 0.0585938 0.96875 0.0585938 C 0.726562 0.0585938 0.519531 -0.03125 0.351562 -0.207031 C 0.183594 -0.386719 0.0976562 -0.613281 0.0976562 -0.882812 Z M 0.902344 -1.667969 C 0.804688 -1.667969 0.71875 -1.632812 0.644531 -1.570312 C 0.515625 -1.453125 0.453125 -1.253906 0.453125 -0.972656 C 0.453125 -0.746094 0.503906 -0.535156 0.605469 -0.34375 C 0.707031 -0.148438 0.851562 -0.0507812 1.03125 -0.0507812 C 1.171875 -0.0507812 1.28125 -0.113281 1.359375 -0.246094 C 1.4375 -0.375 1.472656 -0.546875 1.472656 -0.757812 C 1.472656 -0.976562 1.425781 -1.183594 1.328125 -1.375 C 1.230469 -1.570312 1.089844 -1.667969 0.902344 -1.667969 Z "/>
</g>
<g id="glyph-0-9">
<path d="M 0.0742188 -0.0546875 C 0.210938 -0.0585938 0.296875 -0.0859375 0.339844 -0.128906 C 0.382812 -0.171875 0.40625 -0.265625 0.40625 -0.40625 L 0.40625 -1.625 L 0.078125 -1.625 L 0.078125 -1.75 L 0.40625 -1.75 C 0.40625 -1.949219 0.433594 -2.121094 0.484375 -2.257812 C 0.589844 -2.523438 0.78125 -2.65625 1.058594 -2.65625 C 1.167969 -2.65625 1.269531 -2.632812 1.355469 -2.589844 C 1.445312 -2.542969 1.488281 -2.484375 1.488281 -2.410156 C 1.488281 -2.367188 1.472656 -2.332031 1.445312 -2.296875 C 1.414062 -2.265625 1.375 -2.25 1.332031 -2.25 C 1.296875 -2.25 1.265625 -2.261719 1.238281 -2.28125 C 1.210938 -2.304688 1.179688 -2.34375 1.144531 -2.398438 L 1.109375 -2.449219 C 1.09375 -2.476562 1.074219 -2.496094 1.046875 -2.515625 C 1.023438 -2.535156 0.992188 -2.542969 0.949219 -2.542969 C 0.851562 -2.542969 0.785156 -2.496094 0.753906 -2.402344 C 0.734375 -2.351562 0.722656 -2.285156 0.722656 -2.203125 L 0.722656 -1.75 L 1.199219 -1.75 L 1.199219 -1.625 L 0.726562 -1.625 L 0.726562 -0.40625 C 0.726562 -0.261719 0.746094 -0.171875 0.785156 -0.128906 C 0.824219 -0.0898438 0.925781 -0.0664062 1.089844 -0.0546875 L 1.089844 0 L 0.0742188 0 Z "/>
</g>
<g id="glyph-0-10">
<path d="M 0.179688 -0.976562 C 0.179688 -1.417969 0.308594 -1.804688 0.574219 -2.136719 C 0.734375 -2.339844 0.925781 -2.503906 1.148438 -2.628906 L 1.183594 -2.566406 C 0.980469 -2.402344 0.832031 -2.246094 0.746094 -2.09375 C 0.59375 -1.824219 0.515625 -1.46875 0.515625 -1.027344 C 0.515625 -0.695312 0.546875 -0.425781 0.605469 -0.210938 C 0.707031 0.164062 0.898438 0.445312 1.183594 0.628906 L 1.132812 0.691406 C 0.976562 0.617188 0.808594 0.472656 0.628906 0.253906 C 0.328125 -0.105469 0.179688 -0.515625 0.179688 -0.976562 Z "/>
</g>
<g id="glyph-0-11">
<path d="M 0.300781 -0.332031 C 0.371094 -0.332031 0.464844 -0.292969 0.578125 -0.222656 C 0.691406 -0.148438 0.789062 -0.113281 0.871094 -0.113281 C 1.046875 -0.113281 1.179688 -0.171875 1.265625 -0.292969 C 1.351562 -0.414062 1.394531 -0.542969 1.394531 -0.683594 C 1.394531 -0.820312 1.359375 -0.9375 1.289062 -1.039062 C 1.171875 -1.214844 0.972656 -1.300781 0.691406 -1.300781 C 0.675781 -1.300781 0.660156 -1.300781 0.644531 -1.300781 C 0.628906 -1.300781 0.613281 -1.296875 0.59375 -1.296875 L 0.589844 -1.34375 C 0.792969 -1.417969 0.949219 -1.503906 1.066406 -1.597656 C 1.183594 -1.691406 1.242188 -1.816406 1.242188 -1.972656 C 1.242188 -2.109375 1.195312 -2.214844 1.105469 -2.289062 C 1.011719 -2.359375 0.90625 -2.398438 0.789062 -2.398438 C 0.652344 -2.398438 0.527344 -2.34375 0.421875 -2.242188 C 0.363281 -2.1875 0.300781 -2.101562 0.234375 -1.984375 L 0.175781 -1.996094 C 0.226562 -2.191406 0.320312 -2.34375 0.457031 -2.460938 C 0.59375 -2.574219 0.753906 -2.632812 0.9375 -2.632812 C 1.128906 -2.632812 1.28125 -2.578125 1.386719 -2.472656 C 1.492188 -2.367188 1.542969 -2.242188 1.542969 -2.105469 C 1.542969 -1.980469 1.5 -1.867188 1.414062 -1.765625 C 1.363281 -1.707031 1.285156 -1.644531 1.183594 -1.570312 C 1.304688 -1.519531 1.402344 -1.457031 1.476562 -1.386719 C 1.613281 -1.253906 1.683594 -1.085938 1.683594 -0.882812 C 1.683594 -0.640625 1.589844 -0.429688 1.398438 -0.246094 C 1.210938 -0.0625 0.941406 0.0273438 0.589844 0.0273438 C 0.433594 0.0273438 0.324219 0.00390625 0.261719 -0.0390625 C 0.199219 -0.0859375 0.167969 -0.136719 0.167969 -0.191406 C 0.167969 -0.222656 0.179688 -0.253906 0.199219 -0.285156 C 0.222656 -0.316406 0.253906 -0.332031 0.300781 -0.332031 Z "/>
</g>
<g id="glyph-0-12">
<path d="M 1.105469 -0.957031 C 1.105469 -0.769531 1.082031 -0.589844 1.03125 -0.421875 C 0.984375 -0.253906 0.910156 -0.09375 0.816406 0.0546875 C 0.714844 0.214844 0.582031 0.363281 0.414062 0.5 C 0.304688 0.59375 0.214844 0.65625 0.136719 0.691406 L 0.101562 0.628906 C 0.296875 0.480469 0.441406 0.332031 0.53125 0.175781 C 0.691406 -0.0976562 0.769531 -0.457031 0.769531 -0.90625 C 0.769531 -1.269531 0.734375 -1.566406 0.660156 -1.796875 C 0.558594 -2.125 0.371094 -2.378906 0.101562 -2.566406 L 0.152344 -2.628906 C 0.351562 -2.515625 0.539062 -2.347656 0.710938 -2.125 C 0.976562 -1.777344 1.105469 -1.386719 1.105469 -0.957031 Z "/>
</g>
<g id="glyph-0-13">
<path d="M 1.128906 -0.171875 C 1.128906 -0.113281 1.105469 -0.0664062 1.066406 -0.0234375 C 1.023438 0.015625 0.972656 0.0351562 0.917969 0.0351562 C 0.859375 0.0351562 0.808594 0.015625 0.765625 -0.0234375 C 0.726562 -0.0625 0.707031 -0.113281 0.707031 -0.171875 C 0.707031 -0.230469 0.726562 -0.277344 0.769531 -0.316406 C 0.8125 -0.359375 0.859375 -0.378906 0.914062 -0.378906 C 0.972656 -0.378906 1.023438 -0.359375 1.066406 -0.316406 C 1.109375 -0.277344 1.128906 -0.226562 1.128906 -0.171875 Z M 0.933594 -2.625 C 1.128906 -2.625 1.292969 -2.570312 1.417969 -2.464844 C 1.546875 -2.355469 1.613281 -2.203125 1.613281 -2.007812 C 1.613281 -1.84375 1.515625 -1.640625 1.320312 -1.394531 C 1.109375 -1.128906 0.988281 -0.878906 0.949219 -0.636719 L 0.882812 -0.636719 C 0.882812 -0.683594 0.886719 -0.75 0.902344 -0.835938 C 0.917969 -0.921875 0.933594 -0.996094 0.953125 -1.0625 C 0.972656 -1.125 1.023438 -1.253906 1.105469 -1.441406 C 1.148438 -1.535156 1.183594 -1.628906 1.210938 -1.726562 C 1.242188 -1.820312 1.253906 -1.910156 1.253906 -1.988281 C 1.253906 -2.125 1.21875 -2.246094 1.152344 -2.351562 C 1.082031 -2.457031 0.972656 -2.511719 0.824219 -2.511719 C 0.71875 -2.511719 0.632812 -2.484375 0.5625 -2.429688 C 0.492188 -2.375 0.457031 -2.320312 0.457031 -2.273438 C 0.457031 -2.246094 0.484375 -2.199219 0.535156 -2.140625 C 0.585938 -2.082031 0.613281 -2.027344 0.613281 -1.976562 C 0.613281 -1.933594 0.597656 -1.898438 0.566406 -1.867188 C 0.535156 -1.835938 0.5 -1.820312 0.453125 -1.820312 C 0.402344 -1.820312 0.359375 -1.839844 0.316406 -1.886719 C 0.277344 -1.929688 0.257812 -1.992188 0.257812 -2.078125 C 0.257812 -2.207031 0.3125 -2.332031 0.425781 -2.449219 C 0.539062 -2.566406 0.707031 -2.625 0.933594 -2.625 Z "/>
</g>
</g>
<image id="source-303" x="0" y="0" width="0" height="0"/>
<mask id="mask-0">
<use xlink:href="#source-303"/>
</mask>
</defs>
<g fill="rgb(100%, 100%, 100%)" fill-opacity="1">
<use xlink:href="#glyph-0-0" x="30" y="22.916992"/>
<use xlink:href="#glyph-0-1" x="33" y="22.916992"/>
<use xlink:href="#glyph-0-2" x="35" y="22.916992"/>
<use xlink:href="#glyph-0-3" x="37" y="22.916992"/>
<use xlink:href="#glyph-0-4" x="38" y="22.916992"/>
<use xlink:href="#glyph-0-5" x="39" y="22.916992"/>
<use xlink:href="#glyph-0-6" x="41" y="22.916992"/>
<use xlink:href="#glyph-0-7" x="43" y="22.916992"/>
<use xlink:href="#glyph-0-7" x="44" y="22.916992"/>
<use xlink:href="#glyph-0-4" x="45" y="22.916992"/>
<use xlink:href="#glyph-0-3" x="46" y="22.916992"/>
<use xlink:href="#glyph-0-8" x="47" y="22.916992"/>
<use xlink:href="#glyph-0-4" x="49" y="22.916992"/>
<use xlink:href="#glyph-0-9" x="50" y="22.916992"/>
<use xlink:href="#glyph-0-10" x="51" y="22.916992"/>
<use xlink:href="#glyph-0-11" x="52" y="22.916992"/>
<use xlink:href="#glyph-0-12" x="54" y="22.916992"/>
<use xlink:href="#glyph-0-13" x="55" y="22.916992"/>
</g>
</svg>
