<?xml version="1.0" encoding="UTF-8"?>
<svg xmlns="http://www.w3.org/2000/svg" xmlns:xlink="http://www.w3.org/1999/xlink" width="1280" height="720" viewBox="0 0 1280 720">
<defs>
<g>
<g id="glyph-0-0">
<path d="M 0.0820312 -0.03125 C 0.414062 -0.375 0.636719 -0.628906 0.757812 -0.789062 C 0.875 -0.949219 0.933594 -1.105469 0.933594 -1.257812 C 0.933594 -1.390625 0.898438 -1.496094 0.824219 -1.5625 C 0.753906 -1.632812 0.667969 -1.667969 0.566406 -1.667969 C 0.441406 -1.667969 0.34375 -1.625 0.265625 -1.535156 C 0.222656 -1.484375 0.183594 -1.40625 0.144531 -1.304688 L 0.0859375 -1.316406 C 0.128906 -1.523438 0.207031 -1.667969 0.316406 -1.75 C 0.421875 -1.832031 0.539062 -1.871094 0.664062 -1.871094 C 0.816406 -1.871094 0.941406 -1.824219 1.035156 -1.726562 C 1.128906 -1.628906 1.175781 -1.511719 1.175781 -1.375 C 1.175781 -1.226562 1.125 -1.082031 1.023438 -0.945312 C 0.921875 -0.808594 0.699219 -0.5625 0.355469 -0.210938 L 0.980469 -0.210938 C 1.066406 -0.210938 1.125 -0.222656 1.164062 -0.242188 C 1.199219 -0.261719 1.238281 -0.3125 1.28125 -0.394531 L 1.316406 -0.378906 L 1.167969 0 L 0.0820312 0 Z "/>
</g>
</g>
</defs>
<g fill="rgb(100%, 100%, 100%)" fill-opacity="1">
<use xlink:href="#glyph-0-0" x="30" y="22.083008"/>
</g>
</svg>
