<?xml version="1.0" encoding="UTF-8"?>
<svg xmlns="http://www.w3.org/2000/svg" xmlns:xlink="http://www.w3.org/1999/xlink" width="1280" height="720" viewBox="0 0 1280 720">
<defs>
<g>
<g id="glyph-0-0">
<path d="M 0.164062 -5.511719 L 4.871094 -5.511719 L 4.914062 -4.097656 L 4.714844 -4.097656 C 4.617188 -4.542969 4.492188 -4.832031 4.34375 -4.964844 C 4.191406 -5.101562 3.875 -5.167969 3.394531 -5.167969 L 2.929688 -5.167969 L 2.929688 -0.902344 C 2.929688 -0.582031 2.980469 -0.378906 3.082031 -0.304688 C 3.179688 -0.226562 3.398438 -0.175781 3.738281 -0.152344 L 3.738281 0 L 1.308594 0 L 1.308594 -0.152344 C 1.664062 -0.179688 1.882812 -0.234375 1.96875 -0.324219 C 2.054688 -0.414062 2.097656 -0.640625 2.097656 -1 L 2.097656 -5.167969 L 1.636719 -5.167969 C 1.175781 -5.167969 0.859375 -5.101562 0.695312 -4.96875 C 0.527344 -4.835938 0.402344 -4.542969 0.316406 -4.097656 L 0.113281 -4.097656 Z "/>
</g>
<g id="glyph-0-1">
<path d="M 0.0742188 -0.113281 C 0.296875 -0.144531 0.441406 -0.199219 0.511719 -0.277344 C 0.582031 -0.359375 0.613281 -0.546875 0.613281 -0.847656 L 0.613281 -4.753906 C 0.613281 -4.90625 0.59375 -5.015625 0.554688 -5.089844 C 0.515625 -5.160156 0.421875 -5.195312 0.269531 -5.195312 C 0.238281 -5.195312 0.210938 -5.195312 0.179688 -5.191406 C 0.152344 -5.1875 0.121094 -5.179688 0.0859375 -5.175781 L 0.0859375 -5.320312 C 0.203125 -5.355469 0.351562 -5.398438 0.527344 -5.449219 C 0.703125 -5.5 0.824219 -5.535156 0.890625 -5.558594 L 1.28125 -5.679688 L 1.289062 -5.652344 L 1.289062 -3.152344 C 1.460938 -3.347656 1.613281 -3.492188 1.746094 -3.585938 C 1.984375 -3.746094 2.242188 -3.828125 2.519531 -3.828125 C 2.957031 -3.828125 3.257812 -3.644531 3.417969 -3.277344 C 3.503906 -3.082031 3.546875 -2.824219 3.546875 -2.507812 L 3.546875 -0.847656 C 3.546875 -0.558594 3.582031 -0.371094 3.648438 -0.285156 C 3.714844 -0.199219 3.851562 -0.140625 4.058594 -0.113281 L 4.058594 0 L 2.292969 0 L 2.292969 -0.113281 C 2.53125 -0.144531 2.683594 -0.203125 2.75 -0.28125 C 2.816406 -0.359375 2.851562 -0.546875 2.851562 -0.847656 L 2.851562 -2.496094 C 2.851562 -2.757812 2.808594 -2.96875 2.71875 -3.132812 C 2.632812 -3.296875 2.464844 -3.378906 2.222656 -3.378906 C 2.011719 -3.378906 1.804688 -3.300781 1.605469 -3.148438 C 1.410156 -2.996094 1.308594 -2.898438 1.308594 -2.851562 L 1.308594 -0.847656 C 1.308594 -0.542969 1.34375 -0.351562 1.414062 -0.277344 C 1.484375 -0.199219 1.636719 -0.144531 1.867188 -0.113281 L 1.867188 0 L 0.0742188 0 Z "/>
</g>
<g id="glyph-0-2">
<path d="M 1.910156 -3.816406 C 2.292969 -3.816406 2.625 -3.683594 2.914062 -3.417969 C 3.199219 -3.15625 3.34375 -2.78125 3.34375 -2.292969 L 0.761719 -2.292969 C 0.789062 -1.664062 0.929688 -1.207031 1.1875 -0.917969 C 1.445312 -0.632812 1.75 -0.488281 2.105469 -0.488281 C 2.390625 -0.488281 2.628906 -0.5625 2.824219 -0.710938 C 3.019531 -0.859375 3.199219 -1.074219 3.363281 -1.347656 L 3.507812 -1.296875 C 3.394531 -0.953125 3.1875 -0.632812 2.882812 -0.339844 C 2.578125 -0.046875 2.203125 0.0976562 1.761719 0.0976562 C 1.25 0.0976562 0.859375 -0.09375 0.578125 -0.480469 C 0.300781 -0.867188 0.164062 -1.308594 0.164062 -1.8125 C 0.164062 -2.355469 0.324219 -2.828125 0.648438 -3.222656 C 0.96875 -3.617188 1.390625 -3.816406 1.910156 -3.816406 Z M 1.671875 -3.519531 C 1.363281 -3.519531 1.128906 -3.382812 0.964844 -3.109375 C 0.878906 -2.960938 0.816406 -2.777344 0.777344 -2.554688 L 2.496094 -2.554688 C 2.464844 -2.828125 2.414062 -3.027344 2.339844 -3.160156 C 2.207031 -3.398438 1.984375 -3.519531 1.671875 -3.519531 Z "/>
</g>
<g id="glyph-0-3">
<rect x="0" y="0" width="0" height="0" mask="url(#mask-0)"/>
</g>
<g id="glyph-0-4">
<path d="M 1.65625 -2.851562 C 2.253906 -2.875 2.683594 -2.9375 2.941406 -3.039062 C 3.382812 -3.222656 3.605469 -3.5625 3.605469 -4.066406 C 3.605469 -4.546875 3.40625 -4.878906 3.011719 -5.054688 C 2.800781 -5.148438 2.519531 -5.195312 2.167969 -5.195312 C 1.933594 -5.195312 1.789062 -5.179688 1.734375 -5.144531 C 1.683594 -5.109375 1.65625 -5.03125 1.65625 -4.90625 Z M 0.09375 -0.152344 C 0.414062 -0.179688 0.613281 -0.242188 0.691406 -0.335938 C 0.769531 -0.433594 0.808594 -0.652344 0.808594 -1 L 0.808594 -4.609375 C 0.808594 -4.902344 0.765625 -5.09375 0.675781 -5.1875 C 0.589844 -5.277344 0.394531 -5.335938 0.09375 -5.359375 L 0.09375 -5.511719 L 2.402344 -5.511719 C 2.882812 -5.511719 3.28125 -5.453125 3.601562 -5.332031 C 4.207031 -5.101562 4.511719 -4.675781 4.511719 -4.058594 C 4.511719 -3.640625 4.378906 -3.324219 4.109375 -3.101562 C 3.839844 -2.878906 3.472656 -2.730469 3.007812 -2.660156 L 4.722656 -0.550781 C 4.828125 -0.417969 4.933594 -0.324219 5.042969 -0.265625 C 5.148438 -0.207031 5.28125 -0.167969 5.449219 -0.152344 L 5.449219 0 L 4.105469 0 L 2.121094 -2.5625 L 1.65625 -2.542969 L 1.65625 -0.902344 C 1.65625 -0.59375 1.703125 -0.398438 1.796875 -0.316406 C 1.890625 -0.234375 2.09375 -0.175781 2.410156 -0.152344 L 2.410156 0 L 0.09375 0 Z "/>
</g>
<g id="glyph-0-5">
<path d="M 3.71875 -2.140625 L 2.753906 -4.433594 L 1.800781 -2.140625 Z M 0.121094 0 L 0.121094 -0.152344 C 0.335938 -0.175781 0.496094 -0.257812 0.605469 -0.394531 C 0.710938 -0.53125 0.894531 -0.910156 1.15625 -1.523438 L 2.894531 -5.609375 L 3.054688 -5.609375 L 5.128906 -0.886719 C 5.269531 -0.570312 5.378906 -0.378906 5.460938 -0.304688 C 5.542969 -0.230469 5.683594 -0.175781 5.878906 -0.152344 L 5.878906 0 L 3.757812 0 L 3.757812 -0.152344 C 4.003906 -0.171875 4.160156 -0.199219 4.230469 -0.230469 C 4.300781 -0.261719 4.335938 -0.335938 4.335938 -0.460938 C 4.335938 -0.5 4.324219 -0.574219 4.296875 -0.675781 C 4.269531 -0.777344 4.230469 -0.886719 4.183594 -1 L 3.835938 -1.800781 L 1.65625 -1.800781 C 1.4375 -1.257812 1.308594 -0.925781 1.265625 -0.804688 C 1.226562 -0.683594 1.203125 -0.585938 1.203125 -0.515625 C 1.203125 -0.375 1.261719 -0.277344 1.375 -0.222656 C 1.445312 -0.191406 1.578125 -0.167969 1.773438 -0.152344 L 1.773438 0 Z "/>
</g>
<g id="glyph-0-6">
<path d="M 2.070312 -3.835938 C 2.410156 -3.835938 2.703125 -3.75 2.949219 -3.574219 C 3.195312 -3.398438 3.316406 -3.207031 3.316406 -3 C 3.316406 -2.910156 3.285156 -2.824219 3.222656 -2.75 C 3.160156 -2.671875 3.0625 -2.632812 2.933594 -2.632812 C 2.839844 -2.632812 2.753906 -2.664062 2.683594 -2.730469 C 2.613281 -2.796875 2.558594 -2.890625 2.527344 -3.015625 L 2.476562 -3.210938 C 2.441406 -3.355469 2.382812 -3.457031 2.292969 -3.515625 C 2.203125 -3.574219 2.085938 -3.601562 1.941406 -3.601562 C 1.632812 -3.601562 1.371094 -3.464844 1.15625 -3.195312 C 0.945312 -2.925781 0.839844 -2.566406 0.839844 -2.121094 C 0.839844 -1.710938 0.957031 -1.34375 1.191406 -1.015625 C 1.425781 -0.691406 1.742188 -0.527344 2.140625 -0.527344 C 2.421875 -0.527344 2.671875 -0.621094 2.894531 -0.804688 C 3.019531 -0.910156 3.160156 -1.078125 3.316406 -1.308594 L 3.429688 -1.242188 C 3.273438 -0.914062 3.113281 -0.65625 2.941406 -0.46875 C 2.613281 -0.105469 2.234375 0.078125 1.800781 0.078125 C 1.378906 0.078125 1.003906 -0.0898438 0.679688 -0.421875 C 0.355469 -0.757812 0.191406 -1.210938 0.191406 -1.78125 C 0.191406 -2.34375 0.367188 -2.828125 0.722656 -3.230469 C 1.078125 -3.636719 1.527344 -3.835938 2.070312 -3.835938 Z "/>
</g>
<g id="glyph-0-7">
<path d="M 2.121094 -3.75 L 2.121094 -3.457031 L 1.289062 -3.457031 L 1.28125 -1.113281 C 1.28125 -0.90625 1.300781 -0.753906 1.335938 -0.648438 C 1.398438 -0.460938 1.527344 -0.367188 1.71875 -0.367188 C 1.816406 -0.367188 1.898438 -0.390625 1.972656 -0.433594 C 2.042969 -0.480469 2.125 -0.554688 2.21875 -0.65625 L 2.324219 -0.566406 L 2.234375 -0.445312 C 2.09375 -0.253906 1.945312 -0.121094 1.785156 -0.0390625 C 1.628906 0.0390625 1.476562 0.078125 1.332031 0.078125 C 1.011719 0.078125 0.792969 -0.0664062 0.679688 -0.351562 C 0.617188 -0.503906 0.585938 -0.71875 0.585938 -0.992188 L 0.585938 -3.457031 L 0.140625 -3.457031 C 0.128906 -3.464844 0.117188 -3.476562 0.113281 -3.484375 C 0.105469 -3.492188 0.101562 -3.5 0.101562 -3.515625 C 0.101562 -3.542969 0.109375 -3.5625 0.121094 -3.578125 C 0.132812 -3.59375 0.171875 -3.628906 0.234375 -3.683594 C 0.421875 -3.835938 0.558594 -3.960938 0.640625 -4.058594 C 0.722656 -4.15625 0.917969 -4.410156 1.226562 -4.820312 C 1.261719 -4.820312 1.28125 -4.820312 1.289062 -4.8125 C 1.296875 -4.808594 1.296875 -4.789062 1.296875 -4.753906 L 1.296875 -3.75 Z "/>
</g>
<g id="glyph-0-8">
<path d="M 0.09375 -0.152344 C 0.398438 -0.183594 0.597656 -0.238281 0.691406 -0.316406 C 0.78125 -0.394531 0.824219 -0.589844 0.824219 -0.902344 L 0.824219 -4.609375 C 0.824219 -4.90625 0.78125 -5.097656 0.691406 -5.191406 C 0.601562 -5.28125 0.402344 -5.335938 0.09375 -5.359375 L 0.09375 -5.511719 L 2.449219 -5.511719 L 2.449219 -5.359375 C 2.144531 -5.34375 1.9375 -5.292969 1.832031 -5.207031 C 1.726562 -5.125 1.675781 -4.945312 1.675781 -4.667969 L 1.675781 -0.664062 C 1.675781 -0.570312 1.691406 -0.5 1.722656 -0.445312 C 1.753906 -0.390625 1.824219 -0.359375 1.929688 -0.347656 C 1.992188 -0.339844 2.058594 -0.332031 2.125 -0.328125 C 2.195312 -0.328125 2.324219 -0.324219 2.515625 -0.324219 C 3.253906 -0.324219 3.753906 -0.386719 4.015625 -0.507812 C 4.277344 -0.628906 4.527344 -0.941406 4.773438 -1.445312 L 4.984375 -1.445312 L 4.578125 0 L 0.09375 0 Z "/>
</g>
<g id="glyph-0-9">
<path d="M 0.210938 -1.886719 C 0.210938 -2.425781 0.382812 -2.882812 0.726562 -3.257812 C 1.070312 -3.628906 1.511719 -3.816406 2.050781 -3.816406 C 2.585938 -3.816406 3.03125 -3.640625 3.386719 -3.289062 C 3.738281 -2.933594 3.914062 -2.464844 3.914062 -1.878906 C 3.914062 -1.339844 3.742188 -0.871094 3.402344 -0.472656 C 3.058594 -0.0742188 2.617188 0.125 2.074219 0.125 C 1.554688 0.125 1.113281 -0.0664062 0.753906 -0.449219 C 0.390625 -0.832031 0.210938 -1.308594 0.210938 -1.886719 Z M 1.9375 -3.574219 C 1.722656 -3.574219 1.535156 -3.5 1.378906 -3.359375 C 1.109375 -3.113281 0.972656 -2.6875 0.972656 -2.082031 C 0.972656 -1.601562 1.082031 -1.148438 1.300781 -0.730469 C 1.519531 -0.3125 1.820312 -0.105469 2.210938 -0.105469 C 2.515625 -0.105469 2.746094 -0.246094 2.910156 -0.523438 C 3.074219 -0.804688 3.15625 -1.171875 3.15625 -1.625 C 3.15625 -2.09375 3.054688 -2.535156 2.84375 -2.949219 C 2.636719 -3.363281 2.332031 -3.574219 1.9375 -3.574219 Z "/>
</g>
<g id="glyph-0-10">
<path d="M 1.332031 -0.75 C 1.402344 -0.566406 1.507812 -0.425781 1.644531 -0.335938 C 1.785156 -0.246094 1.949219 -0.199219 2.140625 -0.199219 C 2.433594 -0.199219 2.683594 -0.34375 2.890625 -0.636719 C 3.097656 -0.929688 3.203125 -1.335938 3.203125 -1.855469 C 3.203125 -2.355469 3.09375 -2.726562 2.878906 -2.972656 C 2.664062 -3.21875 2.414062 -3.34375 2.128906 -3.34375 C 1.925781 -3.34375 1.746094 -3.28125 1.578125 -3.160156 C 1.414062 -3.035156 1.332031 -2.914062 1.332031 -2.796875 Z M 0.0351562 1.679688 C 0.292969 1.664062 0.453125 1.609375 0.523438 1.519531 C 0.59375 1.425781 0.625 1.28125 0.625 1.082031 L 0.625 -2.824219 C 0.625 -3.03125 0.601562 -3.164062 0.550781 -3.21875 C 0.5 -3.277344 0.40625 -3.308594 0.269531 -3.308594 C 0.238281 -3.308594 0.210938 -3.304688 0.183594 -3.304688 C 0.160156 -3.300781 0.121094 -3.296875 0.0742188 -3.289062 L 0.0742188 -3.421875 L 0.460938 -3.546875 C 0.472656 -3.550781 0.746094 -3.644531 1.277344 -3.828125 C 1.292969 -3.828125 1.300781 -3.824219 1.308594 -3.808594 C 1.316406 -3.796875 1.316406 -3.785156 1.316406 -3.769531 L 1.316406 -3.21875 C 1.496094 -3.398438 1.65625 -3.53125 1.789062 -3.617188 C 2.035156 -3.769531 2.285156 -3.84375 2.542969 -3.84375 C 2.917969 -3.84375 3.238281 -3.6875 3.507812 -3.367188 C 3.777344 -3.046875 3.914062 -2.613281 3.914062 -2.058594 C 3.914062 -1.515625 3.753906 -1.023438 3.429688 -0.582031 C 3.105469 -0.140625 2.695312 0.0820312 2.207031 0.0820312 C 2.054688 0.0820312 1.921875 0.0625 1.8125 0.0234375 C 1.636719 -0.03125 1.476562 -0.136719 1.332031 -0.289062 L 1.332031 1.042969 C 1.332031 1.316406 1.375 1.484375 1.464844 1.546875 C 1.554688 1.609375 1.75 1.652344 2.050781 1.671875 L 2.050781 1.816406 L 0.0351562 1.816406 Z "/>
</g>
</g>
<image id="source-8" x="0" y="0" width="0" height="0"/>
<mask id="mask-0">
<use xlink:href="#source-8"/>
</mask>
</defs>
<g fill="rgb(100%, 100%, 100%)" fill-opacity="1">
<use xlink:href="#glyph-0-0" x="30" y="26.25"/>
<use xlink:href="#glyph-0-1" x="35" y="26.25"/>
<use xlink:href="#glyph-0-2" x="39" y="26.25"/>
<use xlink:href="#glyph-0-3" x="43" y="26.25"/>
<use xlink:href="#glyph-0-4" x="45" y="26.25"/>
<use xlink:href="#glyph-0-2" x="51" y="26.25"/>
<use xlink:href="#glyph-0-5" x="55" y="26.25"/>
<use xlink:href="#glyph-0-6" x="61" y="26.25"/>
<use xlink:href="#glyph-0-7" x="65" y="26.25"/>
<use xlink:href="#glyph-0-3" x="67" y="26.25"/>
<use xlink:href="#glyph-0-8" x="69" y="26.25"/>
<use xlink:href="#glyph-0-9" x="74" y="26.25"/>
<use xlink:href="#glyph-0-9" x="78" y="26.25"/>
<use xlink:href="#glyph-0-10" x="82" y="26.25"/>
</g>
</svg>
