<?xml version="1.0" encoding="UTF-8"?>
<svg xmlns="http://www.w3.org/2000/svg" xmlns:xlink="http://www.w3.org/1999/xlink" width="1280" height="720" viewBox="0 0 1280 720">
<defs>
<g>
<g id="glyph-0-0">
<path d="M 0.046875 -1.496094 L 0.730469 -1.496094 L 0.730469 -1.445312 C 0.675781 -1.445312 0.636719 -1.4375 0.613281 -1.429688 C 0.5625 -1.417969 0.535156 -1.390625 0.535156 -1.347656 C 0.535156 -1.332031 0.539062 -1.316406 0.546875 -1.300781 C 0.550781 -1.285156 0.558594 -1.261719 0.574219 -1.230469 L 0.957031 -0.386719 L 1.261719 -1.238281 C 1.265625 -1.246094 1.269531 -1.265625 1.277344 -1.296875 C 1.285156 -1.328125 1.289062 -1.347656 1.289062 -1.355469 C 1.289062 -1.386719 1.277344 -1.40625 1.257812 -1.417969 C 1.238281 -1.433594 1.214844 -1.441406 1.183594 -1.441406 L 1.132812 -1.445312 L 1.132812 -1.496094 L 1.582031 -1.496094 L 1.582031 -1.445312 C 1.535156 -1.441406 1.503906 -1.425781 1.480469 -1.398438 C 1.457031 -1.375 1.4375 -1.339844 1.421875 -1.296875 L 0.910156 0.0625 C 0.820312 0.296875 0.734375 0.464844 0.652344 0.570312 C 0.570312 0.675781 0.46875 0.730469 0.34375 0.730469 C 0.285156 0.730469 0.226562 0.714844 0.175781 0.683594 C 0.121094 0.652344 0.09375 0.605469 0.09375 0.539062 C 0.09375 0.496094 0.109375 0.460938 0.140625 0.433594 C 0.171875 0.40625 0.214844 0.390625 0.261719 0.390625 C 0.292969 0.390625 0.332031 0.402344 0.390625 0.421875 C 0.445312 0.441406 0.484375 0.453125 0.507812 0.453125 C 0.570312 0.453125 0.632812 0.382812 0.703125 0.242188 C 0.769531 0.101562 0.800781 0.00390625 0.800781 -0.0429688 C 0.800781 -0.0507812 0.800781 -0.0625 0.796875 -0.078125 C 0.792969 -0.09375 0.789062 -0.105469 0.785156 -0.117188 L 0.265625 -1.242188 C 0.226562 -1.320312 0.195312 -1.375 0.167969 -1.402344 C 0.140625 -1.425781 0.101562 -1.441406 0.046875 -1.449219 Z "/>
</g>
<g id="glyph-0-1">
<path d="M 0.0859375 -0.753906 C 0.0859375 -0.96875 0.152344 -1.152344 0.289062 -1.304688 C 0.425781 -1.453125 0.605469 -1.527344 0.820312 -1.527344 C 1.035156 -1.527344 1.214844 -1.457031 1.355469 -1.316406 C 1.496094 -1.175781 1.566406 -0.984375 1.566406 -0.75 C 1.566406 -0.535156 1.496094 -0.347656 1.359375 -0.1875 C 1.222656 -0.0273438 1.046875 0.0507812 0.828125 0.0507812 C 0.621094 0.0507812 0.445312 -0.0273438 0.300781 -0.179688 C 0.15625 -0.332031 0.0859375 -0.523438 0.0859375 -0.753906 Z M 0.773438 -1.429688 C 0.6875 -1.429688 0.613281 -1.402344 0.550781 -1.34375 C 0.441406 -1.246094 0.390625 -1.074219 0.390625 -0.832031 C 0.390625 -0.640625 0.433594 -0.460938 0.519531 -0.292969 C 0.605469 -0.125 0.730469 -0.0429688 0.882812 -0.0429688 C 1.003906 -0.0429688 1.097656 -0.0976562 1.164062 -0.210938 C 1.230469 -0.320312 1.261719 -0.46875 1.261719 -0.648438 C 1.261719 -0.835938 1.222656 -1.015625 1.136719 -1.179688 C 1.054688 -1.347656 0.933594 -1.429688 0.773438 -1.429688 Z "/>
</g>
<g id="glyph-0-2">
<path d="M 0.515625 -1.507812 L 0.515625 -0.464844 C 0.515625 -0.390625 0.527344 -0.332031 0.546875 -0.289062 C 0.585938 -0.207031 0.660156 -0.164062 0.769531 -0.164062 C 0.84375 -0.164062 0.914062 -0.1875 0.984375 -0.238281 C 1.023438 -0.265625 1.066406 -0.300781 1.105469 -0.351562 L 1.105469 -1.242188 C 1.105469 -1.324219 1.089844 -1.378906 1.058594 -1.40625 C 1.027344 -1.433594 0.960938 -1.449219 0.863281 -1.453125 L 0.863281 -1.507812 L 1.386719 -1.507812 L 1.386719 -0.359375 C 1.386719 -0.285156 1.402344 -0.238281 1.429688 -0.210938 C 1.457031 -0.183594 1.511719 -0.167969 1.597656 -0.171875 L 1.597656 -0.125 C 1.539062 -0.109375 1.492188 -0.0976562 1.464844 -0.0898438 C 1.4375 -0.0820312 1.390625 -0.0664062 1.324219 -0.046875 C 1.296875 -0.0351562 1.234375 -0.0117188 1.136719 0.0234375 C 1.132812 0.0234375 1.128906 0.0234375 1.128906 0.015625 C 1.128906 0.0117188 1.125 0.0078125 1.125 0 L 1.125 -0.261719 C 1.050781 -0.175781 0.984375 -0.109375 0.925781 -0.0664062 C 0.832031 0 0.734375 0.03125 0.632812 0.03125 C 0.539062 0.03125 0.449219 -0.00390625 0.363281 -0.0703125 C 0.28125 -0.136719 0.238281 -0.246094 0.238281 -0.402344 L 0.238281 -1.25 C 0.238281 -1.335938 0.21875 -1.394531 0.183594 -1.421875 C 0.160156 -1.441406 0.105469 -1.453125 0.0273438 -1.460938 L 0.0273438 -1.507812 Z "/>
</g>
<g id="glyph-0-3">
<rect x="0" y="0" width="0" height="0" mask="url(#mask-0)"/>
</g>
<g id="glyph-0-4">
<path d="M 0.828125 -1.535156 C 0.964844 -1.535156 1.082031 -1.5 1.179688 -1.429688 C 1.277344 -1.359375 1.328125 -1.28125 1.328125 -1.199219 C 1.328125 -1.164062 1.3125 -1.128906 1.289062 -1.097656 C 1.265625 -1.066406 1.226562 -1.054688 1.171875 -1.054688 C 1.136719 -1.054688 1.101562 -1.066406 1.074219 -1.09375 C 1.042969 -1.117188 1.023438 -1.15625 1.011719 -1.207031 L 0.992188 -1.285156 C 0.976562 -1.34375 0.953125 -1.382812 0.917969 -1.40625 C 0.882812 -1.429688 0.835938 -1.441406 0.777344 -1.441406 C 0.652344 -1.441406 0.546875 -1.386719 0.464844 -1.277344 C 0.378906 -1.171875 0.335938 -1.027344 0.335938 -0.847656 C 0.335938 -0.683594 0.382812 -0.535156 0.476562 -0.40625 C 0.570312 -0.277344 0.695312 -0.210938 0.855469 -0.210938 C 0.96875 -0.210938 1.070312 -0.25 1.15625 -0.320312 C 1.207031 -0.363281 1.261719 -0.433594 1.328125 -0.523438 L 1.371094 -0.496094 C 1.308594 -0.367188 1.246094 -0.261719 1.175781 -0.1875 C 1.046875 -0.0429688 0.894531 0.03125 0.722656 0.03125 C 0.550781 0.03125 0.402344 -0.0351562 0.273438 -0.167969 C 0.140625 -0.300781 0.078125 -0.484375 0.078125 -0.710938 C 0.078125 -0.9375 0.148438 -1.128906 0.289062 -1.292969 C 0.429688 -1.453125 0.613281 -1.535156 0.828125 -1.535156 Z "/>
</g>
<g id="glyph-0-5">
<path d="M 0.957031 -0.902344 C 0.832031 -0.859375 0.726562 -0.816406 0.644531 -0.765625 C 0.488281 -0.667969 0.410156 -0.558594 0.410156 -0.4375 C 0.410156 -0.335938 0.445312 -0.265625 0.507812 -0.21875 C 0.550781 -0.1875 0.597656 -0.171875 0.652344 -0.171875 C 0.722656 -0.171875 0.792969 -0.191406 0.855469 -0.234375 C 0.921875 -0.273438 0.957031 -0.324219 0.957031 -0.386719 Z M 0.121094 -0.324219 C 0.121094 -0.480469 0.199219 -0.613281 0.359375 -0.71875 C 0.457031 -0.78125 0.65625 -0.871094 0.957031 -0.984375 L 0.957031 -1.121094 C 0.957031 -1.230469 0.945312 -1.308594 0.921875 -1.351562 C 0.886719 -1.425781 0.808594 -1.460938 0.691406 -1.460938 C 0.636719 -1.460938 0.585938 -1.449219 0.535156 -1.417969 C 0.484375 -1.390625 0.460938 -1.351562 0.460938 -1.296875 C 0.460938 -1.285156 0.464844 -1.265625 0.46875 -1.234375 C 0.472656 -1.203125 0.476562 -1.183594 0.476562 -1.171875 C 0.476562 -1.113281 0.457031 -1.070312 0.417969 -1.046875 C 0.394531 -1.03125 0.367188 -1.023438 0.335938 -1.023438 C 0.285156 -1.023438 0.25 -1.042969 0.222656 -1.074219 C 0.195312 -1.105469 0.183594 -1.140625 0.183594 -1.179688 C 0.183594 -1.253906 0.230469 -1.335938 0.324219 -1.417969 C 0.417969 -1.5 0.554688 -1.542969 0.738281 -1.542969 C 0.949219 -1.542969 1.089844 -1.472656 1.164062 -1.335938 C 1.203125 -1.261719 1.226562 -1.152344 1.226562 -1.011719 L 1.226562 -0.359375 C 1.226562 -0.296875 1.230469 -0.25 1.238281 -0.226562 C 1.253906 -0.183594 1.28125 -0.164062 1.328125 -0.164062 C 1.351562 -0.164062 1.371094 -0.167969 1.386719 -0.175781 C 1.402344 -0.183594 1.433594 -0.203125 1.472656 -0.230469 L 1.472656 -0.144531 C 1.4375 -0.101562 1.402344 -0.0703125 1.359375 -0.0429688 C 1.300781 0 1.238281 0.0195312 1.175781 0.0195312 C 1.101562 0.0195312 1.046875 -0.00390625 1.015625 -0.0507812 C 0.980469 -0.0976562 0.964844 -0.15625 0.960938 -0.222656 C 0.878906 -0.152344 0.808594 -0.0976562 0.75 -0.0625 C 0.648438 -0.00390625 0.554688 0.0234375 0.46875 0.0234375 C 0.375 0.0234375 0.292969 -0.0078125 0.222656 -0.0742188 C 0.15625 -0.140625 0.121094 -0.222656 0.121094 -0.324219 Z "/>
</g>
<g id="glyph-0-6">
<path d="M 0.0664062 -0.046875 C 0.167969 -0.0546875 0.238281 -0.0742188 0.273438 -0.105469 C 0.308594 -0.136719 0.328125 -0.199219 0.328125 -0.289062 L 0.328125 -1.878906 C 0.328125 -1.949219 0.320312 -2 0.308594 -2.027344 C 0.289062 -2.070312 0.242188 -2.09375 0.175781 -2.09375 C 0.160156 -2.09375 0.144531 -2.09375 0.128906 -2.089844 C 0.109375 -2.085938 0.0859375 -2.082031 0.0585938 -2.074219 L 0.0585938 -2.128906 C 0.207031 -2.167969 0.382812 -2.21875 0.589844 -2.285156 C 0.597656 -2.285156 0.601562 -2.28125 0.601562 -2.273438 C 0.605469 -2.269531 0.605469 -2.253906 0.605469 -2.234375 L 0.605469 -0.28125 C 0.605469 -0.1875 0.621094 -0.125 0.652344 -0.0976562 C 0.6875 -0.0703125 0.753906 -0.0546875 0.855469 -0.046875 L 0.855469 0 L 0.0664062 0 Z "/>
</g>
<g id="glyph-0-7">
<path d="M 0.328125 0.300781 C 0.328125 0.390625 0.378906 0.457031 0.480469 0.488281 C 0.582031 0.523438 0.699219 0.542969 0.832031 0.542969 C 1.011719 0.542969 1.160156 0.511719 1.273438 0.449219 C 1.386719 0.386719 1.441406 0.308594 1.441406 0.21875 C 1.441406 0.144531 1.394531 0.0976562 1.304688 0.0742188 C 1.25 0.0585938 1.140625 0.0507812 0.984375 0.046875 C 0.945312 0.046875 0.902344 0.046875 0.859375 0.0429688 C 0.8125 0.0429688 0.773438 0.0429688 0.734375 0.0390625 C 0.710938 0.0390625 0.671875 0.0351562 0.621094 0.0273438 C 0.566406 0.0195312 0.527344 0.0117188 0.5 0.0078125 C 0.488281 0.0078125 0.457031 0.0390625 0.40625 0.109375 C 0.351562 0.179688 0.328125 0.242188 0.328125 0.300781 Z M 0.539062 -0.546875 C 0.441406 -0.578125 0.363281 -0.636719 0.308594 -0.722656 C 0.253906 -0.804688 0.226562 -0.898438 0.226562 -1.003906 C 0.226562 -1.128906 0.277344 -1.25 0.378906 -1.363281 C 0.480469 -1.476562 0.621094 -1.535156 0.804688 -1.535156 C 0.882812 -1.535156 0.972656 -1.515625 1.066406 -1.480469 C 1.164062 -1.441406 1.253906 -1.421875 1.34375 -1.421875 C 1.367188 -1.421875 1.398438 -1.421875 1.445312 -1.425781 C 1.492188 -1.425781 1.527344 -1.425781 1.546875 -1.425781 L 1.566406 -1.425781 L 1.566406 -1.296875 L 1.285156 -1.296875 C 1.304688 -1.25 1.320312 -1.210938 1.328125 -1.175781 C 1.347656 -1.113281 1.355469 -1.054688 1.355469 -0.996094 C 1.355469 -0.875 1.304688 -0.761719 1.203125 -0.65625 C 1.101562 -0.554688 0.964844 -0.5 0.789062 -0.5 C 0.761719 -0.5 0.714844 -0.507812 0.644531 -0.515625 C 0.613281 -0.515625 0.570312 -0.488281 0.519531 -0.4375 C 0.46875 -0.382812 0.441406 -0.339844 0.441406 -0.304688 C 0.441406 -0.269531 0.480469 -0.246094 0.554688 -0.230469 C 0.605469 -0.21875 0.660156 -0.214844 0.722656 -0.214844 C 1 -0.214844 1.1875 -0.199219 1.289062 -0.164062 C 1.453125 -0.113281 1.535156 -0.00390625 1.535156 0.164062 C 1.535156 0.335938 1.4375 0.472656 1.246094 0.574219 C 1.054688 0.675781 0.863281 0.726562 0.667969 0.726562 C 0.488281 0.726562 0.347656 0.691406 0.242188 0.617188 C 0.140625 0.546875 0.0859375 0.46875 0.0859375 0.390625 C 0.0859375 0.351562 0.101562 0.3125 0.128906 0.277344 C 0.15625 0.238281 0.210938 0.183594 0.292969 0.109375 L 0.398438 0.0117188 L 0.417969 -0.0078125 C 0.371094 -0.0273438 0.332031 -0.046875 0.308594 -0.0625 C 0.265625 -0.0976562 0.242188 -0.136719 0.242188 -0.179688 C 0.242188 -0.21875 0.261719 -0.261719 0.296875 -0.3125 C 0.335938 -0.359375 0.417969 -0.4375 0.539062 -0.546875 Z M 0.847656 -0.578125 C 0.90625 -0.578125 0.957031 -0.59375 0.996094 -0.628906 C 1.0625 -0.679688 1.09375 -0.769531 1.09375 -0.898438 C 1.09375 -1.003906 1.070312 -1.117188 1.015625 -1.25 C 0.964844 -1.378906 0.875 -1.441406 0.753906 -1.441406 C 0.648438 -1.441406 0.574219 -1.390625 0.535156 -1.289062 C 0.511719 -1.238281 0.503906 -1.171875 0.503906 -1.09375 C 0.503906 -0.960938 0.535156 -0.84375 0.597656 -0.738281 C 0.664062 -0.632812 0.746094 -0.578125 0.847656 -0.578125 Z "/>
</g>
<g id="glyph-0-8">
<path d="M 0.015625 -0.0546875 C 0.113281 -0.0625 0.179688 -0.078125 0.214844 -0.105469 C 0.246094 -0.132812 0.261719 -0.191406 0.261719 -0.277344 L 0.261719 -1.011719 C 0.261719 -1.117188 0.253906 -1.195312 0.230469 -1.242188 C 0.210938 -1.289062 0.175781 -1.308594 0.121094 -1.308594 C 0.109375 -1.308594 0.0976562 -1.308594 0.078125 -1.304688 C 0.0625 -1.304688 0.0429688 -1.300781 0.0234375 -1.296875 L 0.0234375 -1.347656 C 0.0859375 -1.371094 0.148438 -1.394531 0.214844 -1.414062 C 0.277344 -1.4375 0.324219 -1.453125 0.347656 -1.464844 C 0.402344 -1.484375 0.457031 -1.507812 0.515625 -1.535156 C 0.523438 -1.535156 0.527344 -1.53125 0.53125 -1.527344 C 0.53125 -1.519531 0.53125 -1.507812 0.53125 -1.492188 L 0.53125 -1.226562 C 0.601562 -1.324219 0.667969 -1.398438 0.734375 -1.453125 C 0.796875 -1.507812 0.863281 -1.53125 0.933594 -1.53125 C 0.988281 -1.53125 1.035156 -1.515625 1.070312 -1.484375 C 1.105469 -1.449219 1.121094 -1.410156 1.121094 -1.359375 C 1.121094 -1.316406 1.109375 -1.277344 1.082031 -1.246094 C 1.054688 -1.214844 1.023438 -1.199219 0.980469 -1.199219 C 0.941406 -1.199219 0.898438 -1.21875 0.855469 -1.257812 C 0.816406 -1.296875 0.78125 -1.316406 0.757812 -1.316406 C 0.71875 -1.316406 0.671875 -1.285156 0.617188 -1.222656 C 0.5625 -1.160156 0.535156 -1.097656 0.535156 -1.035156 L 0.535156 -0.300781 C 0.535156 -0.207031 0.558594 -0.140625 0.601562 -0.105469 C 0.644531 -0.0703125 0.714844 -0.0507812 0.816406 -0.0546875 L 0.816406 0 L 0.015625 0 Z "/>
</g>
<g id="glyph-0-9">
<path d="M 0.761719 -1.527344 C 0.914062 -1.527344 1.050781 -1.472656 1.164062 -1.367188 C 1.28125 -1.261719 1.335938 -1.113281 1.335938 -0.917969 L 0.304688 -0.917969 C 0.316406 -0.667969 0.371094 -0.484375 0.476562 -0.367188 C 0.578125 -0.253906 0.699219 -0.195312 0.839844 -0.195312 C 0.953125 -0.195312 1.050781 -0.226562 1.128906 -0.285156 C 1.207031 -0.34375 1.28125 -0.429688 1.347656 -0.539062 L 1.402344 -0.519531 C 1.359375 -0.382812 1.273438 -0.253906 1.152344 -0.136719 C 1.03125 -0.0195312 0.882812 0.0390625 0.703125 0.0390625 C 0.5 0.0390625 0.34375 -0.0390625 0.230469 -0.191406 C 0.121094 -0.347656 0.0664062 -0.523438 0.0664062 -0.722656 C 0.0664062 -0.941406 0.128906 -1.128906 0.257812 -1.289062 C 0.386719 -1.449219 0.554688 -1.527344 0.761719 -1.527344 Z M 0.667969 -1.40625 C 0.542969 -1.40625 0.449219 -1.351562 0.386719 -1.242188 C 0.351562 -1.183594 0.324219 -1.109375 0.3125 -1.023438 L 0.996094 -1.023438 C 0.984375 -1.132812 0.964844 -1.210938 0.9375 -1.265625 C 0.882812 -1.359375 0.792969 -1.40625 0.667969 -1.40625 Z "/>
</g>
<g id="glyph-0-10">
<path d="M 0.847656 -1.5 L 0.847656 -1.382812 L 0.515625 -1.382812 L 0.511719 -0.445312 C 0.511719 -0.363281 0.519531 -0.300781 0.535156 -0.257812 C 0.558594 -0.183594 0.609375 -0.144531 0.6875 -0.144531 C 0.726562 -0.144531 0.757812 -0.15625 0.789062 -0.175781 C 0.816406 -0.191406 0.851562 -0.222656 0.886719 -0.261719 L 0.929688 -0.226562 L 0.894531 -0.175781 C 0.835938 -0.101562 0.777344 -0.046875 0.714844 -0.015625 C 0.652344 0.015625 0.589844 0.03125 0.53125 0.03125 C 0.402344 0.03125 0.316406 -0.0273438 0.273438 -0.140625 C 0.246094 -0.203125 0.234375 -0.289062 0.234375 -0.398438 L 0.234375 -1.382812 L 0.0585938 -1.382812 C 0.0507812 -1.386719 0.046875 -1.390625 0.0429688 -1.394531 C 0.0429688 -1.398438 0.0390625 -1.402344 0.0390625 -1.40625 C 0.0390625 -1.417969 0.0429688 -1.425781 0.046875 -1.429688 C 0.0507812 -1.4375 0.0664062 -1.449219 0.09375 -1.472656 C 0.167969 -1.535156 0.222656 -1.585938 0.257812 -1.625 C 0.289062 -1.664062 0.367188 -1.761719 0.488281 -1.929688 C 0.503906 -1.929688 0.511719 -1.925781 0.515625 -1.925781 C 0.519531 -1.921875 0.519531 -1.914062 0.519531 -1.902344 L 0.519531 -1.5 Z "/>
</g>
<g id="glyph-0-11">
<path d="M 0.152344 -0.835938 C 0.152344 -1.214844 0.265625 -1.546875 0.492188 -1.832031 C 0.628906 -2.007812 0.792969 -2.144531 0.984375 -2.253906 L 1.015625 -2.199219 C 0.839844 -2.058594 0.714844 -1.925781 0.640625 -1.792969 C 0.507812 -1.5625 0.441406 -1.257812 0.441406 -0.878906 C 0.441406 -0.597656 0.46875 -0.363281 0.515625 -0.179688 C 0.605469 0.140625 0.769531 0.378906 1.015625 0.539062 L 0.972656 0.59375 C 0.839844 0.53125 0.695312 0.40625 0.539062 0.21875 C 0.28125 -0.0898438 0.152344 -0.441406 0.152344 -0.835938 Z "/>
</g>
<g id="glyph-0-12">
<path d="M 0.949219 -0.820312 C 0.949219 -0.660156 0.925781 -0.503906 0.886719 -0.359375 C 0.84375 -0.214844 0.78125 -0.0820312 0.699219 0.046875 C 0.613281 0.183594 0.5 0.3125 0.355469 0.429688 C 0.261719 0.507812 0.183594 0.5625 0.117188 0.59375 L 0.0859375 0.539062 C 0.253906 0.414062 0.378906 0.285156 0.453125 0.152344 C 0.589844 -0.0820312 0.660156 -0.394531 0.660156 -0.777344 C 0.660156 -1.089844 0.628906 -1.34375 0.566406 -1.542969 C 0.476562 -1.820312 0.316406 -2.039062 0.0859375 -2.199219 L 0.128906 -2.253906 C 0.300781 -2.15625 0.460938 -2.011719 0.609375 -1.820312 C 0.835938 -1.523438 0.949219 -1.1875 0.949219 -0.820312 Z "/>
</g>
</g>
<image id="source-217" x="0" y="0" width="0" height="0"/>
<mask id="mask-0">
<use xlink:href="#source-217"/>
</mask>
</defs>
<g fill="rgb(73.333333%, 73.333333%, 73.333333%)" fill-opacity="1">
<use xlink:href="#glyph-0-0" x="30" y="22.5"/>
<use xlink:href="#glyph-0-1" x="32" y="22.5"/>
<use xlink:href="#glyph-0-2" x="34" y="22.5"/>
<use xlink:href="#glyph-0-3" x="36" y="22.5"/>
<use xlink:href="#glyph-0-4" x="37" y="22.5"/>
<use xlink:href="#glyph-0-5" x="38" y="22.5"/>
<use xlink:href="#glyph-0-6" x="39" y="22.5"/>
<use xlink:href="#glyph-0-6" x="40" y="22.5"/>
<use xlink:href="#glyph-0-3" x="41" y="22.5"/>
<use xlink:href="#glyph-0-7" x="42" y="22.5"/>
<use xlink:href="#glyph-0-8" x="44" y="22.5"/>
<use xlink:href="#glyph-0-9" x="45" y="22.5"/>
<use xlink:href="#glyph-0-9" x="46" y="22.5"/>
<use xlink:href="#glyph-0-10" x="47" y="22.5"/>
<use xlink:href="#glyph-0-11" x="48" y="22.5"/>
<use xlink:href="#glyph-0-12" x="49" y="22.5"/>
</g>
</svg>
