<?xml version="1.0" encoding="UTF-8"?>
<svg xmlns="http://www.w3.org/2000/svg" xmlns:xlink="http://www.w3.org/1999/xlink" width="1280" height="720" viewBox="0 0 1280 720">
<defs>
<g>
<g id="glyph-0-0">
<path d="M 3.675781 -2.746094 C 3.675781 -2.851562 3.652344 -2.933594 3.609375 -2.992188 C 3.5625 -3.046875 3.492188 -3.078125 3.394531 -3.078125 C 3.175781 -3.078125 2.980469 -2.882812 2.808594 -2.496094 C 2.636719 -2.109375 2.550781 -1.816406 2.550781 -1.617188 C 2.550781 -1.515625 2.570312 -1.425781 2.617188 -1.347656 C 2.664062 -1.265625 2.738281 -1.226562 2.847656 -1.226562 C 3.089844 -1.226562 3.289062 -1.4375 3.441406 -1.855469 C 3.597656 -2.273438 3.675781 -2.570312 3.675781 -2.746094 Z M 5.011719 -0.453125 C 4.6875 -0.246094 4.367188 -0.0976562 4.054688 -0.00390625 C 3.742188 0.0859375 3.4375 0.132812 3.136719 0.132812 C 2.410156 0.132812 1.800781 -0.0820312 1.304688 -0.511719 C 0.808594 -0.9375 0.5625 -1.457031 0.5625 -2.074219 C 0.5625 -2.773438 0.84375 -3.375 1.410156 -3.875 C 1.964844 -4.363281 2.621094 -4.605469 3.378906 -4.605469 C 3.980469 -4.605469 4.496094 -4.445312 4.914062 -4.121094 C 5.378906 -3.765625 5.609375 -3.289062 5.609375 -2.695312 C 5.609375 -2.222656 5.457031 -1.808594 5.148438 -1.453125 C 4.84375 -1.097656 4.519531 -0.917969 4.179688 -0.917969 C 3.933594 -0.917969 3.746094 -0.988281 3.625 -1.128906 C 3.550781 -1.21875 3.507812 -1.320312 3.503906 -1.425781 C 3.386719 -1.234375 3.261719 -1.101562 3.128906 -1.027344 C 3 -0.953125 2.855469 -0.917969 2.699219 -0.917969 C 2.449219 -0.917969 2.238281 -1.011719 2.070312 -1.195312 C 1.898438 -1.378906 1.8125 -1.609375 1.8125 -1.882812 C 1.8125 -2.246094 1.957031 -2.585938 2.246094 -2.90625 C 2.535156 -3.226562 2.859375 -3.386719 3.214844 -3.386719 C 3.316406 -3.386719 3.410156 -3.371094 3.496094 -3.335938 C 3.660156 -3.277344 3.777344 -3.164062 3.847656 -3 L 3.941406 -3.292969 L 4.660156 -3.292969 C 4.636719 -3.238281 4.542969 -2.953125 4.382812 -2.429688 C 4.203125 -1.84375 4.113281 -1.519531 4.113281 -1.453125 C 4.113281 -1.367188 4.152344 -1.304688 4.230469 -1.261719 C 4.277344 -1.238281 4.320312 -1.222656 4.363281 -1.222656 C 4.558594 -1.222656 4.765625 -1.371094 4.980469 -1.660156 C 5.199219 -1.949219 5.304688 -2.292969 5.304688 -2.6875 C 5.304688 -3.191406 5.125 -3.578125 4.757812 -3.859375 C 4.394531 -4.136719 3.972656 -4.273438 3.492188 -4.273438 C 2.792969 -4.273438 2.210938 -4.03125 1.753906 -3.546875 C 1.34375 -3.113281 1.140625 -2.628906 1.140625 -2.097656 C 1.140625 -1.453125 1.363281 -0.957031 1.808594 -0.609375 C 2.1875 -0.308594 2.65625 -0.160156 3.210938 -0.160156 C 3.4375 -0.160156 3.652344 -0.183594 3.847656 -0.230469 C 4.046875 -0.277344 4.214844 -0.328125 4.351562 -0.386719 C 4.425781 -0.417969 4.484375 -0.445312 4.523438 -0.472656 C 4.625 -0.523438 4.742188 -0.59375 4.867188 -0.675781 Z "/>
</g>
</g>
</defs>
<g fill="rgb(100%, 100%, 100%)" fill-opacity="1">
<use xlink:href="#glyph-0-0" x="30" y="25"/>
</g>
</svg>
