<?xml version="1.0" encoding="UTF-8"?>
<svg xmlns="http://www.w3.org/2000/svg" xmlns:xlink="http://www.w3.org/1999/xlink" width="1280" height="720" viewBox="0 0 1280 720">
<defs>
<g>
<g id="glyph-0-0">
<path d="M 1.335938 -2.429688 C 1.476562 -2.429688 1.613281 -2.410156 1.75 -2.371094 C 1.882812 -2.332031 1.960938 -2.316406 1.980469 -2.316406 C 2.03125 -2.316406 2.070312 -2.324219 2.089844 -2.34375 C 2.113281 -2.363281 2.132812 -2.394531 2.148438 -2.429688 L 2.226562 -2.429688 L 2.253906 -1.671875 L 2.171875 -1.671875 C 2.097656 -1.847656 2.019531 -1.976562 1.941406 -2.0625 C 1.800781 -2.214844 1.617188 -2.289062 1.386719 -2.289062 C 1.15625 -2.289062 0.953125 -2.199219 0.777344 -2.023438 C 0.601562 -1.847656 0.511719 -1.558594 0.511719 -1.15625 C 0.511719 -0.824219 0.601562 -0.5625 0.777344 -0.378906 C 0.953125 -0.191406 1.167969 -0.0976562 1.425781 -0.0976562 C 1.46875 -0.0976562 1.519531 -0.101562 1.578125 -0.109375 C 1.636719 -0.117188 1.691406 -0.128906 1.746094 -0.148438 C 1.832031 -0.175781 1.882812 -0.199219 1.90625 -0.222656 C 1.925781 -0.242188 1.9375 -0.273438 1.9375 -0.3125 L 1.9375 -0.886719 C 1.9375 -1.027344 1.917969 -1.113281 1.878906 -1.148438 C 1.839844 -1.183594 1.753906 -1.203125 1.621094 -1.210938 L 1.621094 -1.277344 L 2.539062 -1.277344 L 2.539062 -1.210938 C 2.449219 -1.207031 2.390625 -1.191406 2.363281 -1.167969 C 2.3125 -1.128906 2.289062 -1.050781 2.289062 -0.933594 L 2.289062 -0.222656 C 2.289062 -0.179688 2.183594 -0.125 1.976562 -0.0546875 C 1.769531 0.015625 1.570312 0.0507812 1.378906 0.0507812 C 1.027344 0.0507812 0.730469 -0.0507812 0.488281 -0.257812 C 0.21875 -0.484375 0.0859375 -0.789062 0.0859375 -1.171875 C 0.0859375 -1.507812 0.191406 -1.792969 0.40625 -2.035156 C 0.640625 -2.300781 0.949219 -2.429688 1.335938 -2.429688 Z "/>
</g>
<g id="glyph-0-1">
<path d="M 0.0898438 -0.816406 C 0.0898438 -1.050781 0.164062 -1.25 0.316406 -1.410156 C 0.464844 -1.574219 0.65625 -1.652344 0.886719 -1.652344 C 1.121094 -1.652344 1.3125 -1.578125 1.464844 -1.425781 C 1.617188 -1.273438 1.695312 -1.066406 1.695312 -0.8125 C 1.695312 -0.578125 1.621094 -0.378906 1.472656 -0.203125 C 1.324219 -0.03125 1.132812 0.0546875 0.898438 0.0546875 C 0.671875 0.0546875 0.484375 -0.0273438 0.324219 -0.195312 C 0.167969 -0.359375 0.0898438 -0.566406 0.0898438 -0.816406 Z M 0.839844 -1.546875 C 0.746094 -1.546875 0.664062 -1.515625 0.597656 -1.457031 C 0.480469 -1.347656 0.421875 -1.164062 0.421875 -0.902344 C 0.421875 -0.691406 0.46875 -0.5 0.5625 -0.316406 C 0.65625 -0.136719 0.789062 -0.046875 0.957031 -0.046875 C 1.089844 -0.046875 1.191406 -0.105469 1.261719 -0.226562 C 1.332031 -0.347656 1.367188 -0.507812 1.367188 -0.703125 C 1.367188 -0.90625 1.324219 -1.097656 1.230469 -1.277344 C 1.140625 -1.457031 1.011719 -1.546875 0.839844 -1.546875 Z "/>
</g>
<g id="glyph-0-2">
<path d="M 0.355469 0.324219 C 0.355469 0.425781 0.410156 0.492188 0.519531 0.53125 C 0.632812 0.570312 0.757812 0.585938 0.902344 0.585938 C 1.097656 0.585938 1.257812 0.554688 1.378906 0.484375 C 1.5 0.417969 1.5625 0.335938 1.5625 0.234375 C 1.5625 0.15625 1.511719 0.105469 1.414062 0.078125 C 1.351562 0.0625 1.238281 0.0546875 1.066406 0.0546875 C 1.023438 0.0507812 0.976562 0.0507812 0.929688 0.046875 C 0.882812 0.046875 0.835938 0.0429688 0.796875 0.0429688 C 0.769531 0.0429688 0.730469 0.0351562 0.671875 0.0273438 C 0.613281 0.0195312 0.570312 0.0117188 0.542969 0.0078125 C 0.527344 0.0078125 0.496094 0.0429688 0.4375 0.117188 C 0.382812 0.191406 0.355469 0.261719 0.355469 0.324219 Z M 0.582031 -0.59375 C 0.476562 -0.628906 0.394531 -0.691406 0.335938 -0.78125 C 0.273438 -0.871094 0.246094 -0.972656 0.246094 -1.085938 C 0.246094 -1.222656 0.300781 -1.355469 0.410156 -1.476562 C 0.519531 -1.601562 0.671875 -1.664062 0.871094 -1.664062 C 0.957031 -1.664062 1.054688 -1.640625 1.15625 -1.601562 C 1.261719 -1.5625 1.359375 -1.539062 1.453125 -1.539062 C 1.480469 -1.539062 1.515625 -1.542969 1.566406 -1.542969 C 1.617188 -1.546875 1.652344 -1.546875 1.675781 -1.546875 L 1.695312 -1.546875 L 1.695312 -1.402344 L 1.390625 -1.402344 C 1.410156 -1.355469 1.429688 -1.3125 1.441406 -1.273438 C 1.460938 -1.207031 1.46875 -1.140625 1.46875 -1.082031 C 1.46875 -0.945312 1.414062 -0.824219 1.304688 -0.710938 C 1.191406 -0.597656 1.042969 -0.542969 0.855469 -0.542969 C 0.824219 -0.542969 0.773438 -0.546875 0.695312 -0.558594 C 0.660156 -0.558594 0.617188 -0.53125 0.5625 -0.472656 C 0.507812 -0.414062 0.476562 -0.367188 0.476562 -0.332031 C 0.476562 -0.292969 0.519531 -0.265625 0.601562 -0.25 C 0.65625 -0.238281 0.714844 -0.230469 0.78125 -0.230469 C 1.082031 -0.230469 1.289062 -0.214844 1.394531 -0.179688 C 1.574219 -0.125 1.664062 -0.0078125 1.664062 0.175781 C 1.664062 0.363281 1.558594 0.511719 1.351562 0.621094 C 1.144531 0.730469 0.933594 0.785156 0.722656 0.785156 C 0.53125 0.785156 0.378906 0.746094 0.265625 0.667969 C 0.152344 0.589844 0.09375 0.507812 0.09375 0.421875 C 0.09375 0.378906 0.109375 0.339844 0.140625 0.296875 C 0.171875 0.257812 0.230469 0.199219 0.316406 0.117188 L 0.433594 0.015625 L 0.453125 -0.0078125 C 0.398438 -0.0273438 0.359375 -0.046875 0.332031 -0.0703125 C 0.285156 -0.105469 0.261719 -0.148438 0.261719 -0.195312 C 0.261719 -0.238281 0.28125 -0.285156 0.324219 -0.335938 C 0.363281 -0.390625 0.449219 -0.476562 0.582031 -0.59375 Z M 0.917969 -0.628906 C 0.984375 -0.628906 1.039062 -0.644531 1.082031 -0.679688 C 1.152344 -0.738281 1.1875 -0.835938 1.1875 -0.976562 C 1.1875 -1.085938 1.15625 -1.210938 1.101562 -1.351562 C 1.042969 -1.492188 0.949219 -1.5625 0.816406 -1.5625 C 0.699219 -1.5625 0.621094 -1.507812 0.578125 -1.398438 C 0.554688 -1.339844 0.542969 -1.269531 0.542969 -1.183594 C 0.542969 -1.039062 0.578125 -0.914062 0.648438 -0.796875 C 0.71875 -0.683594 0.808594 -0.628906 0.917969 -0.628906 Z "/>
</g>
<g id="glyph-0-3">
<path d="M 0.0742188 -0.0507812 C 0.183594 -0.0585938 0.257812 -0.0820312 0.296875 -0.117188 C 0.335938 -0.148438 0.355469 -0.214844 0.355469 -0.3125 L 0.355469 -2.035156 C 0.355469 -2.113281 0.347656 -2.164062 0.335938 -2.195312 C 0.3125 -2.246094 0.265625 -2.269531 0.191406 -2.269531 C 0.175781 -2.269531 0.15625 -2.265625 0.136719 -2.261719 C 0.117188 -2.257812 0.09375 -2.253906 0.0664062 -2.246094 L 0.0664062 -2.304688 C 0.222656 -2.347656 0.414062 -2.40625 0.636719 -2.476562 C 0.644531 -2.476562 0.652344 -2.472656 0.652344 -2.464844 C 0.65625 -2.457031 0.65625 -2.441406 0.65625 -2.417969 L 0.65625 -0.304688 C 0.65625 -0.203125 0.671875 -0.136719 0.707031 -0.105469 C 0.742188 -0.078125 0.816406 -0.0585938 0.925781 -0.0507812 L 0.925781 0 L 0.0742188 0 Z "/>
</g>
<g id="glyph-0-4">
<path d="M 0.828125 -1.652344 C 0.992188 -1.652344 1.136719 -1.597656 1.261719 -1.480469 C 1.386719 -1.367188 1.449219 -1.203125 1.449219 -0.996094 L 0.328125 -0.996094 C 0.339844 -0.722656 0.402344 -0.523438 0.515625 -0.398438 C 0.625 -0.273438 0.757812 -0.210938 0.910156 -0.210938 C 1.035156 -0.210938 1.140625 -0.242188 1.222656 -0.308594 C 1.308594 -0.375 1.386719 -0.464844 1.457031 -0.582031 L 1.519531 -0.5625 C 1.472656 -0.414062 1.382812 -0.273438 1.25 -0.148438 C 1.117188 -0.0195312 0.953125 0.0429688 0.761719 0.0429688 C 0.542969 0.0429688 0.371094 -0.0429688 0.25 -0.207031 C 0.128906 -0.375 0.0703125 -0.566406 0.0703125 -0.785156 C 0.0703125 -1.019531 0.140625 -1.222656 0.28125 -1.394531 C 0.421875 -1.566406 0.601562 -1.652344 0.828125 -1.652344 Z M 0.722656 -1.523438 C 0.589844 -1.523438 0.488281 -1.464844 0.417969 -1.347656 C 0.378906 -1.285156 0.351562 -1.203125 0.335938 -1.105469 L 1.082031 -1.105469 C 1.066406 -1.222656 1.046875 -1.3125 1.011719 -1.371094 C 0.957031 -1.472656 0.859375 -1.523438 0.722656 -1.523438 Z "/>
</g>
<g id="glyph-0-5">
<rect x="0" y="0" width="0" height="0" mask="url(#mask-0)"/>
</g>
<g id="glyph-0-6">
<path d="M 1.609375 -0.925781 L 1.195312 -1.921875 L 0.78125 -0.925781 Z M 0.0546875 0 L 0.0546875 -0.0664062 C 0.144531 -0.078125 0.214844 -0.109375 0.261719 -0.171875 C 0.308594 -0.230469 0.386719 -0.394531 0.5 -0.660156 L 1.253906 -2.429688 L 1.324219 -2.429688 L 2.222656 -0.382812 C 2.28125 -0.246094 2.332031 -0.164062 2.367188 -0.132812 C 2.402344 -0.0976562 2.460938 -0.078125 2.546875 -0.0664062 L 2.546875 0 L 1.628906 0 L 1.628906 -0.0664062 C 1.734375 -0.0742188 1.804688 -0.0859375 1.832031 -0.0976562 C 1.863281 -0.113281 1.878906 -0.144531 1.878906 -0.199219 C 1.878906 -0.21875 1.875 -0.246094 1.863281 -0.292969 C 1.851562 -0.335938 1.832031 -0.382812 1.8125 -0.433594 L 1.664062 -0.78125 L 0.71875 -0.78125 C 0.625 -0.542969 0.566406 -0.402344 0.550781 -0.347656 C 0.53125 -0.296875 0.523438 -0.253906 0.523438 -0.222656 C 0.523438 -0.164062 0.546875 -0.121094 0.597656 -0.0976562 C 0.628906 -0.0820312 0.683594 -0.0742188 0.769531 -0.0664062 L 0.769531 0 Z "/>
</g>
<g id="glyph-0-7">
<path d="M 0.742188 -0.277344 C 0.742188 -0.21875 0.757812 -0.179688 0.785156 -0.164062 C 0.8125 -0.144531 0.875 -0.132812 0.964844 -0.132812 C 1.246094 -0.132812 1.476562 -0.191406 1.660156 -0.300781 C 1.941406 -0.472656 2.082031 -0.765625 2.082031 -1.179688 C 2.082031 -1.550781 1.964844 -1.828125 1.734375 -2.015625 C 1.539062 -2.175781 1.277344 -2.257812 0.949219 -2.257812 C 0.867188 -2.257812 0.8125 -2.246094 0.785156 -2.230469 C 0.757812 -2.210938 0.742188 -2.171875 0.742188 -2.113281 Z M 0.0585938 -0.0664062 C 0.191406 -0.078125 0.277344 -0.101562 0.316406 -0.136719 C 0.355469 -0.171875 0.375 -0.253906 0.375 -0.390625 L 0.375 -1.996094 C 0.375 -2.128906 0.355469 -2.214844 0.316406 -2.25 C 0.277344 -2.289062 0.191406 -2.3125 0.0585938 -2.320312 L 0.0585938 -2.390625 L 1.03125 -2.390625 C 1.359375 -2.390625 1.636719 -2.335938 1.863281 -2.226562 C 2.273438 -2.03125 2.476562 -1.6875 2.476562 -1.1875 C 2.476562 -1.007812 2.441406 -0.835938 2.367188 -0.671875 C 2.292969 -0.511719 2.183594 -0.375 2.035156 -0.261719 C 1.941406 -0.191406 1.84375 -0.140625 1.742188 -0.101562 C 1.558594 -0.0351562 1.332031 0 1.0625 0 L 0.0585938 0 Z "/>
</g>
<g id="glyph-0-8">
<path d="M 0.0664062 -0.0664062 C 0.210938 -0.078125 0.304688 -0.101562 0.339844 -0.144531 C 0.375 -0.183594 0.390625 -0.28125 0.390625 -0.433594 L 0.390625 -1.996094 C 0.390625 -2.128906 0.371094 -2.210938 0.332031 -2.25 C 0.292969 -2.289062 0.203125 -2.3125 0.0664062 -2.320312 L 0.0664062 -2.390625 L 1.09375 -2.390625 L 1.09375 -2.320312 C 0.953125 -2.3125 0.863281 -2.292969 0.820312 -2.25 C 0.78125 -2.210938 0.761719 -2.125 0.761719 -1.996094 L 0.761719 -1.257812 C 0.984375 -1.445312 1.164062 -1.605469 1.304688 -1.738281 C 1.558594 -1.980469 1.683594 -2.136719 1.683594 -2.203125 C 1.683594 -2.25 1.660156 -2.285156 1.621094 -2.296875 C 1.578125 -2.3125 1.515625 -2.320312 1.4375 -2.320312 L 1.4375 -2.390625 L 2.382812 -2.390625 L 2.382812 -2.332031 C 2.265625 -2.320312 2.175781 -2.296875 2.109375 -2.261719 C 2.042969 -2.226562 1.949219 -2.152344 1.832031 -2.039062 L 1.148438 -1.367188 L 1.988281 -0.457031 C 2.144531 -0.289062 2.25 -0.183594 2.308594 -0.144531 C 2.363281 -0.101562 2.445312 -0.0742188 2.554688 -0.0625 L 2.554688 0 L 1.453125 0 L 1.453125 -0.0664062 C 1.550781 -0.0703125 1.621094 -0.078125 1.65625 -0.0898438 C 1.691406 -0.101562 1.707031 -0.125 1.707031 -0.164062 C 1.707031 -0.183594 1.695312 -0.210938 1.675781 -0.253906 C 1.652344 -0.296875 1.613281 -0.34375 1.566406 -0.398438 L 0.882812 -1.148438 L 0.761719 -1.042969 L 0.761719 -0.390625 C 0.761719 -0.257812 0.78125 -0.171875 0.820312 -0.136719 C 0.859375 -0.101562 0.949219 -0.078125 1.085938 -0.0664062 L 1.085938 0 L 0.0664062 0 Z "/>
</g>
</g>
<image id="source-74" x="0" y="0" width="0" height="0"/>
<mask id="mask-0">
<use xlink:href="#source-74"/>
</mask>
</defs>
<g fill="rgb(100%, 100%, 100%)" fill-opacity="1">
<use xlink:href="#glyph-0-0" x="30" y="22.708008"/>
<use xlink:href="#glyph-0-1" x="33" y="22.708008"/>
<use xlink:href="#glyph-0-1" x="35" y="22.708008"/>
<use xlink:href="#glyph-0-2" x="37" y="22.708008"/>
<use xlink:href="#glyph-0-3" x="39" y="22.708008"/>
<use xlink:href="#glyph-0-4" x="40" y="22.708008"/>
<use xlink:href="#glyph-0-5" x="42" y="22.708008"/>
<use xlink:href="#glyph-0-6" x="43" y="22.708008"/>
<use xlink:href="#glyph-0-7" x="46" y="22.708008"/>
<use xlink:href="#glyph-0-8" x="49" y="22.708008"/>
</g>
</svg>
