<?xml version="1.0" encoding="UTF-8"?>
<svg xmlns="http://www.w3.org/2000/svg" xmlns:xlink="http://www.w3.org/1999/xlink" width="1280" height="720" viewBox="0 0 1280 720">
<defs>
<g>
<g id="glyph-0-0">
<path d="M 0.0429688 -0.0703125 C 0.1875 -0.0859375 0.28125 -0.109375 0.320312 -0.148438 C 0.363281 -0.183594 0.386719 -0.273438 0.386719 -0.421875 L 0.386719 -2.152344 C 0.386719 -2.289062 0.363281 -2.378906 0.324219 -2.421875 C 0.28125 -2.464844 0.1875 -2.492188 0.0429688 -2.5 L 0.0429688 -2.574219 L 1.144531 -2.574219 L 1.144531 -2.5 C 1 -2.492188 0.90625 -2.46875 0.855469 -2.429688 C 0.808594 -2.390625 0.78125 -2.308594 0.78125 -2.179688 L 0.78125 -0.308594 C 0.78125 -0.265625 0.789062 -0.234375 0.804688 -0.207031 C 0.820312 -0.183594 0.851562 -0.167969 0.898438 -0.160156 C 0.929688 -0.15625 0.960938 -0.15625 0.992188 -0.152344 C 1.023438 -0.152344 1.085938 -0.152344 1.171875 -0.152344 C 1.519531 -0.152344 1.753906 -0.179688 1.875 -0.238281 C 1.996094 -0.292969 2.113281 -0.441406 2.226562 -0.675781 L 2.328125 -0.675781 L 2.136719 0 L 0.0429688 0 Z "/>
</g>
<g id="glyph-0-1">
<path d="M 0.117188 -0.0429688 C 0.578125 -0.523438 0.894531 -0.878906 1.058594 -1.101562 C 1.226562 -1.328125 1.308594 -1.546875 1.308594 -1.761719 C 1.308594 -1.949219 1.257812 -2.09375 1.15625 -2.191406 C 1.054688 -2.289062 0.933594 -2.339844 0.792969 -2.339844 C 0.621094 -2.339844 0.480469 -2.273438 0.371094 -2.148438 C 0.3125 -2.078125 0.253906 -1.972656 0.203125 -1.828125 L 0.121094 -1.84375 C 0.183594 -2.136719 0.289062 -2.335938 0.441406 -2.449219 C 0.59375 -2.5625 0.753906 -2.621094 0.929688 -2.621094 C 1.144531 -2.621094 1.316406 -2.554688 1.449219 -2.417969 C 1.582031 -2.285156 1.648438 -2.117188 1.648438 -1.925781 C 1.648438 -1.71875 1.574219 -1.515625 1.433594 -1.324219 C 1.289062 -1.132812 0.976562 -0.789062 0.5 -0.296875 L 1.371094 -0.296875 C 1.492188 -0.296875 1.578125 -0.3125 1.628906 -0.339844 C 1.675781 -0.367188 1.734375 -0.441406 1.792969 -0.550781 L 1.84375 -0.53125 L 1.632812 0 L 0.117188 0 Z "/>
</g>
<g id="glyph-0-2">
<path d="M 1.132812 -2.21875 L 0.203125 -0.898438 L 1.132812 -0.898438 Z M 1.257812 -2.609375 L 1.441406 -2.609375 L 1.441406 -0.898438 L 1.835938 -0.898438 L 1.835938 -0.648438 L 1.441406 -0.648438 L 1.441406 0 L 1.136719 0 L 1.136719 -0.648438 L 0.0429688 -0.648438 L 0.0429688 -0.898438 Z "/>
</g>
</g>
</defs>
<g fill="rgb(73.333333%, 73.333333%, 73.333333%)" fill-opacity="1">
<use xlink:href="#glyph-0-0" x="30" y="22.916992"/>
<use xlink:href="#glyph-0-1" x="32" y="22.916992"/>
<use xlink:href="#glyph-0-2" x="34" y="22.916992"/>
</g>
</svg>
