<?xml version="1.0" encoding="UTF-8"?>
<svg xmlns="http://www.w3.org/2000/svg" xmlns:xlink="http://www.w3.org/1999/xlink" width="854" height="480" viewBox="0 0 854 480">
<defs>
<g>
<g id="glyph-0-0">
<path d="M 0.292969 -7.507812 L 6.980469 -7.507812 L 6.992188 -5.269531 L 6.671875 -5.269531 C 6.566406 -6.066406 6.269531 -6.609375 5.773438 -6.890625 C 5.492188 -7.046875 5.078125 -7.128906 4.523438 -7.144531 L 4.523438 -1.296875 C 4.523438 -0.886719 4.597656 -0.617188 4.738281 -0.484375 C 4.882812 -0.347656 5.179688 -0.28125 5.632812 -0.28125 L 5.632812 0 L 1.671875 0 L 1.671875 -0.28125 C 2.105469 -0.28125 2.394531 -0.351562 2.535156 -0.484375 C 2.679688 -0.621094 2.75 -0.890625 2.75 -1.296875 L 2.75 -7.144531 C 2.207031 -7.128906 1.792969 -7.046875 1.503906 -6.890625 C 0.972656 -6.601562 0.671875 -6.058594 0.601562 -5.269531 L 0.28125 -5.269531 Z "/>
</g>
<g id="glyph-0-1">
<path d="M 0.179688 -0.265625 C 0.382812 -0.292969 0.53125 -0.347656 0.625 -0.429688 C 0.722656 -0.515625 0.769531 -0.683594 0.769531 -0.9375 L 0.769531 -6.597656 C 0.769531 -6.816406 0.730469 -6.972656 0.652344 -7.0625 C 0.570312 -7.148438 0.414062 -7.207031 0.179688 -7.238281 L 0.179688 -7.507812 L 2.328125 -7.507812 L 2.328125 -4.382812 C 2.554688 -4.65625 2.792969 -4.871094 3.046875 -5.019531 C 3.296875 -5.171875 3.582031 -5.246094 3.894531 -5.246094 C 4.320312 -5.246094 4.675781 -5.121094 4.953125 -4.875 C 5.230469 -4.625 5.371094 -4.203125 5.371094 -3.609375 L 5.371094 -0.9375 C 5.371094 -0.6875 5.414062 -0.523438 5.5 -0.449219 C 5.582031 -0.371094 5.726562 -0.308594 5.925781 -0.265625 L 5.925781 0 L 3.316406 0 L 3.316406 -0.265625 C 3.515625 -0.304688 3.648438 -0.359375 3.722656 -0.429688 C 3.792969 -0.496094 3.828125 -0.652344 3.828125 -0.894531 L 3.828125 -3.585938 C 3.828125 -3.839844 3.804688 -4.027344 3.753906 -4.15625 C 3.667969 -4.382812 3.496094 -4.496094 3.238281 -4.496094 C 3.046875 -4.496094 2.847656 -4.410156 2.644531 -4.230469 C 2.441406 -4.054688 2.339844 -3.933594 2.339844 -3.867188 L 2.339844 -0.894531 C 2.339844 -0.652344 2.375 -0.496094 2.445312 -0.429688 C 2.519531 -0.359375 2.65625 -0.304688 2.855469 -0.265625 L 2.855469 0 L 0.179688 0 Z "/>
</g>
<g id="glyph-0-2">
<path d="M 0.25 -2.550781 C 0.25 -3.402344 0.476562 -4.066406 0.929688 -4.539062 C 1.382812 -5.011719 1.929688 -5.246094 2.570312 -5.246094 C 2.9375 -5.246094 3.28125 -5.148438 3.601562 -4.957031 C 3.925781 -4.765625 4.171875 -4.5 4.34375 -4.160156 C 4.476562 -3.902344 4.566406 -3.570312 4.617188 -3.164062 C 4.640625 -2.972656 4.65625 -2.824219 4.65625 -2.722656 L 1.824219 -2.722656 C 1.847656 -2.277344 1.921875 -1.894531 2.039062 -1.566406 C 2.257812 -0.957031 2.636719 -0.652344 3.183594 -0.652344 C 3.445312 -0.652344 3.691406 -0.730469 3.921875 -0.894531 C 4.0625 -0.992188 4.238281 -1.15625 4.449219 -1.390625 L 4.703125 -1.230469 C 4.359375 -0.667969 3.960938 -0.273438 3.511719 -0.0546875 C 3.21875 0.0859375 2.878906 0.15625 2.5 0.15625 C 1.953125 0.15625 1.441406 -0.0585938 0.964844 -0.488281 C 0.488281 -0.917969 0.25 -1.605469 0.25 -2.550781 Z M 3.289062 -3.136719 C 3.28125 -3.789062 3.230469 -4.246094 3.136719 -4.507812 C 3.042969 -4.769531 2.855469 -4.898438 2.570312 -4.898438 C 2.28125 -4.898438 2.085938 -4.75 1.976562 -4.449219 C 1.871094 -4.148438 1.808594 -3.710938 1.796875 -3.136719 Z "/>
</g>
<g id="glyph-0-3">
<rect x="0" y="0" width="0" height="0" mask="url(#mask-0)"/>
</g>
<g id="glyph-0-4">
<path d="M 4.296875 -7.648438 C 4.757812 -7.648438 5.226562 -7.5625 5.703125 -7.390625 C 6.175781 -7.21875 6.4375 -7.132812 6.492188 -7.132812 C 6.632812 -7.132812 6.746094 -7.1875 6.832031 -7.296875 C 6.917969 -7.40625 6.972656 -7.519531 6.992188 -7.636719 L 7.300781 -7.636719 L 7.300781 -5.039062 L 7.019531 -5.039062 C 6.753906 -5.605469 6.480469 -6.050781 6.199219 -6.375 C 5.679688 -6.976562 5.089844 -7.273438 4.433594 -7.273438 C 3.6875 -7.273438 3.160156 -6.953125 2.84375 -6.3125 C 2.53125 -5.671875 2.375 -4.808594 2.375 -3.726562 C 2.375 -2.929688 2.46875 -2.277344 2.652344 -1.761719 C 2.996094 -0.800781 3.632812 -0.320312 4.566406 -0.320312 C 5.140625 -0.320312 5.671875 -0.480469 6.164062 -0.796875 C 6.445312 -0.980469 6.777344 -1.277344 7.160156 -1.683594 L 7.492188 -1.410156 C 7.058594 -0.925781 6.675781 -0.574219 6.347656 -0.359375 C 5.761719 0.0273438 5.109375 0.222656 4.394531 0.222656 C 3.296875 0.222656 2.378906 -0.101562 1.636719 -0.753906 C 0.816406 -1.472656 0.40625 -2.441406 0.40625 -3.660156 C 0.40625 -4.871094 0.800781 -5.847656 1.585938 -6.597656 C 2.324219 -7.296875 3.226562 -7.648438 4.296875 -7.648438 Z "/>
</g>
<g id="glyph-0-5">
<path d="M 2.4375 -0.632812 C 2.617188 -0.632812 2.785156 -0.6875 2.941406 -0.796875 C 3.027344 -0.863281 3.128906 -0.964844 3.25 -1.101562 L 3.25 -2.722656 C 2.953125 -2.652344 2.691406 -2.535156 2.46875 -2.382812 C 2.089844 -2.117188 1.898438 -1.78125 1.898438 -1.371094 C 1.898438 -1.128906 1.953125 -0.945312 2.0625 -0.820312 C 2.175781 -0.695312 2.296875 -0.632812 2.4375 -0.632812 Z M 0.28125 -1.035156 C 0.28125 -1.535156 0.523438 -1.929688 1.003906 -2.222656 C 1.484375 -2.515625 2.238281 -2.8125 3.265625 -3.109375 L 3.265625 -3.917969 C 3.265625 -4.246094 3.195312 -4.488281 3.058594 -4.648438 C 2.917969 -4.804688 2.671875 -4.882812 2.316406 -4.882812 C 2.117188 -4.882812 1.953125 -4.84375 1.824219 -4.769531 C 1.695312 -4.695312 1.632812 -4.605469 1.632812 -4.492188 C 1.632812 -4.449219 1.640625 -4.414062 1.65625 -4.382812 C 1.667969 -4.355469 1.691406 -4.324219 1.71875 -4.292969 L 1.785156 -4.214844 C 1.835938 -4.152344 1.875 -4.085938 1.90625 -4.011719 C 1.9375 -3.9375 1.953125 -3.859375 1.953125 -3.777344 C 1.953125 -3.566406 1.882812 -3.402344 1.742188 -3.289062 C 1.605469 -3.175781 1.441406 -3.121094 1.257812 -3.121094 C 1.046875 -3.121094 0.863281 -3.183594 0.714844 -3.308594 C 0.5625 -3.4375 0.488281 -3.617188 0.488281 -3.855469 C 0.488281 -4.285156 0.6875 -4.621094 1.089844 -4.871094 C 1.492188 -5.121094 1.984375 -5.246094 2.570312 -5.246094 C 3.199219 -5.246094 3.726562 -5.125 4.148438 -4.882812 C 4.570312 -4.636719 4.78125 -4.183594 4.78125 -3.527344 L 4.78125 -0.835938 C 4.78125 -0.757812 4.800781 -0.6875 4.839844 -0.632812 C 4.882812 -0.578125 4.929688 -0.546875 4.980469 -0.546875 C 5.023438 -0.546875 5.0625 -0.554688 5.097656 -0.574219 C 5.132812 -0.589844 5.183594 -0.632812 5.257812 -0.707031 L 5.425781 -0.472656 C 5.207031 -0.21875 4.96875 -0.0429688 4.703125 0.0585938 C 4.535156 0.125 4.363281 0.15625 4.175781 0.15625 C 3.847656 0.15625 3.609375 0.0625 3.457031 -0.128906 C 3.371094 -0.238281 3.304688 -0.398438 3.265625 -0.613281 C 2.957031 -0.304688 2.609375 -0.0898438 2.222656 0.0390625 C 1.988281 0.117188 1.757812 0.15625 1.53125 0.15625 C 1.226562 0.15625 0.941406 0.0625 0.679688 -0.132812 C 0.414062 -0.328125 0.28125 -0.628906 0.28125 -1.035156 Z "/>
</g>
<g id="glyph-0-6">
<path d="M 0.667969 -6.8125 C 0.667969 -7.050781 0.75 -7.257812 0.917969 -7.425781 C 1.085938 -7.59375 1.292969 -7.675781 1.53125 -7.675781 C 1.765625 -7.675781 1.964844 -7.59375 2.132812 -7.425781 C 2.300781 -7.257812 2.386719 -7.050781 2.386719 -6.8125 C 2.386719 -6.574219 2.304688 -6.371094 2.132812 -6.203125 C 1.964844 -6.035156 1.765625 -5.953125 1.53125 -5.953125 C 1.292969 -5.953125 1.085938 -6.035156 0.917969 -6.203125 C 0.75 -6.371094 0.667969 -6.574219 0.667969 -6.8125 Z M 0.179688 -0.265625 C 0.375 -0.296875 0.507812 -0.347656 0.582031 -0.414062 C 0.691406 -0.511719 0.742188 -0.683594 0.742188 -0.9375 L 0.742188 -4.203125 C 0.742188 -4.429688 0.707031 -4.582031 0.628906 -4.664062 C 0.554688 -4.746094 0.402344 -4.804688 0.179688 -4.84375 L 0.179688 -5.117188 L 2.3125 -5.117188 L 2.3125 -0.894531 C 2.3125 -0.652344 2.347656 -0.496094 2.417969 -0.429688 C 2.492188 -0.359375 2.628906 -0.304688 2.828125 -0.265625 L 2.828125 0 L 0.179688 0 Z "/>
</g>
<g id="glyph-0-7">
<path d="M 0.179688 -0.265625 C 0.382812 -0.292969 0.53125 -0.347656 0.625 -0.429688 C 0.722656 -0.515625 0.769531 -0.683594 0.769531 -0.9375 L 0.769531 -4.203125 C 0.769531 -4.429688 0.730469 -4.585938 0.652344 -4.671875 C 0.574219 -4.757812 0.417969 -4.816406 0.179688 -4.84375 L 0.179688 -5.117188 L 2.285156 -5.117188 L 2.285156 -4.316406 C 2.460938 -4.585938 2.6875 -4.808594 2.960938 -4.984375 C 3.234375 -5.160156 3.535156 -5.246094 3.867188 -5.246094 C 4.34375 -5.246094 4.714844 -5.121094 4.976562 -4.878906 C 5.238281 -4.632812 5.371094 -4.199219 5.371094 -3.582031 L 5.371094 -0.894531 C 5.371094 -0.644531 5.414062 -0.484375 5.5 -0.414062 C 5.582031 -0.339844 5.726562 -0.292969 5.925781 -0.265625 L 5.925781 0 L 3.316406 0 L 3.316406 -0.265625 C 3.515625 -0.304688 3.648438 -0.359375 3.722656 -0.429688 C 3.792969 -0.496094 3.828125 -0.652344 3.828125 -0.894531 L 3.828125 -3.585938 C 3.828125 -3.839844 3.804688 -4.027344 3.753906 -4.15625 C 3.667969 -4.382812 3.496094 -4.496094 3.238281 -4.496094 C 3.046875 -4.496094 2.871094 -4.425781 2.710938 -4.289062 C 2.550781 -4.148438 2.425781 -4.007812 2.339844 -3.867188 L 2.339844 -0.894531 C 2.339844 -0.652344 2.375 -0.496094 2.445312 -0.429688 C 2.519531 -0.359375 2.65625 -0.304688 2.855469 -0.265625 L 2.855469 0 L 0.179688 0 Z "/>
</g>
<g id="glyph-0-8">
<path d="M 0.179688 -0.28125 C 0.554688 -0.300781 0.8125 -0.371094 0.949219 -0.492188 C 1.085938 -0.617188 1.15625 -0.882812 1.15625 -1.296875 L 1.15625 -6.207031 C 1.15625 -6.636719 1.074219 -6.917969 0.910156 -7.046875 C 0.800781 -7.132812 0.558594 -7.195312 0.179688 -7.226562 L 0.179688 -7.507812 L 3.753906 -7.507812 C 4.496094 -7.507812 5.097656 -7.429688 5.554688 -7.273438 C 6.445312 -6.960938 6.890625 -6.394531 6.890625 -5.578125 C 6.890625 -4.972656 6.667969 -4.496094 6.222656 -4.148438 C 5.882812 -3.890625 5.523438 -3.722656 5.144531 -3.652344 L 7.378906 -0.488281 C 7.441406 -0.402344 7.503906 -0.34375 7.574219 -0.316406 C 7.640625 -0.289062 7.726562 -0.273438 7.828125 -0.265625 L 7.828125 0 L 5.554688 0 L 3.25 -3.472656 L 2.957031 -3.472656 L 2.957031 -1.296875 C 2.957031 -0.90625 3.023438 -0.644531 3.152344 -0.507812 C 3.28125 -0.371094 3.542969 -0.296875 3.933594 -0.28125 L 3.933594 0 L 0.179688 0 Z M 2.957031 -3.828125 C 3.683594 -3.839844 4.203125 -3.941406 4.515625 -4.136719 C 4.828125 -4.332031 4.984375 -4.777344 4.984375 -5.480469 C 4.984375 -5.910156 4.925781 -6.25 4.804688 -6.5 C 4.601562 -6.921875 4.222656 -7.132812 3.679688 -7.132812 C 3.382812 -7.132812 3.1875 -7.097656 3.09375 -7.023438 C 3.003906 -6.949219 2.957031 -6.828125 2.957031 -6.65625 Z "/>
</g>
<g id="glyph-0-9">
<path d="M 2.273438 -5.117188 L 2.273438 -1.34375 C 2.273438 -1.121094 2.300781 -0.957031 2.355469 -0.851562 C 2.449219 -0.667969 2.632812 -0.574219 2.914062 -0.574219 C 3.089844 -0.574219 3.265625 -0.632812 3.433594 -0.742188 C 3.53125 -0.804688 3.65625 -0.90625 3.804688 -1.050781 L 3.804688 -4.203125 C 3.804688 -4.433594 3.757812 -4.597656 3.664062 -4.691406 C 3.570312 -4.78125 3.386719 -4.832031 3.109375 -4.84375 L 3.109375 -5.117188 L 5.320312 -5.117188 L 5.320312 -1.117188 C 5.320312 -0.886719 5.367188 -0.726562 5.453125 -0.636719 C 5.539062 -0.546875 5.707031 -0.492188 5.960938 -0.472656 L 5.960938 -0.21875 C 5.273438 -0.152344 4.839844 -0.105469 4.664062 -0.0742188 C 4.484375 -0.0429688 4.195312 0.0351562 3.804688 0.15625 L 3.804688 -0.574219 C 3.539062 -0.347656 3.320312 -0.1875 3.148438 -0.09375 C 2.84375 0.0742188 2.527344 0.15625 2.195312 0.15625 C 1.839844 0.15625 1.503906 0.0429688 1.195312 -0.183594 C 0.886719 -0.410156 0.730469 -0.816406 0.730469 -1.398438 L 0.730469 -4.203125 C 0.730469 -4.4375 0.695312 -4.59375 0.617188 -4.664062 C 0.542969 -4.738281 0.394531 -4.796875 0.179688 -4.84375 L 0.179688 -5.117188 Z "/>
</g>
<g id="glyph-0-10">
<path d="M 0.179688 -0.265625 C 0.375 -0.3125 0.511719 -0.375 0.59375 -0.453125 C 0.675781 -0.53125 0.714844 -0.691406 0.714844 -0.9375 L 0.714844 -6.597656 C 0.714844 -6.832031 0.679688 -6.984375 0.601562 -7.058594 C 0.527344 -7.128906 0.386719 -7.191406 0.179688 -7.238281 L 0.179688 -7.507812 L 2.285156 -7.507812 L 2.285156 -0.9375 C 2.285156 -0.691406 2.324219 -0.53125 2.402344 -0.457031 C 2.484375 -0.378906 2.625 -0.316406 2.828125 -0.265625 L 2.828125 0 L 0.179688 0 Z "/>
</g>
</g>
<image id="source-8" x="0" y="0" width="0" height="0"/>
<mask id="mask-0">
<use xlink:href="#source-8"/>
</mask>
</defs>
<g fill="rgb(0%, 0%, 0%)" fill-opacity="1">
<use xlink:href="#glyph-0-0" x="30" y="28.333008"/>
<use xlink:href="#glyph-0-1" x="37" y="28.333008"/>
<use xlink:href="#glyph-0-2" x="43" y="28.333008"/>
<use xlink:href="#glyph-0-3" x="48" y="28.333008"/>
<use xlink:href="#glyph-0-4" x="51" y="28.333008"/>
<use xlink:href="#glyph-0-1" x="59" y="28.333008"/>
<use xlink:href="#glyph-0-5" x="65" y="28.333008"/>
<use xlink:href="#glyph-0-6" x="71" y="28.333008"/>
<use xlink:href="#glyph-0-7" x="74" y="28.333008"/>
<use xlink:href="#glyph-0-3" x="80" y="28.333008"/>
<use xlink:href="#glyph-0-8" x="83" y="28.333008"/>
<use xlink:href="#glyph-0-9" x="91" y="28.333008"/>
<use xlink:href="#glyph-0-10" x="97" y="28.333008"/>
<use xlink:href="#glyph-0-2" x="100" y="28.333008"/>
</g>
</svg>
