<?xml version="1.0" encoding="UTF-8"?>
<svg xmlns="http://www.w3.org/2000/svg" xmlns:xlink="http://www.w3.org/1999/xlink" width="854" height="480" viewBox="0 0 854 480">
<defs>
<g>
<g id="glyph-0-0">
<path d="M 0.664062 -0.0507812 C 0.796875 -0.0507812 0.890625 -0.121094 0.9375 -0.269531 C 0.988281 -0.414062 1.011719 -0.625 1.011719 -0.902344 C 1.011719 -1.121094 1 -1.296875 0.96875 -1.425781 C 0.914062 -1.671875 0.808594 -1.792969 0.652344 -1.792969 C 0.5 -1.792969 0.394531 -1.667969 0.335938 -1.414062 C 0.308594 -1.28125 0.292969 -1.105469 0.292969 -0.886719 C 0.292969 -0.679688 0.308594 -0.519531 0.339844 -0.394531 C 0.398438 -0.164062 0.503906 -0.0507812 0.664062 -0.0507812 Z M 0.660156 -1.867188 C 0.867188 -1.867188 1.03125 -1.757812 1.144531 -1.539062 C 1.234375 -1.363281 1.28125 -1.160156 1.28125 -0.933594 C 1.28125 -0.753906 1.253906 -0.582031 1.199219 -0.421875 C 1.09375 -0.125 0.910156 0.0273438 0.648438 0.0273438 C 0.46875 0.0273438 0.324219 -0.0546875 0.207031 -0.21875 C 0.0859375 -0.390625 0.0234375 -0.625 0.0234375 -0.921875 C 0.0234375 -1.15625 0.0664062 -1.355469 0.148438 -1.523438 C 0.257812 -1.75 0.429688 -1.867188 0.660156 -1.867188 Z "/>
</g>
<g id="glyph-0-1">
<path d="M 0.453125 0.03125 C 0.410156 0.03125 0.371094 0.015625 0.34375 -0.0117188 C 0.3125 -0.0429688 0.296875 -0.078125 0.296875 -0.121094 C 0.296875 -0.164062 0.3125 -0.199219 0.34375 -0.230469 C 0.375 -0.261719 0.410156 -0.273438 0.453125 -0.273438 C 0.496094 -0.273438 0.53125 -0.261719 0.5625 -0.230469 C 0.589844 -0.199219 0.605469 -0.164062 0.605469 -0.121094 C 0.605469 -0.078125 0.589844 -0.0429688 0.5625 -0.0117188 C 0.53125 0.0195312 0.496094 0.03125 0.453125 0.03125 Z "/>
</g>
<g id="glyph-0-2">
<path d="M 1.300781 -0.617188 C 1.300781 -0.453125 1.246094 -0.300781 1.140625 -0.167969 C 1.035156 -0.0351562 0.894531 0.03125 0.726562 0.03125 C 0.566406 0.03125 0.421875 -0.0429688 0.289062 -0.195312 C 0.160156 -0.34375 0.09375 -0.542969 0.09375 -0.789062 C 0.09375 -1.109375 0.222656 -1.382812 0.476562 -1.609375 C 0.703125 -1.800781 0.953125 -1.898438 1.238281 -1.898438 L 1.242188 -1.855469 C 1.128906 -1.832031 1.03125 -1.804688 0.953125 -1.769531 C 0.871094 -1.734375 0.796875 -1.683594 0.730469 -1.621094 C 0.664062 -1.554688 0.605469 -1.472656 0.546875 -1.371094 C 0.488281 -1.269531 0.449219 -1.171875 0.425781 -1.074219 C 0.484375 -1.109375 0.53125 -1.132812 0.574219 -1.148438 C 0.644531 -1.175781 0.71875 -1.191406 0.789062 -1.191406 C 0.933594 -1.191406 1.054688 -1.140625 1.152344 -1.042969 C 1.25 -0.945312 1.300781 -0.800781 1.300781 -0.617188 Z M 1.050781 -0.511719 C 1.050781 -0.632812 1.03125 -0.738281 0.992188 -0.832031 C 0.929688 -0.988281 0.824219 -1.066406 0.671875 -1.066406 C 0.53125 -1.066406 0.4375 -1.023438 0.390625 -0.941406 C 0.363281 -0.890625 0.351562 -0.8125 0.351562 -0.695312 C 0.351562 -0.550781 0.382812 -0.40625 0.445312 -0.265625 C 0.507812 -0.125 0.609375 -0.0546875 0.742188 -0.0546875 C 0.851562 -0.0546875 0.929688 -0.0976562 0.976562 -0.191406 C 1.027344 -0.28125 1.050781 -0.390625 1.050781 -0.511719 Z "/>
</g>
</g>
</defs>
<g fill="rgb(73.333333%, 73.333333%, 73.333333%)" fill-opacity="1">
<use xlink:href="#glyph-0-0" x="30" y="22.083008"/>
<use xlink:href="#glyph-0-1" x="31" y="22.083008"/>
<use xlink:href="#glyph-0-0" x="32" y="22.083008"/>
<use xlink:href="#glyph-0-2" x="33" y="22.083008"/>
</g>
</svg>
