<?xml version="1.0" encoding="UTF-8"?>
<svg xmlns="http://www.w3.org/2000/svg" xmlns:xlink="http://www.w3.org/1999/xlink" width="854" height="480" viewBox="0 0 854 480">
<defs>
<g>
<g id="glyph-0-0">
<path d="M 0.0546875 -0.0585938 C 0.191406 -0.0703125 0.277344 -0.0898438 0.316406 -0.121094 C 0.355469 -0.152344 0.378906 -0.230469 0.378906 -0.359375 L 0.378906 -1.84375 C 0.378906 -1.964844 0.359375 -2.046875 0.316406 -2.082031 C 0.277344 -2.117188 0.1875 -2.136719 0.0546875 -2.144531 L 0.0546875 -2.207031 L 1.039062 -2.207031 L 1.039062 -2.144531 C 0.902344 -2.136719 0.816406 -2.117188 0.777344 -2.082031 C 0.738281 -2.046875 0.714844 -1.964844 0.714844 -1.84375 L 0.714844 -0.359375 C 0.714844 -0.230469 0.734375 -0.152344 0.777344 -0.121094 C 0.816406 -0.0898438 0.90625 -0.0703125 1.039062 -0.0585938 L 1.039062 0 L 0.0546875 0 Z "/>
</g>
</g>
</defs>
<g fill="rgb(100%, 41.960784%, 41.960784%)" fill-opacity="1">
<use xlink:href="#glyph-0-0" x="30" y="22.5"/>
</g>
</svg>
