<?xml version="1.0" encoding="UTF-8"?>
<svg xmlns="http://www.w3.org/2000/svg" xmlns:xlink="http://www.w3.org/1999/xlink" width="854" height="480" viewBox="0 0 854 480">
<defs>
<g>
<g id="glyph-0-0">
<path d="M 0.664062 -0.0507812 C 0.796875 -0.0507812 0.890625 -0.121094 0.9375 -0.269531 C 0.988281 -0.414062 1.011719 -0.625 1.011719 -0.902344 C 1.011719 -1.121094 1 -1.296875 0.96875 -1.425781 C 0.914062 -1.671875 0.808594 -1.792969 0.652344 -1.792969 C 0.5 -1.792969 0.394531 -1.667969 0.335938 -1.414062 C 0.308594 -1.28125 0.292969 -1.105469 0.292969 -0.886719 C 0.292969 -0.679688 0.308594 -0.519531 0.339844 -0.394531 C 0.398438 -0.164062 0.503906 -0.0507812 0.664062 -0.0507812 Z M 0.660156 -1.867188 C 0.867188 -1.867188 1.03125 -1.757812 1.144531 -1.539062 C 1.234375 -1.363281 1.28125 -1.160156 1.28125 -0.933594 C 1.28125 -0.753906 1.253906 -0.582031 1.199219 -0.421875 C 1.09375 -0.125 0.910156 0.0273438 0.648438 0.0273438 C 0.46875 0.0273438 0.324219 -0.0546875 0.207031 -0.21875 C 0.0859375 -0.390625 0.0234375 -0.625 0.0234375 -0.921875 C 0.0234375 -1.15625 0.0664062 -1.355469 0.148438 -1.523438 C 0.257812 -1.75 0.429688 -1.867188 0.660156 -1.867188 Z "/>
</g>
<g id="glyph-0-1">
<path d="M 0.453125 0.03125 C 0.410156 0.03125 0.371094 0.015625 0.34375 -0.0117188 C 0.3125 -0.0429688 0.296875 -0.078125 0.296875 -0.121094 C 0.296875 -0.164062 0.3125 -0.199219 0.34375 -0.230469 C 0.375 -0.261719 0.410156 -0.273438 0.453125 -0.273438 C 0.496094 -0.273438 0.53125 -0.261719 0.5625 -0.230469 C 0.589844 -0.199219 0.605469 -0.164062 0.605469 -0.121094 C 0.605469 -0.078125 0.589844 -0.0429688 0.5625 -0.0117188 C 0.53125 0.0195312 0.496094 0.03125 0.453125 0.03125 Z "/>
</g>
<g id="glyph-0-2">
<path d="M 0.214844 -0.234375 C 0.265625 -0.234375 0.332031 -0.210938 0.414062 -0.160156 C 0.496094 -0.109375 0.5625 -0.0820312 0.621094 -0.0820312 C 0.746094 -0.0820312 0.839844 -0.125 0.902344 -0.210938 C 0.964844 -0.296875 0.996094 -0.386719 0.996094 -0.488281 C 0.996094 -0.585938 0.96875 -0.671875 0.921875 -0.742188 C 0.835938 -0.867188 0.695312 -0.929688 0.496094 -0.929688 C 0.484375 -0.929688 0.472656 -0.929688 0.460938 -0.929688 C 0.449219 -0.929688 0.4375 -0.925781 0.421875 -0.925781 L 0.421875 -0.960938 C 0.566406 -1.011719 0.679688 -1.074219 0.761719 -1.140625 C 0.84375 -1.207031 0.886719 -1.296875 0.886719 -1.410156 C 0.886719 -1.507812 0.855469 -1.582031 0.789062 -1.632812 C 0.722656 -1.683594 0.648438 -1.710938 0.5625 -1.710938 C 0.464844 -1.710938 0.378906 -1.675781 0.300781 -1.601562 C 0.257812 -1.5625 0.214844 -1.5 0.167969 -1.417969 L 0.125 -1.425781 C 0.160156 -1.5625 0.226562 -1.675781 0.328125 -1.757812 C 0.425781 -1.839844 0.539062 -1.878906 0.667969 -1.878906 C 0.808594 -1.878906 0.914062 -1.839844 0.988281 -1.765625 C 1.0625 -1.691406 1.101562 -1.601562 1.101562 -1.503906 C 1.101562 -1.414062 1.070312 -1.335938 1.007812 -1.261719 C 0.972656 -1.21875 0.917969 -1.171875 0.84375 -1.121094 C 0.929688 -1.085938 1 -1.042969 1.054688 -0.992188 C 1.152344 -0.898438 1.203125 -0.777344 1.203125 -0.628906 C 1.203125 -0.457031 1.132812 -0.308594 1 -0.175781 C 0.863281 -0.046875 0.671875 0.0195312 0.421875 0.0195312 C 0.3125 0.0195312 0.234375 0.00390625 0.1875 -0.0273438 C 0.144531 -0.0625 0.121094 -0.0976562 0.121094 -0.136719 C 0.121094 -0.160156 0.128906 -0.183594 0.144531 -0.203125 C 0.160156 -0.226562 0.183594 -0.234375 0.214844 -0.234375 Z "/>
</g>
<g id="glyph-0-3">
<path d="M 0.207031 -0.25 C 0.257812 -0.25 0.328125 -0.21875 0.410156 -0.160156 C 0.492188 -0.101562 0.558594 -0.0742188 0.601562 -0.0742188 C 0.707031 -0.0742188 0.796875 -0.117188 0.875 -0.210938 C 0.953125 -0.300781 0.992188 -0.414062 0.992188 -0.550781 C 0.992188 -0.785156 0.867188 -0.953125 0.617188 -1.054688 C 0.480469 -1.113281 0.351562 -1.140625 0.230469 -1.140625 C 0.210938 -1.140625 0.199219 -1.140625 0.195312 -1.140625 C 0.191406 -1.144531 0.183594 -1.148438 0.175781 -1.15625 C 0.179688 -1.164062 0.179688 -1.171875 0.179688 -1.175781 C 0.183594 -1.179688 0.183594 -1.183594 0.1875 -1.1875 L 0.480469 -1.835938 L 1.0625 -1.835938 C 1.09375 -1.835938 1.113281 -1.84375 1.128906 -1.851562 C 1.144531 -1.863281 1.167969 -1.882812 1.191406 -1.90625 L 1.214844 -1.890625 L 1.109375 -1.636719 C 1.105469 -1.628906 1.09375 -1.625 1.078125 -1.621094 C 1.0625 -1.621094 1.042969 -1.621094 1.023438 -1.621094 L 0.5 -1.621094 L 0.386719 -1.382812 C 0.535156 -1.355469 0.640625 -1.332031 0.710938 -1.308594 C 0.824219 -1.273438 0.917969 -1.214844 0.992188 -1.140625 C 1.058594 -1.078125 1.109375 -1.003906 1.140625 -0.925781 C 1.175781 -0.84375 1.191406 -0.761719 1.191406 -0.671875 C 1.191406 -0.472656 1.121094 -0.304688 0.976562 -0.171875 C 0.835938 -0.0390625 0.65625 0.03125 0.4375 0.03125 C 0.347656 0.03125 0.277344 0.0195312 0.222656 0.00390625 C 0.132812 -0.0234375 0.0898438 -0.0742188 0.0898438 -0.144531 C 0.0898438 -0.171875 0.0976562 -0.199219 0.117188 -0.21875 C 0.136719 -0.238281 0.167969 -0.25 0.207031 -0.25 Z "/>
</g>
</g>
</defs>
<g fill="rgb(73.333333%, 73.333333%, 73.333333%)" fill-opacity="1">
<use xlink:href="#glyph-0-0" x="30" y="22.083008"/>
<use xlink:href="#glyph-0-1" x="31" y="22.083008"/>
<use xlink:href="#glyph-0-2" x="32" y="22.083008"/>
<use xlink:href="#glyph-0-3" x="33" y="22.083008"/>
</g>
</svg>
