<?xml version="1.0" encoding="UTF-8"?>
<svg xmlns="http://www.w3.org/2000/svg" xmlns:xlink="http://www.w3.org/1999/xlink" width="854" height="480" viewBox="0 0 854 480">
<defs>
<g>
<g id="glyph-0-0">
<path d="M 0.0546875 -0.0898438 C 0.261719 -0.109375 0.394531 -0.160156 0.453125 -0.230469 C 0.511719 -0.304688 0.542969 -0.472656 0.542969 -0.734375 L 0.542969 -2.765625 C 0.542969 -2.945312 0.511719 -3.0625 0.457031 -3.117188 C 0.398438 -3.171875 0.269531 -3.207031 0.0703125 -3.214844 L 0.0703125 -3.308594 L 1.058594 -3.308594 L 2.214844 -0.785156 L 3.320312 -3.308594 L 4.316406 -3.308594 L 4.316406 -3.214844 C 4.132812 -3.203125 4.011719 -3.167969 3.957031 -3.113281 C 3.902344 -3.058594 3.875 -2.945312 3.875 -2.765625 L 3.875 -0.542969 C 3.875 -0.359375 3.902344 -0.242188 3.957031 -0.191406 C 4.011719 -0.140625 4.132812 -0.105469 4.316406 -0.0898438 L 4.316406 0 L 2.914062 0 L 2.914062 -0.0898438 C 3.117188 -0.105469 3.242188 -0.144531 3.292969 -0.199219 C 3.34375 -0.253906 3.367188 -0.390625 3.367188 -0.601562 L 3.367188 -2.847656 L 2.085938 0 L 2.019531 0 L 0.761719 -2.730469 L 0.761719 -0.734375 C 0.761719 -0.460938 0.800781 -0.28125 0.882812 -0.199219 C 0.933594 -0.144531 1.050781 -0.109375 1.230469 -0.0898438 L 1.230469 0 L 0.0546875 0 Z "/>
</g>
<g id="glyph-0-1">
<path d="M 0.0546875 -0.0898438 C 0.238281 -0.109375 0.359375 -0.144531 0.414062 -0.1875 C 0.46875 -0.234375 0.496094 -0.351562 0.496094 -0.542969 L 0.496094 -2.765625 C 0.496094 -2.945312 0.46875 -3.058594 0.414062 -3.113281 C 0.359375 -3.167969 0.242188 -3.203125 0.0546875 -3.214844 L 0.0546875 -3.308594 L 1.46875 -3.308594 L 1.46875 -3.214844 C 1.285156 -3.207031 1.164062 -3.175781 1.101562 -3.125 C 1.039062 -3.074219 1.007812 -2.964844 1.007812 -2.800781 L 1.007812 -0.398438 C 1.007812 -0.34375 1.015625 -0.300781 1.035156 -0.265625 C 1.054688 -0.234375 1.09375 -0.214844 1.15625 -0.207031 C 1.195312 -0.203125 1.234375 -0.199219 1.277344 -0.199219 C 1.316406 -0.195312 1.394531 -0.195312 1.507812 -0.195312 C 1.953125 -0.195312 2.253906 -0.230469 2.410156 -0.304688 C 2.566406 -0.378906 2.71875 -0.566406 2.863281 -0.867188 L 2.992188 -0.867188 L 2.746094 0 L 0.0546875 0 Z "/>
</g>
<g id="glyph-0-2">
<path d="M 2.230469 -1.285156 L 1.652344 -2.660156 L 1.082031 -1.285156 Z M 0.0742188 0 L 0.0742188 -0.0898438 C 0.203125 -0.105469 0.296875 -0.152344 0.363281 -0.238281 C 0.425781 -0.320312 0.539062 -0.546875 0.695312 -0.914062 L 1.734375 -3.367188 L 1.832031 -3.367188 L 3.078125 -0.53125 C 3.160156 -0.34375 3.226562 -0.226562 3.277344 -0.183594 C 3.328125 -0.136719 3.410156 -0.105469 3.527344 -0.0898438 L 3.527344 0 L 2.257812 0 L 2.257812 -0.0898438 C 2.402344 -0.101562 2.496094 -0.121094 2.539062 -0.136719 C 2.582031 -0.15625 2.601562 -0.203125 2.601562 -0.277344 C 2.601562 -0.300781 2.59375 -0.34375 2.578125 -0.40625 C 2.5625 -0.46875 2.539062 -0.53125 2.507812 -0.601562 L 2.300781 -1.082031 L 0.992188 -1.082031 C 0.863281 -0.753906 0.785156 -0.554688 0.761719 -0.480469 C 0.734375 -0.410156 0.722656 -0.351562 0.722656 -0.308594 C 0.722656 -0.226562 0.757812 -0.167969 0.824219 -0.132812 C 0.867188 -0.113281 0.945312 -0.101562 1.0625 -0.0898438 L 1.0625 0 Z "/>
</g>
</g>
</defs>
<g fill="rgb(51.372549%, 75.686275%, 40.392157%)" fill-opacity="1">
<use xlink:href="#glyph-0-0" x="30" y="23.75"/>
<use xlink:href="#glyph-0-1" x="34" y="23.75"/>
<use xlink:href="#glyph-0-2" x="37" y="23.75"/>
</g>
</svg>
